<mxfile host="Electron" modified="2024-02-14T08:24:24.410Z" agent="Mozilla/5.0 (Windows NT 10.0; Win64; x64) AppleWebKit/537.36 (KHTML, like Gecko) draw.io/21.2.8 Chrome/112.0.5615.165 Electron/24.2.0 Safari/537.36" etag="17zX4PjeYHY3hqBMXJ4-" version="21.2.8" type="device">
  <diagram name="Page-1" id="2XWkQP5S-hDbL94sL5Vg">
    <mxGraphModel dx="2689" dy="1447" grid="1" gridSize="10" guides="1" tooltips="1" connect="1" arrows="1" fold="1" page="1" pageScale="1" pageWidth="3300" pageHeight="4681" background="#999999" math="0" shadow="0">
      <root>
        <mxCell id="0" />
        <mxCell id="1" parent="0" />
        <mxCell id="xiy0QbpAHzDJ8ke_l5_5-3" value="" style="rounded=0;whiteSpace=wrap;html=1;fillColor=#dae8fc;strokeColor=#6c8ebf;" parent="1" vertex="1">
          <mxGeometry x="290" y="300" width="560" height="220" as="geometry" />
        </mxCell>
        <mxCell id="oEqSe_yDJrS0Ksb8nEnk-4" value="&lt;font style=&quot;font-size: 30px;&quot;&gt;QML Modules: The old way&lt;/font&gt;" style="rounded=0;whiteSpace=wrap;html=1;fillColor=#dae8fc;strokeColor=#6c8ebf;" parent="1" vertex="1">
          <mxGeometry x="690" y="40" width="560" height="60" as="geometry" />
        </mxCell>
        <mxCell id="lQQ4Jf6eWG17NNAdZKtj-4" value="&lt;font style=&quot;font-size: 30px;&quot;&gt;Custom Buttons&lt;/font&gt;" style="rounded=0;whiteSpace=wrap;html=1;fillColor=#dae8fc;strokeColor=#6c8ebf;" parent="1" vertex="1">
          <mxGeometry x="290" y="230" width="560" height="60" as="geometry" />
        </mxCell>
        <mxCell id="xiy0QbpAHzDJ8ke_l5_5-2" value="custom_buttons/&#xa;├── BlueButton.qml&#xa;├── GreenButton.qml&#xa;├── MButton.qml&#xa;└── RedButton.qml" style="text;whiteSpace=wrap;fontSize=26;" parent="1" vertex="1">
          <mxGeometry x="320" y="320" width="550" height="180" as="geometry" />
        </mxCell>
        <mxCell id="_r4hAPUsHNc9goj0nPAU-1" value="" style="shape=image;verticalLabelPosition=bottom;labelBackgroundColor=default;verticalAlign=top;aspect=fixed;imageAspect=0;image=data:image/png,iVBORw0KGgoAAAANSUhEUgAAA38AAAQmCAYAAACAkQY+AAAAAXNSR0IArs4c6QAAAARnQU1BAACxjwv8YQUAAAAJcEhZcwAADsMAAA7DAcdvqGQAAP+lSURBVHhe7P0PdJT1nf9/v4H0y59Y+TOhkEBgUAxgiwopSpslKovtl6KSuy0c6Pl99+Bu2dWcrXjjcg549KCnHuV3WPmp+72D36VduXvfd8OBtb9EZTldqa7YtChNUGlFUiwBJAHJJOA2BL4b5P58rutzzVwzc81kZjIzmck8H+eMueYzc831b4LXK59/w+5avOSaDJKuQKdZAgAAAABk0nDzEwAAAAAwhBH+AAAAAKAAEP4AAAAAoAAQ/gAAAACgAORN+Bv10HMyafvPxffQIlMCpFuJrH62VnbtrJVtKypMWfr4V6w2n11iSgAAAIDsyY/wV75Kim8ptRaLJk2RImsJRTU6ED8qo8zzTPFXLZQNz9rBxX6slg0qHPnN67GZMPXswgTeG5L69gZo+kxZYH/NpGzZjVJtLwIAAABDQn6Ev9MH5co5vdAhl98/KH1WYaHzy6jbVFI5dyaj56N63WrZsna+VJaONyXaeKlctkS2PLs07QEp29sLc/K4HOqwF9v3fiIH7MU8V2Kd023BIK3DuArTVZmqfYze3jZ13VZnbHsAAABIFPP85a1FMnb7QzLqw+1ybvs7piy9dDPFLct0COuW5r1vyJ49ndKmX5heIRseXKICmlruaJGNmw7a5VF0zd9KWS7x3hMy8O3lNuf42vfulvXq2DLOfd68HN4vq15oNU/SYPpC2fbUfCkzTyO1q+2tT+f2AAAAkBQGfMlXd9xuNfe83JKZ4CdSISusICbSvKNetjpBTDvZKls37ZdmvVw6X1ZUWaUeJsjUWMEjSjq2hyAriOngp4P0ftm4pk5WmcfGHSekXb9n3hLZkLZzqYL+g3bw0yFv42bX9jara9chUqa2R39HAACAwZObNX93PCqT1lSaJy7nXpXAk7tiNHP0y3VPPiPF57bLuddFrru3xu4neK5Zen76nPxZFkWXnTarutfd/o4U3bFKipfeL6Mm2a/2mfdfDr4/QrlfRt37I+uzg/0R9Tr7XpE/vxu7jkr32fN9W6TnmUftfSlfJGP/pkZt1yQm9RkXg9tVrz3pei0utd5Daj3zLCVVS2XX2hnxa9qc97hrkFTZtntnSFkiuxmxXkrbc2qbYq5nah9VCGrcXC/1J01xsNw8jZBY7VyJ+KsWyMP3jlPH6zRT7Vbhp1leVPsXuS/91fzp5pK189Tn6PDksX6y/CuWyjfe2+c6ZhevczkQ/X5ehWzYqcKonJC6NfuGSJNaAACA/JKTNX9Fpd4Nx/ri9vcrlxFWWLtdxj72UHCAGJlUKSPvfVR8EWXF97pGDS1fKCPVun0yRa5Tocm3JhT8tCL1/rGPPSfXlZsClyIVVH2PPSNj3cFP09tY84z4amIPU1JUqvenXfpUuLMGb1H7GBbu9D44gbN8itqPGEklUhr6AfrLxlk/21uOxw4hn6qgo3/OCx8cJaHgF2Eg2xsUukmlCo9bVOAJBT9tvFXDtWXnalk93RQlQAfDdAY/rW1PjOCnOecyzdrbu8xSpFbZs7db/Zwhd1BzCwAAMChyMvz1NTwq5x76Qeix02rwJ30dcW6JdTjSP2+ptPrBBVzrFamyooiyMGX2ukW33K8CosjlnY/Z79WPZ7bLZWuwmdLwwKjp4LdGfbZa7HM+33qo9X9ptv3tH3mGRnW7r8Kc+qGDmv6cb5fan/FM6DMu7nwlVHt3epfr89U+6TJdExoscz1i1o4mblqZHWg62uPUfp3sEnt8lHEyxQk6TfuCzf1WrTFNNXWtXLDM9XDVEKW8vZR1Sv2m6H3aaAWU/qjgZzWpVIsdJ6Rxx27XZ+yWur26WeV4mTrVfnd/gn0d9XlKU/Dr11QVUtWP2GEtNWVlE8xSpBJ1je2l0jKafgIAAAyGvOjzZ9cEdsjVeFUVJsBZgWj7O3b4aTc1YO4yo68j1IYzWNNohalH5eK7baH3nn5HLv70Vft52DQTi2SsaZp6eecPIj5frd/wnAqAOqqUyshKr9o/p6ZygfqcMjtw6s8I7labXI7VZNQJuhkb6bNEpkzWP7vl00+tghi65FMzOubAZHt7A+NfUSnWlbeamu6T+iZ3YO2UA3v2yfrNu2VrkymKIyz4ZW0gmxJZfe8M9fOENKRr4JmmT+ygb/XrC5+Ww566Y6VdswkAAIBBkwfhz5nS4FDsPneKE+Au73PVeplA6C5z3ueuRbSbX3ZIz09j1Jidjg5ZRTU11oArfb98TIVFuyxSX/Mha72iUo+qPyfATSqVvp124EyYc1wZG+wFsZXIN+brENMtjS/FCWsn+w9VoeB3QuqyOIJp9Tq7r2PzjnT2vXOadaqvp56WwzXVgz11R7c0H06kVhUAAACZkgfhz9SQ9VPL5QQ4d+3gqPm6fia8zH5fs1wJBjbT/NL0vUuUs70rzSnespsAFy88xuJ1XOnVKWfO6p/9NV1MZjTPeLK9vYFw9uGCnInVny4B/qqldvCzdMsps5Rpdt9C9W0/vD+hmslktO2pl407WqS5wx3y9AA4evTPetn6uwumDAAAAIMh98NfQlMaLJKRt+if7gDnFerM+8KCpAmXH74Xe3TMqGaWCQZGJ+C5mpg6nACXfHhMLawm61S7fQMft3/W9AliZ7GBBSEt29sbVPPvsQaK0U0963RtWel82bKuwryYOcGaRhXGMjXfXlvTQdm6qd7VB7Le2labul7VX9dNTdVhx+vXCQAAgIzJ+fCXUH8/J5yFBTiPUOfVV86ES6+A5hh17/3Wesk1s/TLdUvtPoHRA9UMJMAlEFbToK3drqUpmz9T7a03/+0z7Am9D38Sv/lg6XiZZhZjSev2siL1QWfK9Oigpo/fgT31UndYFaZ1zr1IJdY0Ejr46Vq4tEztkLQKuWOe/tlfv04AAABkSh6EP13Xk0INm1eo83ifVx/AMHc8KmOtWkV3U9E26bNGAK2UkXdYBVGKan4kxTqknXtVeqKadSbWlNWTE2AzzRnAI+ak6q5J2X/XX5hIICiluj1nBNAYAdO/4p6Yc/mlplXe1WFNxsvyBxfGDKoyvST2axGDuxx4wR4VtXJtctNDJMaez1APtmLNL5hs8JuuB2ux++4NZIL24CA5h5tjTz8BAACAjMrx8OfUkFVKsWu+vKI7Fsko1xgq3oO4JFpmJ4NRa34uvppFrmDll1EPPRecbP7yzvBJ0y+3WFFFrfecjL3DdZtfvsieK/Db+nNjDCLjVQOZrFtq5DrXdous7a6yAm96hAbw0KFkg7rxD27NmuNOT9itqCCzJ2bfsfCgVO0ONiocVVe5w0Sq23NGAJ0htetco0yqz19tarvS7UBDi1gV0bq55rNLZXXYceiJ35fKtqdWxmzKGT2XYats3XFC/ewnUCbLzEWoJ7hv3pHIpPXRqmv0YC32ctmye+KG0+p1KiSq81Gtzn2Q2ofQdeiWxobBqHUEAACANuyuxUuumeWs6wr0fzOqJz+3g1Q4Pb2CM1DKqId+LmNvUUHrmUflz6ZSzy5rlosqiNmhzS/XPfmMFE/yKFMhrU9KTdCMpgdlCTSE365r9jbMkyjh+xPmjketUBnrc+NzjsM8jeA+L+mgmwvGHKLfGqWynxEjpy9UQWi+3Vwzilp/Tfj6KW1Pha1dug+dB13b1VCma75U8Nhc32+tk9MvzqolixeW4h6XFr29/j7b3SdvwE0z+92/kHjHqgOdHiDGFu8c6qal98S+dmrd5h31aR9kBgAAAInL+WaffQ3/JBc/dE/u1iGXf7nd1ZTSq/+cKfMa2MWzrEECTz5mbcddE9f34aty8ZkfxAxol7er13Y2myagxjl7//R8gZ7BT+m3qWlcbfJnta89YedEfdY5FWrVvqYz+GkHXtAjOJ6Q9rDNmREc+wt+2smDsn7z/ogRINXVsiZHPxS1fkrba9oXvY4OipvrrFDjDCaTVvq4nAndvfZ1Tf9BM1LbnjekUX+W1f8v9SaWFjOJ+0DpWs5mc3zte9+Ic0yd5tqF3m9zjfZJ8AMAABhUOV/zl1Hlq8T32P0iKdXAFZ601kwlINvbAwAAAIay3J/qIYOKKheYAWAIfolo29NsD8oyb4lsc/evy5Bsbw8AAAAYygq65s+rryD6oQczWWumXAhKrD9dSrK9PQAAAGCIKuCav+xMlj7kNO2z+vA1Hs5APzov2d4eAAAAMEQVcM3fIhm7/SEZde5VCTzpMR0DAAAAAAwhhT3gCwAAAAAUiIIe8AUAAAAACgXhDwAAAAAKAOEPAAAAAAoA4Q8AAAAACgDhDwAAAAAKAOEPAAAAAAoA4Q8AAAAACgDhDwAAAAAKQN5M8j7qoedk7C2l0vfhdglsf8eUAulUIqufXSnLS0Xa9+6X9XtaTXl6+Fesli3LxqvP3q0+O/HvPnLA9IWy7an5UmaeBnW0yMZNB6XNPAUAAMhl+VHzV75KilXw04omTZEiawlFNc/JpO2PyijzPFP8VQtlw7OrZdfOWvNYLRtWVIjfvB6bDlPq/c8uTOC9Ialvb4Cmz5QF9tdMypbdKNX24pAQfU5rZdu6hVI93bwhJ6T2fQEAAEBi8qTmzy/XPfmMFE/qkMu//Ce52MDf2YPnRF6VwJO7pM+Uplv1utVSO2+8eRah44TUbdonB8zTaKYmTRKvHRnY9gZqKNb8qWNad48sj3VOpVuad9TL1ibzdFAl/30ZPBWyYecSqczZmr8S9bt0j9So6x6srexQ1/r1N9S1Tvd3z5wL88wTNaQAAOSEPOnz1yZ/fvIHcu6hRwl+QeUyYpL6ce5MxoKfDit2EFM3jSqwbFxTJ6v0Y/N+ae5QxaUzpDaNtTTZ3l60TqnfZG8z3cFvcJgw5ZzTHa5zuma31O09Ie0yXiq/XmG/HUPDdBXG1HXXv0thzVRL1bVeu1J2reN6AwBQqBjwJV/dcbvV3PNyS6b6P1bIimV2bZFVM7SnM/RX+5OtsnWTCmR6uXS+rKiySj1MkKmmGWX/0rE9hKlaYNViipyQus26ds91TlXQPbBnn6zfvFtWvZArQTeZ7ws8WX0Tl0hlqf4Dyn5X2K+TjTt02FfmLZENmfgd0rV7ru2FPaj1AwAgJ+Rms887HpVJazwaEZ2L18TRNIM8t13OvS5y3b01dj/Bc83S89Pn5M+yKLrstFnVve72d6TojlVSvPR+GaVr1pQ+8/7LwfdHKPfLqHt/ZH12sD+iXmffK/Lnd2Pf8ug+e75vi/Q886i9L+WLZOzf1Kjtmjtg9RkXg9tVrz3pei0utd5Daj3zLCVVS2XX2hnxm2s57zm8PxQgVNm2e2dIWSK7GbFeSttzBuKIuZ7TlLNbGlUAqj9pioPl5mmExJpmlohfBayH7x2njtcOrrqGrf1ws7yo9i9yX/pr9hls8qqOb6PH+skJHV/zjrqUmnXqfoIr7p2vgoQpiHNswe0Fm2xGNztsP9yi1o24Rql+Xwz7nEro2k6vkNU1lbIgbLv7va9HUscXKdlmn+p8rFggNfPdx2q216C2F/xeDpx/xVL5xnv7XN91F6/foYFyfgfT+ZkAACAjcrLmr6g0akw9S9/7B+M0cTTNIOV2GfvYQ8EBYmRSpYy891HxRZQV37vIXtbKF8pItW6fTJHrVGjyrQkFP61IvX/sY8/JdeWmwKVIBVXfY89YI5GGDUSjt7HmGfHVxG6kWFSq96dd+lS4swZvUfsYFu70PjiBs3yK2g/Xa/GkoSmov2yc9bO95XjsG9tP1c2r/jkvfHCUhG7kIwxke4PCNK3bom6kQ8FPU6Fj3hLZsnO1rE5iMJVgk9e0BD8lOHjNCXk36eCng1ytOjZ3MNISODZ1LqbFaHZYNm++bPFotpvK98WLPoe7nlpiNXMN2656hJ/PARxfSsz5WBYZcs32ntIDGpWYsoFr2xMj+GnO7xAAAChI+THgi6kJvLzzB3LxXVMWqXyVCmH32wHMTAfR565BjCxTz3UtnyWsprFDbeefpOfdNjtAWbVxOpSpZfc6mms9PQXFRf351jO/CnPfE9+39WsdoZq9MK4BW/ZNUYGz0v6M19VnWO/1y6g7RC571hyqfdqu9iluTejAVK+rVTfv/dUamdoPiaxVcyReO5Ly9lKu+fPWX+2czdkPpeOENL5+SOqDg2iYGh51o98RcSyxPtspT+ugGAOo4QnujzrPzTtcA4ToWrUHVbgyobJujXvwnVBNo02db7Wuc178an90UNZiX+PEvy8OZ1+bD5+Qynm65ljt10uH5MDJ0PXwT+8Mq1lL7fgiJb6voeur9019ZnBfnJpjtd8tWRoEyHwv0jroUPAz90tDWaX9RwyLrtk8IQ0NB13HDAAABlNe9PmzawI75Gq8P1mXmSkgdCByQli7qQFzlxl9HaE0Fqxp1O/Tg8o4wU87/Y5c/Omr9vOwaSZUADPBT4fS8M9X6zc8J4FfWqOUyMhKr9o/p6ZygfqcMvUZj9mfEdytthjBT9G1gPpnxgZ7KZEpk/XPbvn0U6sghi75VB/igGV7ewPjX1Fpgp++8d/nCn5aqC9dIk0tMxL8FKcmNWkqTD9sgpEOy2EjQ55slfpNu6XRugYzpCZWbZUOOWtU0Hat29a0T+oO28ulZemr5XLo4KcDzSo9Gmww+GnhwS8tx5ei9hYdSs0Ti9o3dV7Wb9IDDLn3OVNUQNdBUwXbhgxsr2zZElfw03TN5nypfao2M30MAQBA0vIg/Pll1G2lKugcit3nTnEC3OV9rpowEwjdZc77+jpCt9l288sO6flpjFq009Ehq6imxhpwpe+Xj8WsjexrPmStV1Tq0V7UCXCTSqVvpx04E+YcV8YGe0FsJfKN+SY8vBQnrIUFEG9hNUJpDH4DMtU0mTzcHKOWtFPqXz9hLZXNnxnVhNM+L941Zqfau81SBhzWU3MkEGgGfHzJa3vPHmilbNk99nyVgzS3YvU6pw9ovBrNFDQdksbDJ6QxbDRZ9XBG6VUq1y4dUvNmAgCQr/Ig/CU2pYET4Ny1g6Pm280u3WX2+5rlSjCw+aXIqoGz+94lytneleYUb9lNgIsXHmPxOq706pQzZ/XP8TJ1qlUQQ7pGZ8z29gbC2YcLcmYATdmsZpBWDZTWLafMUrq0tV+wFyZPSCrABPtetndZPz05/cZ0/z6rYPDF3V+XQTm+kwdl/eYWFYTGS+Uy3cfPTLT/rO7rl50wqP/QoJtV68FvEqmRTo4KzC/YNeBh/xpao/SGalLvoPYPAIBBl/vhL6EpDRbJyFv0T3eA8wp15n1hQdKEyw/fiz06ZlQzywQDoxPwXE1MHU6ASz48phZWk+XU0sRtojd9gthZbGBBSMv29gbV/Hvs/m8dLVK3Vx136XzZku6513IwoBU0FQC36jkkN9vzKzZ3qOujro0TBrep65+OWkYvwRpmXTua9dE4O+W3LQn8bgMAgKzI+fCXUH8/J5yFBTiPUOfVV86ES6+A5hh1rz2QTHLNLP1y3VK7T6C7ialtIAEugbCaBk7NUbymb/7bZ5gmdJ/Eb0aWQABJ6/ayYpxMSbHGpkydD6eP34E99XZfuHTPvXbyuBwaQN+1srIJZsmD03RSBZh011hashBYB+34Ttp9Qrduqpf1rqaRetTPh9Pcx1A3UdbTh+jgp2v8mIYBAADkQfjTdT0p1LB5hTqP93n1AQxzx6My1qpVdDcVbZO+c/pnpYy8wyqIUlTzIynWIe3cq9IT1awzsaasnpwAm2lNn/QzqbprUvbf9XdTmUBQSnV7J7vEyjgxAoN/xT2uESjToVXetQYuGS/LH4yetiBoekns1yIGdznwgj2BfeXaBKYYmL5QNjxrNxvcFjcshGpcdF+zmJ+rR7isCn2O0z9N5lXGWMcZNET9VsablmNAUg/W/Un78SUQVP1VcWr1dNNIp49hvECaNHv0VT0AizWyZ7LBL+HvmdqObrpqnkUL/d52tGdjUBsAABBPjoc/p4asUopd8+UV3bFIRrnGUPEexCXRMjsZjFrzc/HVLHIFK7+Meui54FQOl3eGT5p+ucWKKmq952TsHa5bn/JF9lyB39afG2MQGa8ayGTdUiPXubZbZG13lRV406NV9ugmiYoOJXoesuDWrHncnKkOWmRPzD5E4UGp2n2zrcJRtSt0pL49ZwTQGVLrbjqnPn+1qfVItwMNLaZJpZ63bmlYeNI3w7o/37anVsZsyhkdKlQA2KEDQD+BUqmuCc1NFzfUKW173jD9rdTnWnPJuW/Snf1cIsvXuj7n5EFpcK6ZXsd9bDooBqdzyMSIkcl8X1KUtuMLfe9q3OdVfUb4fi+Uh9facwdaTTvVcbj59XfbTIGRaL/Fflm/L/b0Js07UpvSIdHvmfXHFd101fweuL+7ehL9xP6dAAAA2ZLz8/zpyc/tIBXOPeffqId+LmNvCZ9Pzy5rlosqiNmhzcyrN8mjTIW0Pik1QTOaHpQl0BBdB2BvwzyJEmt+P8XMDxjrc+NzjsM8jRB3LsQU6GZj4cO3u1ijVPYzcqC6+bXm4TNPw0XPpZbS9sw8Y150rUdDma4BsYf2T888f0rc49Kit9ffZ7v7ZsVqoufMh2hL5JjsGqDYtZ86IOgpD8xTS//rRG/XWSf2PiV0bpP8viR8vcKkcnzRgtcrUsT10yFoxb2RE8pHiKgNTlm/38uQeOcsme9ZzPPgSOTfCQAAkBU53+yzr+Gf5OKH1p/YjQ65/MvtrqaUXv3nTJnXwC6eZQ0SePIxazvumri+D1+Vi8/8IGZAu7xdvbaz2TQBNc7Z+6fnC/QMfkq/TU3japM/q33tCTsn6rPOqVCr9jWdwU878EK9bNxxQtrDNqcnb95vzXHX7w2dNdKh7tdk1+o52tUNYeOOQ1Hrp7S9pn3R6+gbzs32/GkZmWJAH9cae/AOz33V89z1Ex4iBWvqrP5/3rVcutbRGT6/fe8bCWyjU+o31anzo9dznwe9ny3qHEUGP829jimypH5sCUvy+5Ka9Bxf2x71XdXX3zy36P38XXgNXluTPdhL9DVwjmt3eoKf5vRXHKBkvmf6POi+i42H1fkzZRZ1rLrmMaF/JwAAQFbkfM1fRpWvEt9j94ukVANXeBKpmUqnbG8PAAAAGMpyf6qHDCqqXGAGgCH4JaJtT7M9KMu8JRkdmt6R7e0BAAAAQ1lB1/x59RVEP/QgIWvNlAtBifWRSkm2twcAAAAMUQVc85edydKHnKZ9Vp8s3b8nK7K9PQAAAGCIKuCav0UydvtDMurcqxJ40mM6BgAAAAAYQgp7wBcAAAAAKBAFPeALAAAAABQKwh8AAAAAFADCHwAAAAAUAMIfAAAAABQAwh8AAAAAFADCHwAAAAAUAMIfAAAAABQAwh8AAAAAFIC8CX+jHnpOJm3/ufgeWmRKgEJQIqufrZVdO1fL6ummCAAAAEhBfoS/8lVSfEuptVg0aYoUWUsoqtGB+FEZZZ7DBKVnF4rflGAgUj2fXAcAAIBclB/h7/RBuXJOL3TI5fcPSp9VWOj8Muo2FYjPneF8AHnCP71CVq9bLbt2qnC8rsKUZoa/aqFssGqNncdq2bCigkAOAEABy5Nmn23y5yd/IOceelQuNrSZskJXLiMmqR+EPyDnVa+zA9iWp5bI8nnjTWnm+Fesli1r50ul3WDCGC+Vy5bIFmpkAQAoWAz4kq/uuN1q7nm55R37OZQJMjXsZhcDk+r55DpEOtWwX+p2mMfeblOaIdMXysPLdMDslua9u2XjmjpZpR+b90tzhyounS9bMlzrCAAActOwuxYvuWaWs64r0GmWItzxqExaU2meuJx7VQJP7opR0+WX6558RorPbZdzr4tcd2+N3U/wXLP0/PQ5+bMsii47bVZ1r7v9HSm6Y5UUL71fRumaNaXPvP9y8P0Ryv0y6t4fWZ8d7I+o19n3ivz53dg1lbrPnu/bIj3PPGrvS/kiGfs3NWq75s5ZfcbF4HbVa0+6XotLrfeQWs88G7gS8VctkIfvHSdlpU6tRbe0H26WF19olbAjVDee256aL2UdLbJx08Hw1yy6P9hKWV7aLY2b66X+pCkOKpHqFQukZv4MtS1T5GyrQW0r8v1VS2Xbve73xnF4v6xS+xtJN49bca+7liTGsSm6Bqd23gmpW3NIpqy7x9TiqJvsHfWytUkdW1SZtdoAhJ+v30qFrHiwUu2ruQ4dajuvv6G2E/G7lOp1SPV8Zvk6BPdfnONT3xt17mvUuS8z72g/3KLW9Tp2LcnvWTqpc7Vr7YyY52Gg7O+oOn4V/Nbvifw3tkI27FwilepYvX//AADAUJaTNX9Fpc7tW7i+uP39TDNIuV3GPvZQcIAYmVQpI+99VHwRZcX3ukYNLV8oI9W6fTJFrlOhybcmFPy0IvX+sY89J9eVmwKXIhVUfY89I2PdwU/T21jzjPhqYjewKirV+9MufSrcWYO3qH0MC3d6H5zAWT5F7YfrtXjS2RR0urpZVDfZW9TNaij4aeome94S2ZLWUSjtbdUuiwwRZltP6T5LJaYsJKHA4UkHiFrP5nHxj22c1OjgEWy+N14q712ogl9E2dqlUm2epcPUmtVWs8Fg8NPUcuXalWntP5bq+cz+dVDU8U8z39FaV/DTyubNj9HEMbXvWX6okDtU8BM5IQ1RwU9rlT1WzeN4mTrVLgEAAIUjN2v+IpmawMs7fyAX3zVlkcpXqRB2vx3APtwuge3vSJ+7BjGyTD3XtXyWsJrGDrWdf5Ked9vsAGXVxulQppbd62iu9frUaxf151vP/CrMfU9839avdYRq9sKY2kZ5VQL7pqjAWWl/xuvqM6z3+mXUHSKXPWsO1T5tV/sUtyY0HZxaAqXjhDS+fkjqgzVMpuZE3UB37KgL1XANoObP6qekm6upbdW9tE8OBF9zah5niLR41WY4zP7G3Ha44PasWjpX7ZkelOPBJWof9RNdy6f2xXohVKui17H33zke77Jm97lJifvz7dqshoaD5tzoa3CPCjF2GAzb1oBrYLXkzmdI5q9D5Hmxzr1a1/l++quWWn+w0CKvwcC/ZwOUyZo/57pHfLYOwMHrYLbvXTMIAACGsrzo82fXBHbI1Xb7uacyMwWEDkROCGs3NWDuMqOvI5TGgjWN+n16UBkn+Gmn35GLP33Vfh42zYQKYCb46VAa/vlq/YbnJPBLq4ONjKz0qv1zaioXqM8pU5/xmP0Zwd1qixH8FF0LqH9meLAX/4pKE/z0Tfw+V/DTOuXAnn2yfvPuAYabaO0th1w35FqntDWpbW2qS9/NqrpJdvpF6fAT1mzyZKvUb9otjfryyQyp8agFat+rgoa1j53y2xa7D5e77MxZqyitrJv1F5zgp+lrUC8bTR+yyq/nYT+uAV4Hiw5xa1SAda2rvy91h+3l0jLv9bLyPcu2qXbtZ3t7l/3cCuK1skU9tjnn79Nu0f+UlpVNsJ8DAICCkQfhz5nS4FDsPneKE+Au73PVhJlA6C5z3tfXEQpWdvPLDun5aYxatNPRIauopsYacKXvl4/FrI3saz5krVdU6tFe1Alwk0qlb6cdOBPmHFdGB3spkW/MNzflL8WpvTmZvpvktvdO2Dely+6xh6TP5KTm5iZZDjfHqPXqlPrXT1hLZfNnWjUnbh3t0cftLjvVnu5BPbrl0Hve59o5bzJ5QtR+5rwBXgf7++muEQyJdQ2y+j0bbFU32n/AUQh7AAAgD8JfYlMaOAHOXTs4ar7d7NJdZr+vWa4EA5tfiqwaOLvvXaKc7V1pTiK0uZkAFy88xuJ1XOnnjNh4Qc543pRnwMmDsn5zizR3mCHpnzLzkz1r5idL4026v2yc9TNUQ+LB1JBY/cqsghyXL/vpMijXIYvfs8ESDHpNh0zNabc0/y79g8sAAID8kvvhL6EpDRbJyFv0T3eA8wp15n1hQdKEyw/fiz06ZlQzywQDoxPwXE1MHU6ASz48phZW84a6Md+6SQ9Lv1vq9p5QN+jqxl8PamJu0retY5JqpMFQ/Z45QTmoU+r1ca5xjTwb1TQUAAAUipwPfwn193PCWViA8wh1Xn3lTLj0CmiOUffaA8kk18zSL9cttRtcuZuY2gYS4BIIq2k1TqYMRk3ISbtP4dZN9bLeNUeZHo3x4f5GYkyihihuUzinSaIKBqesghyV6f1MtcYtH67DQL5nuehkl/rXUpl3Y8yRZp3aVq+mywAAYGjLg/Cn2x6mUMPmFeo83ufVBzDMHY/KWKtW0d1UtE36zumflTLyDqsgSlHNj6RYh7Rzr0pPVLPOxJqyenICbMa1yrvWgBnjZfmDXsPlG9NLwl9zbj5j3Pj7V9zjGqExnL8qTm3LyVbZ6vT96rfvUv+BNdhPbl5ljGkESmS1HvVRaW85HrvPY9bEGpo/xn4O4DpES/UPALl5HdL3Pcui6Qtlw7N289TgwC2enN/bWAPkVMgKa4CdE/JumgdqAgAAuS/Hw59TQ1Ypxa758oruWCSjXGOoeA/ikmiZfQc8as3PxVezyBWs/DLqoeeCUzlc3hk+afrllmbr56g1z8nYO1y3kuWL7LkCv60/N8YgMl41kMm6pUauc223yNruKivwpsuBhhb7xrxUz5e2VFZXuW8m9bD4S2XbUytlS9gcc13yqZU6Zkitu+mcComr1zlD+nvQoz6uXWLN6WY1uVPvd/PrudzM0P2xm6uFB9Zqd5hQn1ft3v+TB6XBea+e1839mp5iIDiNQKz50rKvcq2+8Xef03j7meJ1CJPE+QyTw9chLd+z7KuuCc2BqAeqiTe3pvN7W7ZsZdT3ZcOzZuqWw594DpIDAACGtpyf509Pfm4HqXDuOf9GPfRzGXtL+Hx6dlmzXFRBzA5tZl69SR5lKqT1SakJmtH0oCyBhug6B3sb5kmUWPP7KWZ+wFifG59zHOZphLhzIaZC3Sxb84aZp9HsIfrDRmp05jHzoKcraCjTE3JHr+evWigr7o2c6DtCf3PHxd3f/uaKixS9j848f+6545x54/orS42zj93S3jE+xkTqHtdAS/E6hEnqfLpk+Dq4z0us/XeuQeR8dmn5niUhNDdkP+LM+xf+Gf1cMyU0d6KHNB4bAADILznf7LOv4Z/k4odWFYbRIZd/ud3VlNKr/5wp8xrYxbOsQQJPPmZtx10T1/fhq3LxmR/EDGiXt6vXdjabJqDGOXv/9HyBnsFP6bepaVxt8me1rz1h50R91jkVatW+pjX4aXpkxDX2oBjtYZtUYUTdrG7U86tF3oQ27ZONOyLer+di22zPnxZzCP4mexCOjTv0SIzh72nXk8zv2N3/TaveX6vfltf6hyKCij0Yhr09U2SJc2yDRe3/i9a+hp9XPel7XawgkOJ1CJPU+XTJ4euQlu9ZlunaPOfchOaTjK1Nz/8YdXzd0rxXnU+CHwAABSvna/4yqnyV+B67XySlGjgAAAAAyB+5P9VDBhVVLjADwBD8AAAAAAxtBV3z59VXEMiEuH2wosTpSwcAAACkqIBr/ob4ZOkAAAAA4FLANX+LZOz2h2TUuVcl8KTHdAwAAAAAMIQU9oAvAAAAAFAgCnrAFwAAAAAoFIQ/AAAAACgAhD8AAAAAKACEPwAAAAAoAIQ/AAAAACgAhD8AAAAAKACEPwAAAAAoAIQ/AAAAACgAhD8AAAAAKACEPwAAAAAoAIQ/AAAAACgAhD8AAAAAKACEPwAAAAAoAIQ/AAAAACgAhD8AAAAAKACEPwAAAAAoAIQ/AAAAACgAhD8AAAAAKACEPwAAAAAoAIQ/AAAAACgAhD8AAAAAKACEPwAAAAAoAIQ/AAAAACgAhD8AAAAAKACEPwAAAAAoAIQ/AAAAACgAhD8AAAAAKACEPwAAAAAoAIQ/AAAAACgAhD8AAAAAKACEPwAAAAAoAIQ/AAAAACgAhD8AAAAAKACEPwAAAAAoAIQ/AAAAACgAhD8AAAAAKACEPwAAAAAoAIQ/AAAAACgAhD8AAAAAKADD7lq85JpZzrquQKdZykNfGS63/tVwGW2eBnV9IR/+yxdyyTxNzDAp/+sRMmWCSO+7V+WDdwbtkmQIx5c5zravyZmfXZXTn5nivFYi1SsWSM38GVJWaorkhNSt2ScHzDMAAAAkL/dr/nTI+ociWagety4aZgqHmK8MkwkqOGij7xiubn1zjQ4Y6hr89XAZY0qSkmPHV1KTzPdpmFRY378RUv4VUxQp569ffqlet1Jql7mDHwAAANIh58PfmFnDgrVro28allr4yITPvpAP/rFPDgYfV6XLvJS0z65Jl1m5990vJI/rQ73l2PFdCtg1c6N91o/4VLBzvn+9sWrVhvr1y6oSmTLZXmresVtWrakzD2r9AAAABirHw98w8anAp5tSnnlX3bBPUM9j1b7ktWty+l/sEDn0mkRquXV8lwJmQX2f+v1jQokJf13X4jTlHerXbxB0tMieJmI0AABAOuV2+DPN6Xr/qG6uj12TXhUGJ8waok0/c9xo06xxSOjU36UkxQ1/AAAAQO7L7QFfbh4hC78zTLr+rU9aP9J9r0bIhJgDqpiBL8R+XQfHqfcOV+HRhEV189518Av1OZGHm+p6kfrbP0docBAviQ0YMkzG3DxcblqoQ5kThlWgOf6F/LEhTkhRx1b+TXVsM11NGc3xnY48PnXub12o3pdI6Dt+VQ6q7doGfnz62KYu1NfAFMQ9tvDrd0k9L6kZLlPcx2it67omwcF6rsnxf7xqmmma9dQ2ew9eVdfbKpQxi0bILXcMc+13qseXwn6Gca556Jro95/5jfrOfrNIZs6MPeBLoudT94WcOVN95a3fN1Ooqe+NriG99Fn4cdnvT/9AM9XraqV2cots3HRQ2kwZAAAABi7hmr/i4mK5Ze7cmA/9erqVVOhgo8KJdSOqfh5XP/pr+qlen1qjbtj/SgWxYDBS1PKE76gwWeMqc0t1vWxTN+IVKkTcokJxKPhp6vlMVe45MIkKHurYFqpjc4cNTX/GFHV8FTebApfs1/bpgFSkjs0dVLR4x2ao4xhjzs3MyGOcOVxucQ9Wo0KMU/M32vV5VijW19v63tnG+OzlXtNPcMCS2c8gOzja19wUKfr9M/U1jXmdkjufob6Q4d+r8nvVe9V2wgfIMfvSdU0CmRhhtHS8TDOLAAAASI8R/hk3PGmW4/qv//ovmTRpksyd+1X18ythj88+Oy+ffvqpeWfientj1lEpdg3c6ONfSOvHdsml4arspmHypcvX5NwpuyxkmIydN1yuH23fwOuajZOvX5XWN76QT39zTS6PUDf1U9XN6wR1c33hCwmcN6ulvF4kFUq/qfa3V+3b4WvyX6bUy+eH9WeHP7rUdiap7fSd8To2hwoND6lwqhODuuk+89YX8lGj8xn2vo7W+3omYj9vHiE369ortc7JPep8WscWWkcfnx5M57J6Hrwi56+Z99jvG6OPTddq/r+uyolguXmY6+NI9fh0LdtNuo+nDvr/9oV84Bzb8WsyrNy+RtffGrGfrus34Va1j6PVeVHrOuel64Larv5M9fqXgtdPBbDZeh2R//zgmnzeo4rUObK3besy11C/b8IEtT+/Ne9TUju+VPbTpmvY/FP0Uvh56VLn5Uv6vJhgFzwWI9nz+V/XDRfn9yt4Tb8yXGYsVGVq0bNcfddORFz/gZq+cIEsKL0ghxqOy0lTBgAAgIFLqs/fh0eOyJEjfzDPbPq5Lk+7m9VNt/rR1eqqcflI3fCqH/2N+mk1vWv4QjqDNRLXpPOdq/KhHjRGcdfsuKW6XraMWWSfE3suwasRTTXtff3gZ6Emi0EfqWP4WZ98oNbpDGu6Z69zXNeoKu5asKxTYeImFVD1PulmhGHNbNU+n1b7fsYaUXOYTIk1RYMKt7oZp/u8XFLHHjy+YI3WNRWE9U8Ves28DGOskT8ja5f1HwT0T/XdSGftVsL7qajzMmWmXog+L7oZZmvwvERI5Xya3y+rdtIqUKwBb0LnJbxc14jaT9OjRPwrlkrNPLXY0S0x/wYCAACAlCQ94Is7AGYs+CnhTT4dkTfnXtR7jrludF0uWYPGKO6b2KBU18sWdcymFufM63H6FIaFu5BLTnj5yjApUcG6omaE3PrXI6z57nQ/L3cQGhTOqJrHv4jRf0wFloP2sXmHf31enP574ZzmjG7hTRzNuVWhrMsqD52L9Dd9TW4/+z8vMaR4Pq1Q7PqeW7+Hznlx/d7ZYVmHP499Ttb0hbJtZ63s2rlStuj5/TpOSONL9PcDAABIt5RG+9SBb/+v3sxY8NM33xNMIJlpJnh3Hk5QGdCon6mGuEENf6EgkkotlB70o0JP1P5XI2Sm7gNm+rflilCYsH96ckbpTMN1CE73YDj91zpN0A+r5VXl8RooZ1JC58VDaudTPTe1gROsPqD6O6J+6PNifU4oFNt9IVUojKxlToN29ThjLwIAACCNUp7q4dy5FBJIokyTz3hyasL3XHezHixE911Ty7oW592rcvxnuinoVWtuOqe5YUExwcea6N3dxPgzVyD6iqk9G8Twl22Rg77o8GcFyOD50uXmjzPpOi8nD8p6ayL33VK3t1vKSmdI7YMLxW9eBgAAQHqkHP4yyWnyeeZn9sTZ4Q/TV0ndnCc94bvTFC7Zm9ZU18uQ5PrmDZOK75jz+W8q7P3LVWl955rV9y9y6P5+paHGrT9WGIslndfBFfJKrG2q51ZbTBWOI/q3pbdfW2rinpc4kj2fThNndyi2mnaq89Wlfu+sP7pkLBR3yoE99VJ3WC0y2icAAEDa5WD4C9UqeA8hr8r/qENL7Kaf3n3Xhkn5Qvv9etJ4r5vWVNcLk7GAZEKJ2p8p93pNB2CoG3PP1/T5dA/6EWRu5BOUqUFhgv0qZw6PMZ1DktchAXYTRx10zOea75td+6W+X9+0z03apnlIgfu8eH491bny6peY8vn0CMXOVCvB/oAmNOZCKAYAAEDici/8ObUNcW7wg7UTnk0/1U27nrdukes1FYhCE3NfkzMxJuFObb0Qp7+UHj3R/RklaQpMnb/5wtyY6/ngRkj5zfbNu01tU0/M/lcj5BavOQnVOje598t5vz4+qx9lPOHBM+x49PGF7UeKPvtCzjjbUMdQ4f7MJK9DYpwwY0bTPP5FcBCW4PfLbM+uERwkpsZNn5eZ6hy4z71zva3djDSA8+mEvAk6FLtq9zrNyLsTKvR/1X6p8wQAAID8kXPhz27yqWsV4txYumonvJp+9napG9c79CTWZqAYdfMbvNH9mfdIi1qq69mcGkkVGiI+Y+Y30xCONHVD/8HPnACobur15PPOdv5B9+vTNTJqX3/jPnfX5FMzVUXYfrnef9y8Ho87eM78K+cz1EMf33di1EolqbMhNP2ANbG+axuJX4fUhNVime+XMyBOWqd5SNo1Of166Jq7z711/VQ4s4N5tNTOpwnFep3Ifn1Wvz9dnsnzUiJTJqsfTPUAAACQdjkW/swNp7oBjT+KYKgmKrrpp3rt9T758N+cm1ibnrxdD3ISe7j8VNcLuWTmBLRu1B3q5vlMq1lOBx0A//GqFdjc+2ndtB9X29fzx0Xsq7VfEcdl7ZfpA2iP5NgPK3helS61npueOF5PVp6eQKbnn9PX4AtT2+WIfWwDEZpaQV37iFqs8HM7yMy5P3PcvY9qn99V50Rdv09j/qEktfPp1PBpYfNsOn900dyhEAAAAHlh2F2Ll8S6c8y4rkA663Ccpmx2bUbiISHV9QCkX4msfnalLJcW2biJuf4AAADSKSdH+wRQ4Erny4qqdDQmBgAAgIPwByCHdMpvW7qtpcq1K2XXzlrzWCrVVikAAABSRfgDkFPa9tTLxr0npL3DFAAAACAt6PNHnz8AAAAABWAIhT8AAAAAQCw0+wQAAACAApBz4W/aNL9ZAgAAAACkCzV/AAAAAFAACH8AAAAAUAAIfwAAAABQAAh/AAAAAFAACH8AAAAAUAAIfwAAAABQAHJuknc91cOpU23mGeKbLI/MXysPjBZpO90gy08dMeWZksj2nPcE5OX36+T5HlPcn+LF0nhblURN9NHbJKta3pSj5ikAAACA1FDzl8+Kb5a7VRDT/OVz5D57MXOyvb0hq0RWP1sru55dGB12AQAAgAwh/OWzno/krV57se30UXnNXsycTG6v501Z3vRjuTX4aJC3zUsAAAAABo7wl9fOyvMtdljKfJNPLdvbAwAAAJAuhD9Am75QNuimmDtrZduKElOYKRNkaqlZBAAAALKEAV+ybM40FTDKffJ264/l4fOmMIozaMoxebxpt2leGRpsxUvb6R2y/NRZ88zLZLlvWrX8sGSW+IOfEZC2wDuy8fQRORo1MEuq2wsf8OWXMlcemrVI7hzts1/uDcjbp3+hjj3evmpz5cWqGrkzmQFfiufKI+WL5G6fL9iXrq33mPzkmDqH/Qw8U72uVmrnmSfSLY2b66X+pHmaDlVLZdu9M6QskdB3eL+seqHVPLH5V6yWLcsktF/TK2R1TaUsmDdeyuy3SLta70W1nvXbo8LstqfmS1lHi2zcdNAuC6P7Ha6U5aVxjtVrGx0npOGlfXIgnecGAAAAWUHNX5YdDXxs3YjfWb5Y5thF0SZWW6Gr7fSBNPWrU0FKBbKny93BT1MhyVcju26rlRenTTZl6XNDuQq6t6kA5wQ/TS3fWbFWPpg91xSkhw7VH6htPeAKfpp/9Cx5+rYnpDEDx5eshIJfAnQQ3PXUElnuCmWaXk7Xn01ibqN0htQ+lY3aUQAAAKQbNX9Z1/9UCPfNfkKe9iU2VYJTkxiv5s95j/Qek8fDasEmyxwVNLeoUCid/dUc2vrfXniNYVugSX5y+k2zTV37+F0VQu0wGL/2M4mav4kr5YMKdQyiaxXfke2njgTfP0e9tkW95levxT2futnng/OlUgW09r27Zf2e6O9m+lTIhp1LpDJmrVw0u+ZvvDQfPiGV82aIdJyQupcOyYGTzn6WiH96p7Q5NXIDqfmrWiq71qptSLc0722WPXtMbaLiV689rF4ry0TtKAAAADKKmr+sOyvPnz6mfvrkgXKP2q/ixfJDnY16P5Zf9hP8ktXWeSCi+eNZOXp+tyxv0QO49B/8kmUFxI+d4KedlddO1cmq0wHr2Z2+dNT+qbCpw6vydmudPOwKfpp1fK32+b7bF6f27+RB2bpJ7duaugwHv4HRwU+H01WbdNNL9366gt+AqFB4rw5+Is076mWrK/hpbU37ZP2OE2ppvCy4ndo/AACAfEL4Gwznj9rTGPii58qb45ttNVt8+3T6JjZ3mpr6y78rL06bK3OK7fLMCshbAe9A6eyPjJkYu+lropy5B3ubZHusWkRzvv0lNw98e4Pt8P7MhtPpM2WBbp7a0SJ7muyiKE2fSLP6UTZ/JvMUAgAA5BHC36A4Itut2q9Zcs9Eu8Q2Wb5doqv9jskbMZtDpkDPofd+k7zd65M7y3Ufvyfkgyr1mK/7+mUrDHoYXSIzzWLKxpTYAWR0lezSx+T5qJE7rTfnv/b2LrOUIVNNH7/S+bJlZ601+mn0Y4lUWm8GAABAPiH8DRLPgV/SPtCLiwqAD+s5+t7fIY+fPqaCYEDa9OArJgw2zlYh0LwVAAAAwNBD+BssKoz9RFf+jZ4t3zY1b/f57EFLYjWXTIse3e9utwqCdbK8SYfBBhUExRr1c0u2RsR0aut6O+W4VTAAlzrtJqSBBmvy+biPRKeMyJbS8TLNLOaMT7ulXf/U002ssftAxnwkOFgNAAAAcgPhbxC9FnAPRDJX7snQQC9zJsap1es5Ig9bA9CoADgmrA3qAPnkhjFmMUxogJa2zo/6D2P9NQ3t+UjeUuFVfIvkkYE0X83qJO+OcTJlullMt5Nd0qF/xgiY/hX3yHKvqSdOHpdDesV5lbI6U/sGAACAQUH4G0znD8jLutat5Ga5b+Icq19aOgd6sRQvli0VNbKrqtZu2lkcXrs3p3iuvGhNk6DC2KV0djQUubNCz6/nCp56EvbgNBDH5CdxRxg9L3/SoU5myQ8jPuO+sJDnGj3Vmq9QH6P9ik1PL7FSGqtWRg2u41ZdY0/zoJUtuyfDwadV3j2sf46X5Q8ulGr3tqaXSHVVOsJnl3xqpb8ZUruuIjQwi/r81evsaSO8dUr96/ZonsufWi0bVqh1w86F2r8VS2XbzqVSbUoAAACQH5jnb5AF5+CzHJPHm3Yn1d8voXn+Ji6Wh8qr5M6wCd4jJDKfnpL4PH8Baev1RUwq70huDsMouonnx0fME1vM9zp6j8nLx3bH3Gb1ulqpnWeeZGMOO2cePvM03AmpW7NPDphnmjPPX1JzEAbn64umP6ehbKU6Zu9jdbYXU8cJaXxpH/P8AQAA5BFq/gbZ0VPv2NM+KBkZ6EU5et4e7GVVqx7x055jz9GmQ1HrjoSCX1J6P5aN1jaPqW2YMkVP+v54AsFPO2rNCajWN88ten8D0TWU+r26/+LLARU6TZlFHe/bpxvU8cUOftqBhhZptmrKdDB6I/Oh5uRBWb95v9pmtymwtetQteNQWPBLWdM+2bjjhPpM81zTk8NvtucyPNUevm23tj31skrtX+Nh0wfQofa3ee9+2biJ4AcAAJBvqPkDAAAAgAJAzR8AAAAAFADCHwAAAAAUAMIfAAAAABQAwh8AAAAAFADCHwAAAAAUAMIfAAAAABQAwh8AAAAAFADCHwAAAAAUAMIfAAAAABQAwh8AAAAAFADCHwAAAAAUAMIfAAAAABQAwh8AAAAAFADCX16bLI/Mf0I+qHpCGqfNNWXJcj6jVh4pNkUDku7PAwAAAJAOhL98Vnyz3D3aXvSXz5H77MUMMIFu/mKZY0oAAAAA5BfCXz7r+Uje6rUX204fldfsRaTAX7VQNjy7WnbtrDWP1bJtXYX4zev9K5HVz5p11Xrx2NtytmNva8OKZLYFAAAAJI/wl9fOyvMtP5Zbm34sy08dMWVIjh3atqydL5Wl402ZNl7K5i2RLc8ulerppiiO6nUrZXmpeRKHf8Vqsy1TYBkvlcv0thYSAAEAAJAxhD8kYKLcYJqXZs30UO3YthUlpjD9gqGt44Q07tgtq9bUmcduqdvbLaJfO2m9NSYd6GrnibTvbZFmU+ZJHdPDy3TA7Jbmvbtlo7OtzfuluUMVl86XLf3UGgIAAACpGnbX4iXXzHLWdQU6zVLItGl+OXWqzTwbWu6b/YQ87RN5u/XH8vB5U6gVT7b60h3tOWs/N+z3B+Tl9+vk+R7d726tPBAjhLWd3iHLT4WvH05tY2K1bCmfJX7zGW2BJvnJ6TdFyt3bsV+TiSul0fXeuAINcuvHTs2js5+h/b5v9nflhz5fsFZLb3fjx2/KUfPcS/W6WitQ2bqlcXO91PcTwpJWtVR2rZ2hFk5I3Zp9csAuTY7zGYf3y6qGCbLtqflSppdfaDVvCHGOqV0Fv/V7Ir/7FbJh5xKpzNSxAgAAoOBR85dFxy8FrJ/TR0+2ftpUWJq1VnbdtlYap4WX3zhG/ej9WH7pBLKU2YFsV0V4mPP7quTp22rlh3o7HhIKfvGMmSsvqu0+7Qp+mt7urhwYPKb66zr4iTTvSDH4TV8o25zw6BH2wlXIHVaYPSENUcFPa5U9uqZRxsvUqXYJAAAAkE6Evyw62mvf9PvHTLR+WtwjdnqVXzpvashC/fvcj1Wn7UAZz32znRrDgLzduiO07vsN8navCmZeIe/8btd21Pt0WW+TrAqWuR7BWj83nzxQUSN36hpA9zZbj9kvj66Sh1yHG+lAQ4vdFFJp3/tGBmrCQmHs3Sb1Y3qFrF7nGvDl2f4GYamQDbqWL9Faw+kTrBakcviTsPe6P7+t/YL1s7Qsc81cAQAAULgIf9l0/qgdolTIC9Z6jSlRAeCYvK0zXFS5CgQq/A1I8WL5oU8v2M0wHz4fahp6tOeIPNyyQ142I4amXe8xebypTp53b1OFysdNXg2vAY1w8qBs3WT3iYtuIplGHd1yStfgPbVEls9zDfhSagZh8eyDpweJcZpoJlhrOHW8CooqyLZ32c+tZp61ssXdp/HTbmlXP8rKJtjPAQAAgDQi/GXVefmTDlqjS2SmXSD3+WapkNQpb+gmoaNny7fNxOhz1Hu0k73x+vElwIRICbwT6s+XFSpsHtvtOf2E0/x1UDk1cTJDHtY1eB0npG6zM9hLnWzcccIKYjJviWyost4Y5AwS07xjAH3zqm5U4dFG2AMAAEA2EP6y6qx8ckn/nCX3WE0eTb++S+flNatJqE9uMP3vZo7R1XXH5I0BVvw5IXLANYhDVel4a4CWjZv2yQFXkGtr2ifrVQDUKr8eqv0Ljey5W7bq5qJJCga9pkPSaDVr7Zbm3/XXXxAAAAAYOMJfloUP+mJPoWAFs0udosc4tcvnyj06+6lAeFz9QAac7BK7S6E9WIvn+LKmGaZMnmD65lXICmuqBhXilq0M9Q90HlYfQGXeElO2VKqtdyvOZwV1Sr3VrLU+FCKjmoYCAAAA6UP4y7KjgY+toGEN7jJxjtyplq2mnT0fyVu9qrzkZplTPFGsecWDg70MXNhgMqlyNVfNf13yqRlQJiucsDnvxlAgjOAvG2f97GjPYB9HAAAAFCzCX7b1nLfnDFdh7D6rSabTtNM0CdUBK12DvShO2BTfHLnPKomggmbiE7iXyI2mT2LGZXyS9075bYueWmGG3BHRp8/hv32GXRPXctzUDLbKVmdidq/H5ha7dk/P82eVuQeDaZV3D+ufM6TG83icWkUz+igAAACQZoS/rAsN+nKP7tfnatr5WkBPg6DKzeicbwUGONiLZmoUdT/Dp+evlPtc4W2Onsj9thqr9jG+I/KG1VrVJw/MWhz2GXqC+vsmxhm1M0XVNfOl0h6RRcqW3SOrrarQ9Grb0yzN6mfl2shpHUqkesVq2WKFsW459F56auL09BXWaJ7LVqpA69re9AoVdPXooUrEVBAAAABAuhD+si406MudOuS5m3Za/f58qnyWetIpn6RldM6z8vyxJrvmarQKgLc9IR9U2Y9detL3XjPNRD9eO+18hp4YPvQZH9y2Vp6uqPauVcx5rbLVGtXTTOsQ7L+3UmpN8BvQiJ6RTh6UF62J3HUAdG3vKRX8dNDtaJGN/U4WDwAAAKSG8DcI7Bo+29sB1wTpTpNQLZ2DvfS8Kcvfb5CXA+6UF5C3TzfIqpbdsj2RqRfMZ7zdG/7eNhUeX2494Dmlw0BkfpJ3Q4/quXm/NB4OH5Cl3Zr6wTUYS5q07amXjTv0sdkh0KZC5l494uhB07wUAAAASL9hdy1ecs0sZ11XILo53bRpfjl1iltgAAAAAEgnav4AAAAAoAAQ/gAAAACgABD+AAAAAKAAEP4AAAAAoAAQ/gAAAACgABD+AAAAAKAAEP4AAAAAoAAQ/gAAAACgABD+AAAAAKAAEP4AAAAAoAAQ/gAAAACgABD+AAAAAKAAEP4AAAAAoAAQ/rJusjwy/wn5oKpWHik2RVnn7MMT0jhtrilLl1w4PgAAAACRCH+FqPhmuXu0vegvnyP32Ys5xATI+YtljikBAAAAMDCEv0LU85G81Wsvtp0+Kq/ZixiQEln9bK3s2qke6ypMmTd/1ULZ8Oxq+73WY7VsW7dQqqebN8Rgr+esY6+3YUWF+M3rAAAAQDyEv4J0Vp5v+bHc2vRjWX7qiCnDQFSvWynLS82TOKrXrZYta+dLZel4U6KNl7J586X2qdWyOkYA9K9w1jMFlvFSuWyJbHl2IQEQAAAA/SL8IQdNlBtMs9SkTQ/Vjm1bUWIKM0sHs9p5Iu17W6TZlHlS+1YzT4e+bmnesVtWrakzj91Sd7hblY+X5TUetYZqvYeXmfX27paNznqb90tzhyounS9b+qltBAAAAIbdtXjJNbOcdV2BTrMUMm2aX06dajPPhiLdn22tPDA6IC+/XyfP90yW+2Z/V37o8wVrb9oCTbLx4zflqHkepXiuPFK+SO52r9N7TH5ybLe81mMKgpztmacR2k7vkOWnzppn3uZMXClbymeJP04gC31OisenttHYzzaCAg1y68feNZbV62qtIGbrlsbN9VJ/0jzNhKqlsmvtDJHD+2VVwwTZ9tR8KdPLL7SaN7iY97arALd+T+R3Xzcb1bWHJ6RuzT45YEo155i816uQDTuXSGU2jhUAAAB5jZq/wTRmrryogtLTrmCk+X1VsivGYCdzptXKB7fVyAOR64yeJU/fpkfvnGxK0uO+2bWyqyLBUBYpyeNLaRuDafpC2aaDn6jA5hX2ktIpZzwzeIXcYYXZE9IQFfy0Vtmz1641nDrVLgEAAAC8EP4GjU8eqKiRO3UNWesOq/+dfqxqPWa/PLpKHppoLwZNXCm7yn1qISBvn26QVWYdZz1dX+ov/27EFAuh/n3ux6rTAfN6HGp7Orjp7YXvY5O1LZFj8rgpi649TPL4zu8OvufWpgZ5W5f1NoUdY/ARo9ZPO9DQYjeFVNr3vpHBmrAK2aBr+XTwi6ipi6npkDSqfStbtsBjcBcT8jq65ZRdYJs+Qaxufoc/CduGO0y3tV+wfpaWZaeZKwAAAPIT4W8w9erwVCfPnw8Fp6MqBD1uctn00e5avMnySPksa+nt1jp5+NSRsGaTer3lVrDyyd2+9NT+zRlthwm9vfB9fNNsa5bcExlQ3ZI6vjQ5eVC2brL7xEU3kUwX3UTTaWqZYPCzdEr9Jt2/b5zUPlVrRvhU51g97M8TaX79oAnWxtTxKmCqINveZT+3mnnWyhZ3n8ZPu6Vd/Sgrm2A/BwAAADwQ/gZNQF7WffTMM7fjlzxq5Zy5+XqbZPt5uyjK+aNWjZm/5OaszY8XO8AleXx5xBnZs3lHCn3spk+QOybbI33aI3yulF3qsbzUHgRma5P1UmxVN1ohUSPsAQAAIBmEv3wxpsRu6je6SnZVPSEfeD5q5E7rzelxtNeuObuzYqXc525KWjxXXqywayFP9np2VBuyQiN7JhDUIukBX57SNXwnpHGzHu1zt2zcoZup6j57IqVfnxDWnNMtGPRM01Fr5M/fDbSfIQAAAAoJ4Q+xBZto2oPJBEPmbSZkBhpi10IOSRWywppyQffbW+mabN08rD6AyrwlpmypVFvv1ipkgx4cpqNFNm7aJ/UndbDulLYm3Uy1XlZtbpZDk/Wcfe51FNOkM0Q3HdXNWutD4TOqaSgAAAAQjfCXLy6poKB/6mkOvAZBcT9a4kwTkTS7iWb45BtmwJmPw/sdpt3oEplpFvOeaa7Z3nI84lwaJ1ul/qUWaS+dIbXuOftOdolV0TfvxvBQ6OIvG2f97GjPVB9HAAAADAWEv3zR85G81at++hZFjOaZQdZonyIvv/9jWR4WMKMHnMmMErkx2WPN6CTvrbI1ODG7x2OzCm/6bXqeP6ssejCYuP30TA1euFZ597D+OUNqPI/HqY08Ie8m2wwVAAAABYXwlzfOyvOn7dE8H7itVl6cNlfmhAWjyXLftJXSWLVS7jMlA2WP9umTG9I0emjijsgbVoWjOtZZiyP6G6rjnBh7f6pr5kulNTeCbpp5j6yOmlJhkDR9Is3657wlsm1dhfjD9qtE/FXOnIHRzTf19BXWaJ7LVqpAq9a1i1XQrVBB1x4lNHIqCAAAACDSsLsWL7lmlrOuKxDdTG3aNL+cOuXZMG6ImCyPzF8rD+j5796vk+d7TLGLnshdz+fXdnpH1Px5zmsx9R6zRtn0+ly3eNsIKl4sjbdVxRyERGtT23vr9AHXdA4DO76guNvWU0h4jyRava7WGpDFpqdiSGFEzlTpSd91vz9d8+c16XvVUivgRdfuuVh9AiOme1D0QDNbTH/DKDHWAQAAANyo+cszR0/Vya3vN8jLgUD4zX6v6YfX0n/wS1jPR/ITtZ14/KNnyQMVa+XFePP9paLnTVmujvNtdVxuOmy+3HrAM/hp2ZvkPQVN+2T95t1St/eEtJt9dLR3nJDGHbtjhri2PfVhI4PauqV5736CHwAAABJCzR9iMDV40qQCZawBZCbLfbPXWv0C49biAQAAABh01PzBm5lUvq3zozgDu5zN+wnbAQAAgEJB+ENc/vLvyosTJ8sc89wxp3iuPDLb6X94TH5CrR8AAACQ02j2iZjum/2E1aQzrgQHmAEAAAAwuEb4Z9zwpFnOut7eS2YpZOzYcXLx4gXzDIOptfOAvH25SCaOKRb50hixpxK36YFX/u8T/7f8n5+8K6//lykEAAAAkLOo+QMAAACAAkCfPwAAAAAoAIQ/AAAAACgAhD8AAAAAKACEPwAAAAAoAIQ/AAAAACgAhD8AAAAAKACEPwAAAAAoAIQ/oBBNXyjbnl0q1eYpAACJ8K9YLdvWVZhnAPINk7zntcnyyPy18sBokbbTDbL81BFTngbFi6Xxtirxm6dBvU2yquVNOWqeIg9VLZVta2dIWccJqXtpnxw4acoBFBZfsWz73hgpM0+DLlySjbt7JDv/Jy6S1SvHy/JxIu3vfy7r37tiypGrdPjbsmy8yOH9suqFVlMKIF8Q/gaVCW+SYqAKC2jH5PGm3fKatRxLEtsj/KVd0ZTnxFdWap4l4PKrEjiyS/rM07TQNX5PzVc3eyr4rVHBzxSHC92Mhd0E3nS97Lp7pF6S5rfOy9Y/WotR/DcVy4p5I6Vy3AhTclWa3++RPeqmLuo3u9/PHCkb/vZ6qdSLbZ/Lqn933xg6+3lVGl/pkvqAKc6C6GNUN65tl6ShuUcOZHE/kArzvZFsBpzkZeX3KOXw5/o3IsxVab/QJ4cOX5L6Pyb4L1fYPlyRun/+PMa/S9mUxuPLWQP8d94EwPa9u2X9nuh7OQC5i2af+aznI3mr115sO320n+CXpJ43ZXnTj+XW4KNB3jYvIUt6z6Q3+EmJrH5QB79uadwcK/hFUDc60TeAV+XTLrMYofpbE2TL3WPCQpHICKm87XrZsvL6uM1MK2fYNxxhblI3v2YxN6gbJs9jFCnzj5Ha702QDTeZAiBFWfs9CvTI+n8+L6uCj8+l2byUmhFSNm6kLL97vOxaWRz9x0MvgSty6IK92P7+lRwIfvGkcHz5IMl/57W2PfVSd1j9u7fsHlk93RQCyAuEv7x2Vp5vscNZWpt8IiP6zjwq5w79IOwRaO+wXrv8p/By63H8Heu1dPGvuEeWl6obrL1vSH0Gmnr6b58gtX59s6prKLplo3ND+Yq6odQ3d+qmqTbeDZN/ZNRNbbXXjeygMX8pd47xLdcx/nO31Kkb13Z9g55T+4x8k1+/R7qmzvkd0Pvo/B4o48aooJpIQOqT+t32+rnX5DMdxzd0HXhhvzSL+jfxwYUFfR6AfEP4G1QT5YbRZjErsr29AZi+UDY8Wyu7dtbKthUlpnDoKRqtm4F2yFVTg5s5FbJC99HoaJEX+22i0ydnzF/iw3RdtW96PI2UFbfZtRTNb3XJ1vdcf0kOXJGtu02NgrphWuFRM9bcpm/6RsodYa+p5/qOQr02sNqINLlpjGkGpm4IX1HH+Ef3X8v75MB7n8t6dXMY3jQVuWeETI1qzpcr8vz3KOD8HlwKBiSv/cxbQ+r4Uvl3PlKr7NnbLVI6X1ZUmSIAOY8+f9k2caU0ls8SfyIhLNAgt37s1OiFBnfx0nZ6hyw/ddY8c0l5e5HmyotVNXJnMn3+iufKI+WL5G6fL/hXwbbeY/KTY7vltR5TEEP1ulqpnWeeWM0U6zNSW2Xzy6iZP5Li8aVSZEr6ul+VnvZdcnn0ozLphjLp+cOj8udL5kWjyLdKissWyKhRTj++DrXeIXu9iPd6WyRjFzwko9Qt2cVDz8llUxqL3WdQQvsyRq1/Y01o+5fV53yiPsdr21VLZdfaGQn3z6j+1kSpVRet/f1uWa9uQC3Bvjn6r+ER/XKcfiLx+go573H3OTJl7e9fko7bxkilx2vN6jWJfM3i9FnJRp+/UP+YeP1g4rH7cOmmfKZA1E1WW4+8qI4p8nzZ51+f50sy5VvXu2obdejUTU8jy6zVFLOfpj+b+FSY+MviUPPBC+r9hz+3gmssyexn5Pba1PNqtW81at+cfmS6L+SL/x6n/5jax9WVxbLAvc6FK9LwK/Udi7qmKW5PfZe2zRspZYmEvqjvmaa2c/sYtR33Z5jz0qzOS7q+e4Pye+Rm+gYm3OfP498CQ9dgbtFBNuyznPWsJ1HC/r3xYH+mhH7fvb476vi8v6vJSPX4XJL4Xqf++x6S3O+tLel/5704/cgZ/AXIG9T8DYKEglgaZXt72pxptfLBbTXygCv4af7Rs+Tp256QxmmTTckgG7NKfAuekbGu4KcVjb9fxn71OVWue8q0S19koPI9Kr4b7ncFP019hrOez33UMYyZYm+z+71+g59m1xLa+6KD4KSvquDo3v4o9fAKfkr112eo/3bLofcS65h/SoUEraPbdSMW6FPxVlGvnbIKQvzj7bPX3hbnpsv5i7JHszT9V+hP9V+hXa/Zn3lVPtV/WLaLBo+6kVtg3VRdkXeTDn76RnKi6cNliizqptB/vWz52wmy2meKwhRJjb4BtW76tBFSOa9Y3QhGlN3t0QdMhb0Vut/Y99SNvLvfmFqu1P2VvuXVDDDV/VTU505T52iD2l/dZNG52dV0X8hYzeP0DfQutY/6eMLW0U0bvzdRtt3u/q10SWF7CQU/T2Y7t0WGR3NedD/PWPuZpKH0e9T2idM8Ul0rqyS9Yn531GNgwS8x8Y4vte91qr/vqf/eJvvvvKeTx+WQXmHejR7fRwC5iPCXbed3Rw+iomvTgmWuR1gtXKh/n/ux6nQ/f3JOeXsDMHGl7CrX/7cJyNunG8K2tar1mPU/Zn/5d+WRYuvdng40tEiz3R0uY33UrJq3r96v/tepXH5VLv4h1N8u8KdmdRtVKqPG69ciB17xy3VlOhR2yOU/Pebqp/dYaL0bfiTXjbHfHdNoO/z19Z62n8flV+FP/dD7ooNnWan0dW+XQHCfH5OLf3olRogskSlW1r4gZxI8j23um4EgdQPp1UxImaZugLSwm4hIzk2FOuopUTcjV+W3bfpGxGmyViTf0Dc8F67Ib+MMOpA1E8xNnLopT3ZACv/t6ibQuinTf7XvdvUf+lwarfM5QparG8XoGye1TatWU7+/237vuDHqRjCiLKqZnzZSKtX507VgddZ77ffXvW/f7Im6KYwcmCb1/dT0Ta0OmmrfXOtufMvUMHk1j7tJ3ZhaTRzV9t7/3NV/0l5P31iX3XZ9jBvXJLf3x8+D7wkOaqJrbIJlrkdErZj/dl1zqhbUdzF0LvWj297PCyPSFqqG1O9RcCAX936G+ve5Hxud72VCRsjUSvPdsa6J67uqr0lzrFrNNPM8PiXl73Vqv+8D+b1N9t95b53y25Zu9XOcTGHgFyAvEP6QZpPlkfJZ1tLbrXXy8KkjYU1Ej6owulwFQBGf3O2LU/t38qBs3VQnq9bUZWwY6VEzdZNLRYWoc0fCm2r2BZ6zgpwl1qiblw9JT8D9N+Y2ez0dxDyaiUYqGmX/TbjvciJ/py6XEdbOLpCxN5RZoTNw/B1XjWSbXA7bF7cJMlXfnXZ0J/aX3KAYo71diBwZTt38mJuPeKPDxbupKFM3vW3v9Vg35daAKaamrflwvKZn2ePUyCTNVywPmxtB3VQtrLmlunms3x26oavxqA3Q857ZzVn7zE19eJlnnx3Dasr17+6pJ3R/pa7gjXbYwDQD3E+LvhH/566wIfDbVOiqMxewNOwcFsnqefb27b5t4TVder31VpAbIQtuTMf2Bk4H6fDmeur3QO+nCjPxmiombqj+HqmwNsEspkmlXzdxVUFnt25C6T736pr08/fQ9HMf38C+10n/vqfj9zbW9y3q3/n+jJepU80igJxG+EN6Fd8sd+saqt4m2X7eLopy/qhVA+kvuVnm2CXZN2aVFFu1eq9aISqey92Rr6uQpwdoGXW/jJ25SIqiavhUEOsn+GlJDfbiNBEdVSp9f3pULsYMemmiblJW6RvriJtd66/2MfsLDdQVeVcf1rgiqb5xpOg+J1YTS6fWLR8Fawx7Is6lQ53Tw/b5LFM3tJFNFb1qgNxlTrOtaFfl0CfegSTUXK0otL0B7qd186n7Mplnbp776DSjvXBJ9sRqRvtHe4CStGxvAJzzpWtrNtyu9sWzJjKXDMHfo0htKkSlJXCn2QC/10n/vg/09zZN/863tcf5KxSAnEP4Q3qNKbH/BzO6SnZVPSEfeD5q5E7rzYOnaPwCK0z1dR1U/6vzZtfMeYezy8cfk4vdHepzHhLfV38ukxY8J2OnqCBoXu/fIhmpw6e6rYzqT+jFaSLarrbr+T/5weT8Rbq/v/D3P8rigRPqhmPcGKnVf81OoYllpgSbR7kDUwKCfbjiBRKnD5dH36GMcm0v6/vp3LSqa73lbyfKLs+HmZR8sOm58F65JM0XRtjz7H3P7N9K3dcvnWFwqP4e9VeTmby439Oscx1flr/XOf3vC4CcRfhDQXJq3a50x6pB88uoCfo9scJZmwqAj8q5P6gw1m76+ZWpIGiFwATiQZKDvYyyBp6Jt7+Dy/mLdNymdr4i0zdK3eTGCrDmr+Jas76BzRXcQBU2FQC36toQM89bs/q+t6vvghMGt33Lq3YyeUPq98ipBYu3n/lsqB9fEvypj6YEYBAQ/nLB6BKZaRazIpPbu9Rp9xPQ00a4BnrxfCQ6ZcSgMH3sogZ7iXBJhcAzup/fD1QQ3C6XL+sQmKHBXmIG0f50yad6hIjS8RkLLk7NmHcTPZvfaoKmxK2JuCLvvq9urC9cSmFUzQwKDu4Qr+9MbLovVkxObYG68U+uT2aK4mwva/vphGk97YBrQAzPR9wpBwYglSAfsOd527q7S9brfTMTr+tRFR9O4XsRaSj9HiW2n/nL8/gG6XudG/++dMunn5pFADmN8JcTSuTGOCNfpt8AttdfcOz5SN7SzSR9i+KO5tmvrEzyXiojPKfB0PP+mcFgogZ7WWT38zPPwlx6x6oFjP25ISkN9tJfEI2pU85YU0BmcDQ2p6ZhXKxJj12TV/dTE6EHJVmvboxy64YxNABD7BEoFd9IWX1T6NsR7F/nL46xTmiAiLjD+6fAu+mg9/ayvp9OmI65vWzwGi0zmv+mOLV66ji2On2q4t2AJypXfo9SCcZuwYFIcqwGP11iHV+Wv9eD+e9LSIl8Y77uw5D4aNIABhfhb1AdkTes5iI+eWDWYrnPHZaKJ8t9E9M9F95Atnde/mT1fZslP5w2NzRQS/Hc8M/RU1KctkfzfOC2WnlRvzfsdbWdaSulsWql3GdKvFTXzJdKu22TlC27R1anObT09dqDpY+64VEZ5aql0xO3j52r5/2zn0cO9lI0pUZG6X5+c+25/MJCoJ503ZoCon8pDfYSa9TRBBz43Qn13/Gy4PZMBekrsscZRfJue96z4A2zCkQbVpp+LvEGQshxbe+5h043/b2sVzR1vDddL9u+d70sv9sVDgM90mDdcZl1XMHQCop6Xi+rxdQVaUjrABZ6PrCIfYy3vazvpzMQhetcht286knV1fn821hTSwyEGRBFb/svi6XavV2f2m7YsaubfHU99VxpVtNO9bqbX3+39YTrSnr6oQ3275Ezkqiu4Q7/7oSdp1j0+dPXzZokXGn73HNC8rzV7/Fl+Xs9aP++uEyfKQv0/84OfzIka3iBoWjYXYuXXDPLWdcViB7Cf9o0v5w6lZm/T+Wk4sXSeFuV6ybS7Zg83rRbXjPPvOjJ1PWcem2nd8jyU1b1TnwD2J6zrSi6iWfEHIEx3+voPSYvH9stz/eY5xGq19VK7TzzRLqlcXN9muf6U0Ftgandi3S5WXq6yqRY/d+9x2PKBj3Bup5nLyY9/56ehsE8jeZsu1kuHnqu/z5/vkdl0g2V1mAvgTOp/m5UyIadS6Syo0U2bjqYob8Aq+v2rQnWpNue9ND8emh289SiAtMuffOsm0nFGl0u5nuKXDc38egpAbxHhkxef9vUc23pIdfNU0v/6+hh2t0j7lV/a6I6j6I+63zws/TE0Xr+sPhloW3pAfi8u+JEb8+W/H6G1on1maF9tKaeiLgBdV6LSX1n9Kieoc8d2PaCVKgL3sBHCf+++G8qlhXzIifQjqDC2MY0NuPL7u9RuJjXJGy9/r4ruqbpkrz474mdk4SumZLo+wZuYMeX7Pc69d93LZXf2/Txr1gtW5aNl+YddbK1yRQCyGnU/A22njdl+fsN8nZv+L/MbToctR6IG/xSMoDtHT1VJ6tO25O0B+n1AtFzOuj33qq283IgEPF+M/F7S+zgp2V+kvd35OIftktPt9mIdtmetD1w5BWROIO99J3RA73Y67pvP/qc9eMGPyXJwV6SayIaS6vs2dstUjpfHs5YM1p13f69y0x8bQosV9WN0ufq5jhdAWww2cOgb3xLj/7orunRx6gnVI8Mfpp7HVNkMeclaqj1dLgqh35lJpV2bdPZR+/tZX8/297rsiejbjN9pRzq3FoTZKvvTEZuWq0RPHV/vfDaunZ9U66O3/09bfujPdhL9DV33t+d1uCnDebvkb4mG983zQkd+jhPJFKzqfZRh9NX7Dkm03lOckNix5fd7/Vg/PviqJAVKvhJR4vsIfgBeYOaPyCKqZnTcwAe2RU/yOWVEln97EpZXpqJmtRowb9+qxuQeDUNSKf+a8aQX/g9Qq6yW+hk5/8nANKHmj8gUhr62OWmTql/qUXaRYWDp5ZmoC9VuLb3euzBK/zXp20ofKDQ8HuEXKSbe+quGZlpmQMgkwh/QKSkpmHIMycPyvodJ1QAnCG1z2Y6AF6RrbrpmlrSQ+GHJj2eMIgjPAL5ht8j5Bann58c3i/r90S34AKQ2wh/QAS7j13uTqg+YE37ZP1mXQOoZGrqB8cfP7f6Vum+LwBSxO8Rcky7Cn6rXmg1zwDkE/r8AWH8ct3cZ6R4VIIjcQI5hT5/AAAgNsIfAAAAABQAmn0CAAAAQAEg/AEAAABAASD8AQAAAEABIPwBAAAAQAEg/AEAAABAASD8AQAAAEABIPwBAAAAQAEg/AEAAABAASD8AQAAAEABIPwBAAAAQAEg/AEAAABAASD8AQAAAEABIPwBAAAAQAEg/AEAAABAASD8AQAAAEABIPwBAAAAQAEg/AEAAABAASD8AQAAAEABIPwBAAAAQAEg/AEAAABAASD8AQAAAEABIPwBAAAAQAEg/AEAAABAASD8AQAAAEABIPwBAAAAQAEg/AEAAABAASD8AQAAAEABIPwBAAAAQAEg/AEAAABAASD8AQAAAEABIPwBAAAAQAEg/AEAAABAASD8AQAAAEABIPwBAAAAQAEg/AEAAABAASD8AQAAAEABIPwBAAAAQAEg/AEAAABAASD8AQAAAEABIPzlrFvk+48/KY89tEQmmZLEpLoeAAAAgKFshH/GDU+a5azr7b1klkLGjh0nFy9eMM8K16S7V8g90y7Jb/5/u+QPPaYwAamul5jJ8rW775X/x9Lvy7f/+12yqPouuXlykVzp/JN8lvZtId0m3f33su7/uEG6D/xePjNlAAAAKBzU/OWiSUukpqpEpPWA/Mc5U5aIVNdLwKS5q+TvHn9Q7q+aLT6fKVR8FX8h969dJV8zz5GrJsuc2eq7EeiU86YEAAAAhYXwl4O+dudfiE8+lld3f2hKEpPqev3RNUZ/s1yFPrUcaP2F/HTHk/LM0/rxkrza1KlKZ8v9K2+x3otc9RUpsS7gZ5LmvwsAAAAgTxD+cs3cVXJ/hbpHb/oP+b0pSkiq6/XHqU2UTmltfFL+lwqW54Lp4az8/q3/KT9t/LX8NM2BE2k292ZRXw9pPcp1AgAAKFTD7lq85JpZzrqugK41Cjdtml9OnWozzwrNZLnroQflm6LC1Pb9SdTQpLpef8zn+lRoUMHvX4+Y4kRNmixfu/P7UlVRYtUaWgIfy29+/R/yH0fOmgKH2VbgF/LM2yJ33Vkt31TrWe//xS75D7kluix4oK51VQidNHeJLPqLv5AKs9GAen+Tev/vY52YpPZTC9+efv61u++SKt0k1n6DVUPaoIOyeR5JN6Ot+Qt3E1oVrpsOyDtvea2TyvZuke8/VK3OgQ7u/flYXn1anR/zzGGfx9muz+hU21Hn8u39sc8lAAAAchYDvuSSuffKD+aVSOsb/yKHkhmRI9X1+mM+VwK/loa9f5JkxnTR4eb/+MF/l3m+MTLGlFnGlEj57K/LzSM+lua2P5tC7Qb5+n+fI77AMJn0rUVym1rPot4/5suT5euqbJarrPzLXfLOH0wCmbRQvv0X06Q3EJAvf/U7slyHItdGx6j3z6r8mow49p60RRxE8vupONv7+G1p7l0of/f//K7Mm6b207ysjfHNkele61qh7CG5R53XMeEbFN+0OTL/q0XS+ruIc53K9ibNtYJb2CZiUUH315HbVOdl3fL56jyGbUVtZ5p1Lid1n5KPPos8NgAAAOQyav5yhp6i4btSoYJWcrV3qa7Xv6+tfNJqSpp0rZ8KDo8tn20thtdITZZJd98lf6PCma5F+s2O/xmqvZu0RP5ure6zqOh+hXod1+dElanndi2Y4n6f1Tz1X+WdI2ftbU5S5+e76vzoD3avo6Wyn5pZL6C/v74SFVg/lld/8R/y+3O6lnCyOm8PWuctanvOtXJq+T5S2wse/y1yl9pPz1rWlLfnSPY74tT42ufyX4O1n+q8zL1LatS++LzOCwAAAHIaff5yxKS7q61Q8JtfJBfgUl2vf7fIbB0o5GP5OKnmnipomEAV7CNoPdNUIHtrl/zUGiSmRGbdPNku1r5imlzqgOKs81mnBCLLjMD5UBXnpBLTLFG/7+n/aYWV4HvPfSj/+otf25/j+4pr7sMU91NxtufTzSGbXpJntusmpU5AOiu/f9tsL8LXVurgp4KbCk3/qpt3ug9I7ed/mP30laRne0GTvmLObZKDvaiQqUN0iDovR3bJ/9ID/RD8AAAA8g7hLxfk4NQOQUlODWCHUbWaCimxagvPffSxHXImfsUuUJyA0/prV4g1gdBd5rwv0BkKJRMn6rI4AfjcZ1HhKNX91Ozt6dD4kvyvt9zhKJw7oIbC9Gy5f+2T8pieiD/y4dR8Rkhtey7OeUx4sJez0mkd+F9IzcpbZFIoMRsqcGbq+wYAAICMIfzlgFyb2sHi1BYlyQlixz6KHVK8OOt1uvLL1+bYzS7dZfb73LWRk+0pDPT7kggkqe5naHt6H7zXnXSzPRCLO6A6o20mL8XtuXidx/78fvdL8mprp/gqvit/Y4XVv5fv362CoHkdAAAA+YfwN9jm5tjUDgOSYBAzNVGhmiqnVsy9ntdnmfeF1Uaa+etaP4p9HqKaPaa6n5ozX17sGlGvIBus2Wx05kiM/Qiv3UtteyEJHmuUsyoA/k95Zoeey1HXgJZIRZUKglYIDG+WCgAAgPxA+BtUk+Wuv5itbux/LQ1xmvNFS3W9JDhNJX0lMtEqSBez70qwpsoJZ2EBziPUefVdMzVqMZs8KnYNaTLNHjWP/dScGryY/efih63I/nz9GuD2EgrH8ZzTcznqfn4qmO74hbQGdAj8vtxFFSAAAEDeIfwNokl3f98e3dHdzy0Bqa6XnA/l41b9c7ZUxazpmRzRDND0FVPrzJ5rFURx9l0H13ecppteNWxeoc7jfV59AMOYGtLwpqIp7qcSrMGLGSS9a+rOddoj2/pmfy1m08lJcyPPZ+rbC0q6+e4t8n3dz888C6MHz/n1x2qhRErCu0ECAAAgDxD+Bs0tssgarOUXMQcc8ZbqeslzRpH0VT0ofxcRCPT8eH/3+IPyNw8tCSv//VEdDkQqlv+9fF+FmSA9lcHKv5e/0fsu4YOzeAW4RMvsJo96e0/K34X1SdNTIPx9cCqH1sbwScxT2U8tfhNLxQmtH/8+PJgf+UisLO37C+ucfc110iY521z+oCyKCKMpby9SRbXc5TpOe5tqP8xzhzUQju7n95B9XsJCoFrn+6Y2FAAAAPmHef4GyaS7dcCQpOdKS3W9VNnbswNWNBWOPPbDmR/QW/Q69vvDy+2yj+XVp53Q5sw951GmPlP3SfPFqOLSI3p6jZKZ7H5670M453x5zo1o5uuLJXyuQW2A27M4n2GeRvBaL/41V9R+Rk69AQAAgNxHzd9gyOWpHSKce0sP+qH7ermDugpbOgA87R1Af7/7Sflp48cSsJpWGmr91iavdbz6rJmysKaMXs0bnbID8r+226NThm2y9dfy6o7IAVRCkttPrZ8mlkrcmrojuzzOpWs/owLVALdnOSv/oc7Nb9S5cQvoieLVNr0Co3PN9Tphp0afm8aXCH4AAAB5ipq/QRBdq5WYVNcbslQY/ru1f2FNfB5v/jsAAAAA1Pxl35Ca2mFw9Te/HQAAAIAQwl9WTc7dqR3yUP9NHgEAAAA4CH9ZlNtTO+SbVCcvBwAAAAoTff6Qp26R7z/+XakI/Fp+up1QDAAAAPSH8AcAAAAABYBmnwAAAABQAAh/AAAAAFAACH8AAAAAUAAIfwAAAABQAAh/AAAAAFAACH8AAAAAUAAIfwAAAABQAAh/AAAAAFAAmOR9qPvKcLn1r4bLaPM0qOsL+fBfvpBL5im0EqlesUBq5s+QslJTJCekbs0+OWCeAQAAAPmKmr9BNubm4VLx1yNk4T8UBR+31gyXkq+YNyBrqtetlNpl7uAHAAAADB3U/A2aYVKuQt6UmcPM80jXpOvfrkrrR+Zp2gyTin8YIROo+YtQIqufXSnLVfBr3rFbtjZFfzcBAACAfEbN36BQwe+vR5jgZ4e8D/+xTw5aj6ty/N1r0qveM6EiVjBExnS0yB6CHwAAAIYgwt9guHm4TJmgF67J8Z/p2r1rrhq4a9L5zlX5QJUfbBi0SlkAAAAAQ8wI/4wbnjTLWdfbG93ocOzYcXLx4gXzbCgaJuX3DZfrR4tV43c6VgvXHvPTg+4nOOO+EXLTXw6Xqd/Uj2Hi+4rIf34s8l/mPbGp96p1Rvdek3OHr8V+vx4o5qERMmO22k/P9+nayyK5+S+HybDj1+Rzs78lNUVyy73D5PJvRHw1I+Tme0dY+zfmwjUJnNdNXSPL7PWCnzfP2d4w9VnqGNV7Z1jHONwcY5x9HpBLMuFrC2TBdR2y/1efylD+BgIAAKAwJVzzV1xcLLfMnRvzoV9HAr4yTCaYWr+upPvz2QHplu8MN5/hGCajZ46QW/5hhJTnyEAxU4LNWjV1zAuHW8EvrOw7I6TEPAuaoEKhOkd6EJyZ6r3uUUpHzxwut/z1cBljnmdE6XiZZhYBAACAoSTh8NfTY1ftzJ371aiH5ryOfpSYQHP8C0m2Z9mYRaHmorrW0O4jqB4/uypnunT5MJnyVx6BKuvUMU64Jmd+ZvdhtPZtgh7cJqJMB8Cb9U+3YTJTHcMEvb7rGD/8N9MEVn3O1Kh1AAAAAPQnqT5/Hx45IkeO/ME8s+nnuhyJGeMzC8n6ynC56Q57gJgzpp9g0GfX5PS/uALgosEfKKb33S/k9Gd66ZoE/mjvq7us19rXGLquyXEVEE+7jvHSR1fl+HF7ebQv3cdXIv4VS6Vmnlrs6JZTdiEAAAAwpCQ94Is7ABL8sshVY2gHqEgqAB60w9Lom4ZltmlkAnoDrnBquMsuebxuU+H29auetaKx10nR9IWybWet7Nq5Urbo+f06TkjjSwelECYaAQAAQOFJabRPHfj2/+pNgl8KLgXMgu7bZhYT4dQY9jrre+nUU0QoSX42bO3qccZeBAAAAIaclMKfdu6cZ/UT+kNAyx0nD8r6NXWyas1uqdvbLWWlM6T2wYXiNy8DAAAAQ0nK4Q8p+uyadA2gb97oeH0GnaahXe55A9G/Tjmwp17qDqtFRvsEAADAEEX4y7rQACij7xgee2qGrwyT8ptD4fDSMVNjODPWOur9C+3396rP7zf89VfzqEJqvBrK0MijAAAAAPIB4W8QXHrni7CpGSoWuQOWWr55hNyqyqd8xxX0PlPrWKNdmnVcwdAKinpePTMNxJl34g+MYo+0adc8BrerPqMkIlQ675tZE/4+PV/fLdbIowAAAADyBeFvUIRPzTDhDj1Be5EstB5q+Tu6+aY9l597ZM/OBtc63xlh3q8eOig6we9n3iNlhrhrHl3bVZ8x85vuQBcaPVSsCeRd25o5THrfDU29MDSUyJTJ6gdTPQAAAGCIIvwNGh0A9eTlX0hXl7um7pr0Hv9Cjltz+ZmiIPc6psii17kqH+q58RIYh+fSO+q975pmnQ61D2dazbLjI/W+f1Pvc29Lz8H3sz754J1r6Z96AQAAAEDGDLtr8ZJBu4PvCkTXUU2b5pdTp5hpDdlWIqufXSnLpUU2bmKuPwAAAAw91PwBbqXzZUVViXkCAAAADB3U/AGGf8Vq2bJsvHnmOCF1a/bJAfMMAAAAyFfU/AFG25562bj3hLR3mAIAAABgCKHmDwAAAAAKADV/AAAAAFAACH8AAAAAUAAIf1mmm7UCAAAAQLYR/gAAAACgABD+AAAAAKAAEP4AAAAAoAAQ/gAAAACgABD+AAAAAKAAEP4AAAAAoAAQ/gAAAACgABD+AAAAAKAADLtr8ZJrZjnrugKdZilET4J+6lSbeTb0DPXjy1f+6RXyjZpKWT5vvMjh/bLqhVbzSmz+qoWy4t75UllqCqRbmvc2y549rcIVBgAAQK6h5g8FrXpdrezaWStbnlpiB78E+Vesli1r3cFPGy+Vy5bIlmcXit+UAAAAALmC8IfcNH2hbHjWDmbbVpSYwvQ71bBf6naYx95uU9oPtW8PL9NBUdf07ZaNa+pklX5s3i/NHaq4dL5sWVdhvRUAAADIFYQ/pNlkeWT+E/JB1RPy4kRTFMZ5vVYeKTZFHqprQrVqZcvukdXT7eV0azvZKgeazKP9gimNT+9bmfrZvvcN2bqnM9TEU33W1k0qAOrleZUZ22cAAAAgFYQ/pNlZeb6lQd5WS3dWRAe8OdO+Kw+MVqHr9C/k+R5TmFcq5I55+ucJaVDBL1qr7LFqEMfL1Kl2CQAAAJALCH/IgCPycOsx9dMnD8xaLHPsQpHixbKl3CfS2yQbT501hd4ONLTYTSgVXcNWf9JeHnTTJ4hVIXn4EzlgFdjcffzaTA1iaVnmmqsCAAAAySL8ITPO75bHA+rn6CrZMm2yWpgsj8yqUiEpIC8fe1OOWm+K4+RB2brJ7ku33rOGbZBMHW83+Wzvsp9LhWzQA8a4+yZ+2i3t6kdZ2QT7OQAAAJADCH/ImNc+tpt/+su/Ky/Otpt7vt1al6fNPWOoulEqzSJhDwAAALmM8IcMOiIPv98kbeKTO30+kUCDPHzevJTngkGv6ZA0Ws1Tu6X5d/3PDQgAAAAMFsIfMmqOb3aoP9yYiaH+f/nKNOkM6ZR6q3lqvWxtMkVRTUMBAACAwUf4Q+ZMXCm79AAvgQZ5/HTA1f8vj53sEquib96NUm0VRPOXjbN+drTnUF9FAAAAFDzCHzJkrrxYMUv9PCaPf3xEXjv1C3m5V/f/Wxtj/r8IWZrkPXmt8u5h/XOG1HjuV4WssCaAPyHvOjWBAAAAQA4g/CEj7ptdI3eqn2+37pbXrJKz8vwx3f9Pz/+3Uu6zymLL1iTvqdDTUFijeS5bqYJpRahZ6/QKFViX2APAREwFAQAAAAy2YXctXnLNLGddVyC6Wdy0aX45dUpHhKFpqB+fZeJK+UDX+gUa5NaPj5hC25xptcGmoJGvuVWvq5VaazJ1rVsaN9enfa6/8G3EcXi/rHohfDAX/4rVssWq4fPQ0SIbNx20gi4AAACQK6j5Q3oVL5ZGV3PPSEdP1dnz//lqpDFO/7+cneTdaNtTLxt36H3sNiVatzTv3U/wAwAAQE6i5i/LCqLmDwAAAEDOoeYPAAAAAAoA4Q8AAAAACgDhDwAAAAAKAOEPAAAAAAoA4Q8AAAAACgDhDwAAAAAKAOEPAAAAAAoA4Q8AAAAACgDhDwAAAAAKAOEPAAAAAAoA4Q8AAAAACgDhDwAAAAAKAOEPAAAAAAoA4Q8AAAAACgDhDwAAAAAKwLC7Fi+5ZpazrivQaZZCpk3zy6lTbebZ0DPUjy9f+adXyDdqKmX5vPEih/fLqhdazSux+asWyop750tlqSmQbmne2yx79rQKVxgAAAC5hpo/FLTqdbWya2etbHlqiR38EuRfsVq2rHUHP228VC5bIlueXSh+UwIAAADkCsIfctP0hbLhWTuYbVtRYgrT71TDfqnbYR57u01pP9S+PbxMB0Vd07dbNq6pk1X6sXm/NHeo4tL5smVdhfVWAAAAIFcQ/pBW981+Qj6oekJenGgKPE2WR+br962U+0xJpOqaUK1a2bJ7ZPV0eznd2k62yoEm82i/YErj0/tWpn62731Dtu7pDDXxVJ+1dZMKgHp5XmXG9hkAAABIBeEPafXa6SYrDN1Zvljm2EXRim+Wu0ern4Gj8ppdkkcq5I55+ucJaVDBL1qr7LFqEMfL1Kl2CQAAAJALCH9Ir5435ScB9XN0lTwUo/bvvvIq8UtAXj59xJREO9DQYjehVHQNW/1Je3nQTZ8gVoXk4U/kgFVgc/fxazM1iKVlmWuuCgAAACSL8Ie0C9b++ebaBWHmyj0+9aP3Y/llj13i6eRB2brJ7ku33rOGbZBMHW83+Wzvsp9LhWzQA8a4+yZ+2i3t6kdZ2QT7OQAAAJADCH9Iv56P5K1e9dO3SB4ptouCJs6RO9WPts6P5Khdkt+qbpRKs0jYAwAAQC4j/CEDzsrzp4+pnz652zfZLrJMlkfKZ6mfx+Qnp87aRXkqGPSaDkmj1Ty1W5p/1//cgAAAAMBgIfwhM84fkJd7Rfzl1aERPfN6oBfDNOkM6ZR6q3lqvWxtMkVRTUMBAACAwUf4Q4aclV926pFfZsk9ZuCXOb7Z/Q70kvNOdolV0TfvRqm2CqL5y8ZZPzvac6ivIgAAAAoe4Q8Zc/TUO/K2+mlP+zBZvl3i63+gF0eWJnlPXqu8e1j/nCE1nvtVISusCeBPyLtOTSAAAACQAwh/yKAjsv10QGT0bPn2NLvJZ6IDvWRrkvdU6GkorNE8l61UwbQiNM3D9AoVWJfYA8BETAUBAAAADLZhdy1ecs0sZ11XILpZ3LRpfjl1Sk8UMDQN9eOLNlderKqxRvjUA7083rQ7of5+1etqpdaaTF3rlsbN9Wmf6y98G3Ec3i+rXggfzMW/YrVssWr4PHS0yMZNB63pLgAAAIBcQc0fMuyIvKG7/mlJDPSSs5O8G2176mXjDr2P3aZE65bmvfsJfgAAAMhJ1PxlWeHV/IncN/sJedoXkJffr5PnE+nvBwAAACDtqPlDZhUvlh/61M9EB3oBAAAAkBGEP2TMnImLpfG2KmtAlLdPv5nQQC8AAAAAMoPwh/QqVoGv6gn5QD12VdjBry3QIA+ft18GAAAAMDgIf0ivMSWhqQ96A/J26w5Z/nEeT+oOAAAADBEM+JJlhTjgCwAAAIDBR80fAAAAABQAwh8AAAAAFADCHwAAAAAUAMIfAAAAABQAwh8AAAAAFADCHwAAAAAUAMIfAAAAABQAwh8AAAAAFAAmec8yJnlH/imR6hULpGb+DCkrNUVyQurW7JMD5hkAAAByH+Evy4Z8+Lt5hCz8zjBrsevf+qT1I2vRZZhU/MMImaAXj1+Vgw2hr19JTZHMnGmehLkmvV0iZ17/Qjo/y8TXdZiU//UImSJfyIf/8oVcMqX9S3W9/FK9rlZq55knQYQ/AACAfEOzT2TMhAo7BIa5ebgd/JIyTEZPGCYz/2qE3LrI4zORQSUyZbK91Lxjt6xaU2ceBD8AAIB8Q/hD5swcrqJDuBKvQBhB1xge/EfX42dX5fi7do3f6DuGS/lXrEVkU0eL7GmKrqkHAABA/iD8ISO6juuwNkwm3Gw/t6nnulmneq3LLkjMZ9ek850v5ExSKyVndPLVkZZU1wMAAACyjT5/WVYoff563/1Ceu8YLhPc/frMa13qNYl8TXH6/MXqK2j1r5twTc787Kqc/swUf2W43PpXw2V0V6x+dzHWU/ty60LdnNQ8jyfiGFJaz2XMzcNl6kJ1/MHPuCa9x7+QP6r3xtz/YL/CYeo8DZcpM9U+mHfY62auz6HV529yi2zcdFAYqggAACB/JVzzV1xcLLfMnRvzoV8HQuxBWtxNP8f49H9VeUCCwSUhXzGBR4UlHXSCAW6Asl/bp4NckdzyHXfw01SQmzlCbvmHEbGbtE4YJmPUeahQQXCmK/hpo9U5vuWvh8sY8zwjSsfLNLMIAACA/JRUzZ8OeXPnftU8Czly5A/y4ZEj5lniqPkbgoI1f1flj6JCyR3DTE2eqwbrdZGbdG1dwqN9Kl3X5MxBFfw+ivi6plrzF8aMQBrzM2JJbr0xi1TAU+dDB+Cuf/tCnRNzLCrUld+r91E/uSbH//GqhH4znP03T9XrZ9S6znkYo873LXFHVx04e7RPRvcEAADId0n1+dMBTwc9t1SDH4a20T6RS+98YfXts0b9VAFH13Z1qQCXUvPECcNkyneGS8XNeTrapwqpN5ngp0NoMPhpn12T0/9y1fRpVMcZa0RTFYB1MHQH4EsfXZXjx+3l0b50n5sS8a9YKjV6moeObjllFwIAACBPJT3gizsAEvwQ3zXp0sFEBbeSWbqponqua6ZKwpstRooa7VMFng//7QvpVcFownfydLoH55hjNltVAfCgHepG3zTMowmnCo2vu2sEQy4FXEEyHaYvlG07a2XXzpWyZdkMKes4IY0v0d8PAAAg36U02qcOfPt/9SbBD/3qbFXBZMJwmalrvVTwSW2ygGty6aMv5IOf6QCowtEd0VNI5Dq7v6NY/R1j6rxmHZ/Vv88qyA3t6nHGXgQAAEAeS3mqh3Pn0jTqBoY2FdqcGRq6dBAciM+uSZf5sNHM9Zc5Jw/Kemsi991St7dbykpnSO2DC8VvXgYAAEB+Sjn8AYlRge1dPfKnCoEZGIwkrVKtcUtiPd0XMianaWiX15QPg6FTDuypl7rDapHRPgEAAPIe4Q8Z1/nOVfngX1Jt8uliBo3Rep2K58/iN5Ucs8ieIiJRqdYo9rfepWNmP2cOjzGdwzApX2j3Zez9Y66EPwAAAAwlhD/kARXs9OTqekoH9UxPIO8OktZ8guo9M2tcAVBPn1DjTK3QHzMwjR5p897hUuIOZ+pzSmKOMJrEep99IWec9/7ViPBRS/W+BqdzuCZn3knzAC4AAACAMsI/44YnzXLW9fZG12+MHTtOLl68YJ4NPUP9+GTicJl6kwo2Xdfk049NWaQY7xkz2578fPRN6vVvhj8mqfd/Sb+p6ws52nhN/staw/b5lWH2501Q73PWuXW4XD/Bnm/w5GX7c//zg2vyeY9ZKcIlFSB9t6ptjB4mE9S6wW2r5Qnqsy//xrs2Lpn1Ln18TYapY7xevTfsGPW+Wu097Wkgzobt4zAZO89+Pdb+f2m6Ou6pw6TvzDU5l/b5GErkmzVfldl/PiGv/OpTGcLfXAAAgCGPmj/khV49yfu/XZWDXpOpf6SngtD9Cs1zTc+J97M++eAdFb4SmQrhMz2a6FXpUuu52duN02Q1qfX0fH591rQVzsA1NrXvx9Ux6Dn8GEcJAAAAGTLsrsVLBq2NWVcg+pZ62jS/nDo1dGcUG+rHh6GmRFY/u1KWS4ts3MRcfwAAAPmMmj8A/SudLyuq8m12RQAAALgR/gDE0Sm/bem2lirXrpRdO2vNY6lUW6UAAADIF4Q/AHG17amXjXtPSHuHKQAAAEBeos9fltHnDwAAAMBgoOYPAAAAAAoA4Q8AAAAACgDhD2mlm7UCAAAAyD2EPwAAAAAoAIQ/AAAAACgAhD8AAAAAKACEPwAAAAAoAIQ/AAAAACgAhD8AAAAAKACEPyApk+WR+U/IB1W18kixKQIAAADywLC7Fi+5ZpazrivQaZZC9Dxxp061mWdDD8eX73T4WysPjA7Iy+/XyfM9pjgrzLalSVa1vClHTWn/Ul0v0+bKi1U1cqd5loi3W38sD583TwZNrp5PR5GsXjlelo9TixcuycbdPWL9Rt50vey6e6Rekua3zsvWP1qLQdXfmii1ntN0XpX2C33S8KtLciDQZ8rSyeyvuPY1Iamul+tSu34AACSCmj8AGKpUaIsORVfl0y6zmJARUjZupNR+b7xsu73IlCEZft9IWf2tCbLrbyfKrm/ZAS4habl+AACEEP4ADJIj8nDTj+XWsMcOeblXv6ZrViNfy4Vav6FP1yqt+mfX45VuqXv/qvVa2W3Xy2qftYgE6NpUHfi2fO96We4fYUoBABg8hD8gb0yUG0abxaSkuh68DeB8Tl8oG56tlV07a2XbihJTmG59cuaCWXTruirtZjEpgT458N7n0uj1mWkxQqbqJo5JS3W97DnV/LnUvWUeJkD3L83XDwAAF/r8ZRnHl+/C+/z9UubKQ7MWyZ2jTXVIb0DePv0Lefj8Wfu5o3ixNN5WJf7eWP3EYvQlnLhSGstniT+RsBFokFs/PmIvp7qey5yJi+Wh8ip1bKZAAtIWeEc2qvfG3P9gP7jJct/s78oPfT5xupG1BZrUuv31kYtxHuIpniuPlC+Su93b6j0mPzm2W16LWt/5/Fj9B9N8HSJUr6uV2nnmiXRL4+Z6qT9pnqaR03+v/f1uWf+e6afnK5Zt3xsjZXJF6v75czlglwY563j3J3P6oV2Vxle6pD5gip3PdPdNCxNjvZuul23zRkpZIuGt7XNZ9e9X7OVU13Px31QsK+aNkcrgZ6hQ1dYjL6r3xtz/YL/CInWerpca/wh1Hm3tbZfUugn0OXT67MXYL7dUrh8AAImg5g9I0Q3ltbLrtppQ8NPU8p0Va+WD2XNNwcAlFDg8pLqeHYCekF0V7uCnqXDlq5Fd8UY6HV0iM1UYe1EFqKddYUzz+6pk1/zFMsc8T4c502rlA3UNHojc1uhZ8vRtT0jjtMmmxHFWnm9pkLfV0p0V0ccxZ9p3rWDYpgJ8ZPBM/Xxm36kLdi1TR7drgJZAn3Ton+q1U1ZBgnx24NEDkOiQFAxwA5RQgPOQ6np2kJsoW+52Bz9NBTn/9bLlbyfEbtI6boRM842UDSoI1rqCn1bmHyNbVhaHff8GKq3XDwAAF2r+sozjy3ehmiNN12b95PSbpoZpstynwsPT5fYdZFjNUqo1f2HM6JgxPyOW5NbTgWqXdQwBdQyuWkxdwzZLBS3r2I/J40275TXrBS38vOh1X1brPm/WnTNxpQqTs6zl+CN2JnIeDPWZH1ifqWtb35Htp0I1knp7W9RrfqvvoMfnOOu6z0m/18iR6nVQdLPPB+dLZakKUnt3y/o90f8GpoWpZQqvxYusxQoXe7RPRQWOxsOfS/0fI0b7TLXmL4wKVX97vVTG/IxYklvPf/sE2XKb7nd3VZ2Xz9V5cWrURsrqv7TDrUTVqjn7b56qdRvVus558KvzvCXRETiTqPlL5foBAJAIav6AFLWd3iHLP3aCn3ZWXjtVJ6tO23e4d/rSV/uXNSoAbTHBT4emsOarPUfk+RZnQJZZ8sOoWjWjVwdDFbhc6x49v1seNzf+00fHWC8pKiSWO2FS7acr+Gl6e8tbj6kln9zt89iesz+jq2SLdRzq82ap4KeP+1iSgS4ZJw/K1k3qO7KmLnPBLyjGqJCeI0j2Y9wIWX739bLhpjwd7VOF1IdN8NMhNBj8tMAVqd/dbfo0jpSaWCOaXtDBUAVY17ptf/xc6szJLB2f7nOTxusHAIBB+ANSEpC3AhH9+oyjgY/tm7MxE9PaxDErxpTYzdcC78SodTsrz5/WoUrEX3Kzx/Hp8OSuEQw5filN7QW14pvlbl3L2Nsk22PVIp4/ajXv9N5Pkdc+tpt/+su/Ky/Otpt76iAZt7YxX6hQskoHlbBT3qdCzvl+a52iRvv8527Z+NYlaZcRUnl3nk73MME01YzZbFWdm8P2eSnzj/RowqlC46+8+9k5TTTTagDXDwCAeAh/QKbo/m9mMV/MUfustV2KM6fCpU473A7m8TkhdXSV7Kp6Qj7wfPQ3gfwRefj9JnUsPrnT51O5tSFOc9RC1idtf+yR9a/oAKinexgj1fYLecNvauXa4wU1ZzRN3b/PKgAAYOgh/AEoWHN8s0O1PPlYU5tNgStyyGoaWSRTYg2MAgAAchrhD0g3p1aqt1OOWwVplmqNWxLr+VUQiinTx5cIp/ZRT6sQMRF81CPWoCx6EBrdv1F9xuO6n2aw/1+C8rBmN6elWuOWxHpl6r0xOU1DGU0TADCEEf6AlPjkhjFmMUxoIJK2zo9CoaPnvFjTucUIDM4UA4kpkRtjTbUQV//rBfsr+hbFmM4hxvFlW89H8pYeeCbmfvZnrrxojRR6TB7/+Ii8duoX1kA2/vK18mKc3BsuheuQlUneM8Q3UhZYo172yRmnL5oz/UCMAOa/3RlFMxGp1ij2v17bJ1fsJp3+4hjTORTJ6nn2qJ3tbV7z/QEAMDQQ/oAU3Vmh55GbG2oqqKdCCE53cEx+cso9IMx5+ZMZJfPp2e51VJia7Uyt0J8j8oZ10+2TB2YtlvvcwUN9zn0TY9VaJbFez5vyE+e9t9WqIOR6Le7xZZsz8IzZT30dwoKYnnZjpTRWrZT7TInbfbPt/oBvtzqD06jPO6b7/+nr6r1OSKrXQaS6xp7mQStbdo+snm4v57Yia0oDe4JxFY7ev+Qa+OSqfGpGyaz9lmugFJ8KU99yplbozxV510pbI2T5XxZLtftXQc8xGHOE0STWC/RIg/Pe700IH7VUT/UQnM7hijQ4k6oDADAEMc9flnF8+U6FNTMPXVuvL8bE3/3MLedBTxvxkzF6YvQY6zqcuejM03CRc++5JLWec4zmaRSvfQydl1j778wfaE2RETM49v85bqE5CWPoPWaNPhr2Oc510E1GPz5iCm3Bz/N4LUyK16F6Xa3UzjNPpFsaN9dLvVUlPPjizvPn8JpTz5m/zkP7+93SME5PjB5vnj/FmS/QPA0XOfeeS1LrRc7ZF8lrH511Yu+/M3+gPtb1ruCY0PnUEpn3DwCANKHmD0hF78eyseXHsqr1mAqBpkzRk74/Hiu0nN8d9X5rTrz3f2yFoYSmQuh5U5a/3yBv94a/t02HnNYD3sFPS2q9s/K8dWxN6v2myKICrwpFq/Qcfv2Esmw5eqpOblXH9XJA7Zsps6jjfPu02teWiOCnQ5uruWck/XnW/H++GmmM1/8vxetwoKFFmq12kioY7X0jZ4Jff9ovXJHGt7plldfk4n/8XDa+dUW9xzzX9Jx4r5y3wlBCUyEE9Giin0tzxHvt7bprGiMktZ49VYKetqLZva8q9LWrALYxamoFAACGHmr+sozjAwAAADAYqPkDAAAAgAJA+AMAAACAAkD4AwAAAIACQPgDAAAAgAJA+AMAAACAAkD4AwAAAIACQPgDAAAAgAJA+AMAAACAAkD4AwAAAIACQPgDAAAAgAJA+AMAAACAAkD4AwAAAIACQPgDAAAAgAIw7K7FS66Z5azrCnSapZBp0/xy6lSbeTb0cHxAHipeLI23VYnfPA3qbZJVLW/KUfM0MZPlkflr5YHRIm2nG2T5qSOmPD3mTKuVXeU+9dk71GefNaWDxTnWgLz8fp0832OKc0KJVK9YIDXzZ0hZqSmSE1K3Zp8cMM8AABhqqPkDctx9s5+QD6q8HrXSOH+l3Fc82bwz3fSNu9rO/MUyx5QkJtX1sm/OxMXy4vzasPPaOHuxOqfmDZlQfLPcrYKf5i+fI/fZi8iy6nUrpXaZO/gBADD0Ef6AvOUT/+hZ8vRta6VxWqYC4FClAursWtlVUSV3jvaZMpvfV6XOaa28ONEUaD1vyvKmH8utwUeDvG1eSlrPR/JWr73YdvqovGYvIqtKZIr5lWnesVtWrakzD2r9AABDG+EPyBNvt7rDh3q8v0MePx2wXvOXf1ceyWRt1ZBimiL6dOgLqPO6Q1YFz6s+p8ekTQXrO31z7ben3Vl5vsXeXrqbfCJJHS2ypym6+wEAAEMV4Q/IVz1n5bVTv5CXTS1S+k2UG0zzxOSkul6WTKy2+tuJHJPH36+Th8+fdfXZ0+d0tyxXwfrWjwlmWTN9oWx4tlZ27ayVbStKTCEAAEg3BnzJMo5v6ND9xR4q180GTYEEpC3wjmxUoSF6ABBT2yTOACGT5b7Z35Uf+nzBQUTaAk1q3ejBQ3Sfv6d9ds3fw+dNYZD53MgBNZwBSmIOSBJjvYkrpbF8lvgTCW+BhlBASnU9l+ycT+e4Y53PRM2VF6tq5M5+B3wJbc9LYoOyTFbnplq2lJeo8+s0UY19bvob8OW+2bXq+6Q+R12HVV7ntniuPFK+SO52n8veY/KTY7vltZgDtjj7GPoO6PP/k9NvipTr72/8AV+q19VK7TzzRLqlcXO91J80TzPE2ubkFtm46aAwRBUAoFAkXPNXXFwst8ydG/OhXwcKg76hf8L0FzNFFnWz7KuRXVW1sZtgji6Rmerm+kUVCPQNuHv0SN3XbFcyg6QU24HHGjVSBYF0jaSYUIDzkOp6WT2fwcFWjskbKQe/LDLHtqtChyp338QEzo0HHQzjBT/9+ge31VhNYsPOpdW39IkYfUvtgGvvoylSnL6TPxxjCnJR6XiZZhYBACgESdX86ZA3d+5XzbOQI0f+IB8eSb6JFDV/Q08h1Pw5NSu69uXt1l9YzQYtusZklrpxNuHi8abdrsE8ImuAAvKyWvd5s+6ciSutm2ctskbKqfnz1Ks+53Toc4JSrfkLk2jtVqTk1svq+VTlH+jyGLWPiUv13Nj6q52zmW3oxd5j6jofcF1nFfynVcsPy2fJyYjvS6zPDp7nWPvsnBt9HU6/I9tPhcKhPp9bdLjT5zni+xL6foZfvznq+j2krp8d6ON9zxTd7PPB+VJZKtK+d7es35P5fnh2bSNTOwAACktSff50wNNBzy3V4AfkJRWqtpigom9mg0FF6zkiz7fsMH3wZskPY43AqW7kH29SN8KudY+e3y2P22O3yPTRSYzcOdonD1R8V16cmKejfWb5fM4ZnT/9yeZMW2SCnw5ruyMCfqhvYiJNV/sNfjpMqyCpvd2qroMr+Gn6fC5vPaaWfHK3z3Ud1PX7oQl+kdfvqLp+DwevXz9OHpStm+wRNzMf/ErEv2Kp1Ohmph3dcsouBACgICQ94Is7ABL8UHDGqBtH/TNmM8uz8vxpfZMs4i+52aMJp7pJ1n2nzDO345dMWokharTPph2yqrXJHpmyIk+nexjE85nbJsu3S0woPhanZrHHHQi9hYKfCsmxaimd5rAqHG6PFSbPH7Wmtwi7Dv1evxwyfaFs26nOxc6VskXP79dxQhpfor8fAKCwpDTapw58+3/1JsEPBcepOWq7FKe65VKnfUOp+6NZBZlyVo6ef1OWv68DoLopL6/OuwnDs30+j/aaWqUxExPvWzkonBFTO+WTAYQqq/mrVbOqdcpxsxTFCXGjq2SXa8L78IdpguqS0PXLUe3qccZeBACgYKQ81cO5c5+ZJQCDKjhpeIncyLhL8WUtmOeAku/a/R57m+z5IHWwm52puQvzwMmDst6ayH231O3tlrLSGVL74EI79AIAUCBSDn9AIfOPmWiWPDi1KL1xalrySapBKYn1snY+g0E5Th/CnJJ6oLdGBzV9/F47VWf3gfTVyItep9oJxXognLCmxR4Pj6ajca9fzumUA3vqpe6wWmS0TwBAgSH8AUk4GvjYvkn2LYoxxH5o4Iy2zo9i99VKp+D0Ba4mgj3nxZomLUYAmzPNniIiMakGkP7Xy/75PCu/7LT7AvrLvxt7mgQ90mgig+hkrAbxiLxh7aZPHpgVZ/qP4smxX4sY3OW1jxusPnt3VnhMD+GE4pjXwVvo+s3xbnJcnOCE/0zyDgBAVhD+gGT0vCk/cW7Kb6sNH2VTB4bg9APH5Cf9Tt49UHpi7ZX2lA7qWdvpA66BT87Ln0wN19Oz54YCggoLj8w2A4D0KzyA3OcOBXqOwZjhKIn1BuF8Hj31CzMCpdnmNNf5CZ7TGmsU1dhBKHR+f+heX+1z2PEOwGun7b6cVnPN+Ssjwqizn2tjNuWMDstH5GEzYmd0oHQG1nGdk7Dj0FNLqO1VrQwPea6a1KfVPrqP3TmPkf0EvVTX2NM8aGXL7pHV0+1lAACQXknN85duzPM39BTCPH9WbVTYHHOR7GHvw0c/dNbxes0Wa362uPP8ObyG8Fc33/a8bdH0Nn4yRk+MHnt/LM58geZpuMi591ySWi+759PW/zatKQ/ijGMSHEUzUgJzCMbfN5e451GLPv7+Pju43x77GfOYHHq+wWO7w893vH1U73/70iy5s5/vmT3nnnki3dK4uV7qrarrTCmR1c+ulOXSIhs3MeInAKBwUPMHJO2sPN/yY2uahbetWg9HQNrUDfUqPedcjJvcdGvTN+OtOzz7Ycn53Wofj6n3mOeaHu7//R9boSChqRB69GiiDeo4w99rb9dd0xghqfUG43y6t+neR73NJnWO4gc/7eipOll1Wp1f89yijy+QxpEv9Xls2iGP6+2k6dwEaz6t/n/htbf6mG5V1+3lgPp8U2ZR5+jt02p7er7ByO2Za63XCQm9f3sC37MDDS3S3GEvt+99I8PBDwCAwkXNX5ZxfAAw2Kj5AwAUJmr+AACFqXS+rKhigBkAQOEg/AEACkyn/Lal21qqXLvSGmXUfiyVaqsUAIChifAHACg4bXvqZePeE9Ju+hoCAFAI6POXZRwfAAAAgMFAzR8AAAAAFADCHwAAAAAUAMIfkATdrBUAAADIR4Q/AAAAACgAhD8AAAAAKACEPwAAAAAoAIQ/AAAAACgAhD8AAAAAKACEPwBAbpm+ULY9u1SqzVMAAHKRf8Vq2bauwjzLD8PuWrzkmlnOuq5Ap1kK0UPpnzrVZp4NPRxffhvqx4d++B6VSTdUmichl//0A7kYME8Gkw5NT82XMvM0qKNFNm46KHnxza1aKtvWzpCyjhNS99I+OXDSlA8GX7Fs+96Y6PN54ZJs3N2T5PksktUrx8vycSLt738u69+7YsrTw3/7BNly2wj12d3qs/tM6WBxjvWqNL7SJfW58LsB5Bx+T4YCHf62LBsvcni/rHqh1ZTmNmr+ACBBRaOiYoDSLFf4n3Z66PCqg5+o4LcpVvDTN0wTZdffqsfKYgnOvHnT9XaZemy4yZTF4L+pWDasnBB8v35s+1axVPvMGzLBN1IWqOCnld02klpNIKeZf2fc/8YMKake31A9L6n/f6VtT71s3NstMm+JbFtRYkpzG+EPABLUd+ZROXfoB+bxmPRcVoWXz8hg17MEnTwo69fUyargY7+KpvmiRFY/qGstu6Vxswp+pjSuC30etW9X5dMusxhF/Q/+WxNky91jpHLcCFNmK/OPkdrvTQj/H3ygR9b/83lZFXx8nvr5DFyRQxfsxfb3ryR2fACAlPh9I61/763w9q2RpjQBSf9/xQ6AdYfV/0eW3SOrp5vCHEb4A4CUlMuIUepHbw6FvzzmX3GPLC9VwWjvG1Kfkaae+i+742W5X4e+q9L8VrdsDIa6bqlTgaxdRkjljCRuEpLSJ/W77e2lu8knAMBW/S27pm7L9643/95nx4EX9B9b1f9jHlyY87WihD8ASIXvdtHZ73L3O/ZzDECFrNB9Jjpa5MU90X3Bw/XJGVODFqbrqgpvcdw0xupvJ3JF6l7pkq1/dP91t08OvPe5rH+lW1b9O8EMwAiZapppD02pHl/un5dTzZ9L3Vvm8f5VU9qfFP+/EqZV9ujmn6XzZUWVKUrE9IWy4dla2bWzNmvNRhnwJcs4vvxWaAO+FI1ZJKPKamTk+FIpMmV93a/KxeO7Ytd2jfGrdX4kxa515HKz9LS/In8OeJ07v1w39xkp7t0u547rIKXWn/I9KS6rdG1zu9rmO57bLPKtUu9dIKNGlZqSDvX+Q2p7u+TyJVPkJen9DFc05TnxlYn0/OFR+XO87bgU+R6Vsfq4dGq0dMjl9gbpOeN9bANXIRt2LpHKJAZ88VctlBX3zpdK53RKt7QfbpYXX2iNu76/aqk8fO8MKQuuF619725Z7xXu1Lq71s6I/XoE/ZfdWr9uPuka3CQ4OIsKd//8eUSzSlPrp25amt86r4KfKU7aSNnwt9dLZb8DvoS25yWxQVmKxK8C68PziqQs2ERV3Yi09ciLKqBGbru/AV+qvzVBnTP1OW2fy0aP9XWfxNWVxbJAvcfp2dp+4Yo0/Eqdy5h9Wp19HKn20S5pb7skDc09IpX6GqV/IAvdX3PFPN1s1xTEOSfB6yDO9SpS5+F6qXEfo9rfF/892cF7EpHc9XMkc3z274H+vl+SKeq4QrXa+o8buolzZJm1mhJ+XvS1X/GXxaGm0BfU+w9/bv2BJJasX4ekvp8pbu+m62Wb67scl/o9Gvgfisx+mgFffqv+fUnoOjj/1sX8dyj8c4O/f6keXxrOy6D93uo+e3ePTOh6Jf//FQ/OoGtJDP5Sva5WaueZJ1a3h/oMtX4JoeYPgAcVjGaqcPPVh8LDkVI0/n7xLXhOrhtjClx0uPF99RkZG7GOjKqU4hueEd8Uj8YQYxbKSBWG+npPq+VV6rPV+q7gpxWNf0jGeq2rt3fD/a7gp6ltq30c+9XnZKzPu/FFSvsZoWi03ma79CUU/BbJ2Lk/V/vqDn5aqQqgD4lv7qrw/RgUJbL62VrZstYd/LTxUjZviWzZuTpmX4bqdavVevGDXzzVX5+h/tsth97rP/hpp9RNkdbR7bopCvSpKK2o105ZBS7BwVauyLspB78sUvu7Qd38bFE3LaHgoKmbH//1suVvJ8jqJAan0cEwXvDTr+8yTaScmyutbNxIqf3eRNl2u9e3075Bs/fRFClO38maRG4Uk6K3N9H01zRFlgTOiTqH08w51ech7BjV/m5J9+AVKV2/VI+vSGr0jbK+vpYRUjmvWAW/iLK7r48eZEjt2wrdB1Zd+7A+sGq58u7xMfpJZf86pPb9VFLYXkIBJwOmViZ7HVKT6vGlfl7y5/c26f+veDl5XA7pFebdmNODeo3wz7jhSbOcdb290XdNY8eOk4sXvepehwaOL78N9eOz2TVxX/7yl9Vyh1z+07Ny8fhP5T/bX5Ge9ma5OmycFH25QkZd/yW58tnv5Qt7JSuITVThRv9FSdfUdf/+/wquc0WtM+bLZTL8yzfLsAv/Lv/7v+xVLNd/W64fXyZffOlmGVP2dSm63CwXj/1PuXjyp/b2xvyljBotMryvVXq63P/8qv2c+T/kvxXZ+xhQ+6hr7aztXRkn/218hXp4bC/V/QyzSIpvXCBF3Y1yMWyfvKjgt+AhGaX3s/3/KxdPqe2d1NtTjwufybDrF8h/GzVLhl95Ra70mlXSxidVNTdI2Z87ZP+vPpV431z/iuXy9/PViVYhrHnHa7L+n96Wf204JP96+KJ8afYNMvvLo2X23SXyWcNxCfujZNVS+T+X6dTXLY1qvSfNer87P0JuVinyy3rkzjX18pwq++VHXkm5RL5Z81X1+Wflzf93xGfHcGHMl+T7M4qko+2S/CbYCX+YTL9R7aP8l+z/w3+FH+vU0fKAer+o9z/3SaLNgLwUSVWluqG/7LGNMF/I7/9wSf61OfzxuxGjZMnk4fKfZy/LL88Ef3MiqJud/6FuAvUfCS5ckcbf/qc8+cafzWf8b/lsxHCZMvlLMvyc+9jVfdKU0Z6f7dQIWtNTvNob/Zfym66Xl77xJbVwVZrf/7O8+Orn8hNnfz8vkpvVeSub/N/kS2298nvX97P6Wz75H5P1kq5VuijrzT7+ru2qjC8bLbOsG71rcuxo+Hqp8t8+Tv7er39rw7f3r2p7XyobKbNHDZfZNxfJZ81XXN+h4TL3q+o7MapIFtysrtuoq9Ko1nXOpz6+Jfp7MepLMv7z8POZutSuXyrHN/3GYlkwbrh8WR/XKwF58tf/W76kfwfGfUk9IsrUORgePMbQeSlT6+talP/Pry7Ic7929vG/yQL1XRIVrmZEnJesX4eUvp8pbq/rin0s1uOqzNC/6/r35mcXgtsMPgb074jD2c/hyV2HMf9Nvn3zl+TLMf8dcj434vcv1eMbwHkZ9N9bFR6/r9+rfhf7u2ZJ/3/F0yX584SZsqRilLQf/r38/qIpjuPk2REyY3aplKlbrva9r8lzv0mwKdEA6CsCAEFFU34kxfrG5fKrEjj0qFwMtLmaJLbJ5TPPSeAP2+XiJ+6mnyrgmPnv9Jx3gbAmmmp9vU67/nNYqYwcH/63Omf6hCJde9f+mJw78pxcvuTcoqrttb8av0nk5UPSE9ZMU20voLZ36DG5GNUkM/X9DDNmiooBprayH6NmquAnKtCqfbmom3e69+fSO/LnT+zjKxqVzr9hJmn6QnlY97kzTU62Nrlq4E62Sv2m3dJo/flzhtRE9Enwmz8JN++ol3rXem1NB2X9jhNqaYbcEbf/wwSZqrNjR3dif1kNijH6msdIbf7x+mrlB//txWJ9Q60mXZ9LfViTr1DfxESaroYFv1jNw+bZtQpWs8D3wmsF2/6otvWWbio1Qhbc6DqHvmKpsb6uOmDY/ScdbYErsnW3+h71f5eUOLW9h/VxeGxPj6JaH9zeSKmJVQukbv7q/rkr7Hzq46szB1yapu9IStdvgMen5420m/b1yW/VTXVkmWdfJsNq4vbvPa6mk3ofu2Sj6SsVNgBS1q9Dit9Ptyxd94FK6jrkizz6vQ1J/P8r8Y2XqVPNYn9OHpStm+wRuhPp9pAOhD8ALouk2Gq7p8LKkTj9+lRocfenK5pSYw1+0qfCW6zJznU/PP15RaPL7QLDbj6pw9hjEjgT+5/X6KClwpr+i+ao+2XszEVSFNUMVQXHiD+gDWQ/w4w24e9yf/87WKRCpP5ZKWO/+nOZtMDj8dX7rc8aVFPH201qDjfH6GvQKfWv6yAnUjZ/ZtJNbUrL0tyJXf3Pf5W+IQi7hmY0zX76deS2IvmG1VRP3Sz9Kk5/lkDM38ygUPBTN0+ewU/xmeawKqjsiRUm/3jFmt6izD8ydN0nmCZYbT1p7c8XU7/bU9f+sH3dw/YzSJ9P7/46TlOv9Ejx+g3w+MKaqRnustjHeFUOfeL9XWr7RI9+q4wrSuK6p/k6pPr9DMrWdR+oJK9Dvsib31sjTf9faWuP89eWHEH4AxBiarSk+z3RU9glyg5wHXKlu78wFMmv1tU/9UTp3usWjV8QM2hdPq5CXHeH1SfQZ4Wr52TsFBUEzeuRUt/PcKPG67/tJzC5uxkRNNc5tXft7XHaz3zabd+ElI6XaVaBzfkfXeXapVLt7hM4vUI2rNV9+dQZb8/OXzNjaXNuhHP+BsoZSa9PzvT33YrDf9P1dvCzxOmr4tycjRsjW8xExtGP6+2aLBenJrU9SzfQCW3PGZVP9xOyCgZDatcvp4/Ptb2s72eK388haVC/16nJn9/bwkP4AxDi1Ggl0JwxxAlw/Qx+4vnZZq68OBOlO4Htqme/oTYVAB+Vc39QIbC9WX2GGUDFCoGRt/kD2U838zkJTO7uNGnVTUxDk8N7P+LVeua0pn3W5La6eWftU/Zw1dbjqSX2Tdnh/bKnSS8MokK6wdCDKOjR7S5csoc51zfOaRwwAgAQm/PH1FxG+AOQBX65rsz++2xYDZ5TMxZzovQEA9sl0xdRB6k/bJfLl3UI/JHniKTxxdjPMMlP7j6o/fmSUFY2wSx5cJqGevbN67b+awWsoG5p3rtfNvYzRYRKZvKp1c0yvEYxrQJX5FB/fUtySpFMiTUCXj+s0SVNHz/dZ8jqG6MC4Yab7NfDOKFYD4MenPA+xsOj6Wj4SJaZF3d7Ti3RhQRH5cuo1K5fTh1fnO1lbT8H+P1MC3Wsg/oHo0xf91SPL4n18uf3Np265dNPzWIOIvwBCDGBpqjse7GbK46JbFZp+t5JpYyMccPjHkSmx9UcKlgzFnOi9Fg1g4vsfn7mWZhL71i1gCpNyAgrODpS388wJrAmUjvad9mOQ0UTFnrvq1LkUwHXLMc00Elg+wlWbe+dsG+y5lXGmM6hRFbfazfhbG85Hn6TVbXUmqOocXOdrF9jd1q3H/WydU9/wU/rlDNn9c9xMiXGVBIDFxoIo+y262MPLe4bKatvSiAcZuyG8Iq8a52wEbL8L+MMY+6L03zVBD/nvB/498+tPlGVd3sMqe6EYn9x7HPiIdgPyT/SezhzX3ongg5tL9Z+hgYGaW/zmjcsW1K7foN5fFM9/97jvb2s72eK38/0Sv0PMYlTvy9JXAfdZ9QafyvGv0P+26+POcdotFSPr//18uf3Np1K5BvzdUf/C3LGs/+8l4rQ/9/XVZiyzCL8AQi5dFCuWJ39KmXs3Edl1BjXLYqeFH3mczLpq9Fz7l3u1reXIqNuiJhbTwXF6/R8gdYgMh3SEzZCqPqnP26TTsUJWl0Hw9fTA7fofn5z7e2F3a6rbep5Ar2kup9edKAb5dQs6nPjNadgwPSdHHW/NZdf8P2KnkDf2uYNz0hxP/8Tra4Jzb1XtuyemPPtRTO1atYonRWhG87pFeH9804elAar6eZ4Wf7UatlQ5QqY6r2rn10py63tn5CGiNHI7CYu42Xq7akP6nLgd3owmfGyYACf0Z+29z43I8upG/PvTZANt7sHGFA343oiYz2X2N1xwqFclU+DNYiu9VVorE7pBirageZL9g2Tbq65Uu1LWBh19nN8zKac0TdRV2SrGRExOpA4Ay64zknYcRRJtbqR3Pa3EXPEuWpSa9U+uo/dOY9p7YcV6JEG66DMfrrPiQ7sep4762b3ijT0O3l+ZqV0/Qbt+PQ8chG/C/G2l/X9TPH7mRbhQT7s91uF9+qw6zpwlXfr+QoTvA6uf4dq1fcotI4KU3rexmB/33hSPb4k1suj39u0mT5TFuj/Vx7+pP8J4Q3/isrQ/99j/gE2vYbdtXjJNbOcdV2B6EEApk3zy6lT1rdlSOL48ttQPz6Lnmg9zgiUfd2vysXj0eFo1Myfy1hrZEsvKlBFTbtgzydYPKpZLh56znOAmaIpdiDTfeYiR+d0Xoupe3vEVA625Pczkpm3zzwL0lNjeI2Q6ntUJpnpJbzouQYveuynW/W6Wqt2zdZtTcfgPSpnNP+K1bLFmsYhwuH9suqFVvNE05O8OyHPS4ztTl8o256abzfdiaG944Qcev1Q2FQQ4Spkw84lUtnRIhs3HczgX4DVzVHwhsOLnotKD0lunnoIjqIZSTdN62dEOGdda1j3eDc7vmIVEMbEOadXraHT3aPS9ffZwf322M+Yx+S4cMUadS9sFLx4+6je33xhpFT6o/czdf1fu+htOevE3o+Er0kyUrh+qRxf9bcmSq26829+63zwO+scT/yy0Lb0eE3eXZRinbPsX4fkv59puu5xr6OegsB7JMrEhfaz/cKI5K7DTdfLLt2314M+poZxemL02MdvSfX4klovu98X53eiXwn8e50K5/+3zTvqZGuCfd0j/x/dvnd3xqd8oOYPQLhLu+w58ro7wgPJ5Wbp0dMxeAQ/7fLxH0jgT83S505xl/XE5iqEHfIKVAMb7KXvjB7oZbv0ROxnn96mtZ/egSr5/Yz0jlz8w6ty2bV+nz437eG1k0GB50w/RKsKLsgK0X+InGvQ24GGFmk2q7fvfSPh4Ke17amXjXtNs06HCmONv4sc2bNT6jfVycYdoW3ZuqVdBcWNa2IEzpPHpeGw3ecvlrLSGbJ87UrZEHO+v1bZs1d9Rul8eTiVZq0Js4ft3vjWJRVO3CPQqZuvtktSp2404gU/rc2ae8s0Z3Lom88TcUa0S1agR9b/c7fU6e1Yf+F36P38XDZGDUfev2DNp9X/L/xPO/qYVr2iXm8zfawc6hw1v6+2p+eri9ye3kezTkjo/XvCzm86uK+dKbKkfk4yJqXrNxjHd1UO/UpvM3w/nd8F7+1lfz9T+n6mg/mOh/9boQOz+n1Xxz+w4OeiPu9F65wmcR3+qI474v36c+peOW+FoYSmQkj1+JJaL49+bwesQlboENfRktQgZ217miP+n5t51PxlGceX3wqi5g9ImKktlHg1diVSvW6lVXMZ/y+aTs1jcjWbAJLVf80KgOTYLXQG8P+vqqWya+0Mav4AADnM9G+IGgQmTKecao9fM2jrlPqXWqTd6ne4NAN9eAAASD/ddNP+A2dyLXPc7P7z3XLovcwGP43wBwAYED0IjR4kJrKrhV8PFrPO6c8QPVhMlJMHZf0O3UR1htQ+SwAEAOS2YJ+9w/tTr7GbvlAetj6jOSutXgh/AIDUuEYJrVy7UrY4E7ybx5anlsjyeboPxAlp3LwvsT4yTftk/WZdA6hkYdQzAAAGQveLDx9ALVElKjwutQdNU/+frEvpM5JH+AMApOzAC84gMd3hgzEoepTPxh27ZeOmfcn9NVPXAKp1DtDvDwCQw/SgautTDm0TZMWyGVatof7/ZNoGEeoHA75kGceX3xjwBQAAAPmKmj8AAAAAKACEPwAAAAAoAIQ/IAk0+QQAAEC+IvwBAAAAQAEg/AEAAABAASD8AQAAAEABIPwBAAAAQAEg/AEAAABAASD8AUmqXlcru3Y6j9Wy7dmlUj3dvAgAAADkKMIfMCDjpax0htQ+pQKgKQEAAAByEeEPSNKBF+pk1Rrz2LxfGjt06TiZQu0fAAAAchjhDxiIk63y25Zu8wQAAADIXYQ/YIDa2i+YJQAAACB3Ef6AAfKXjTNLAAAAQO4i/AFpcUHOnDSLAAAAQA4i/AEAAABAASD8Af//9u4GNqrz3vf939jdxPYuwR7TDSaYIeW9IglwSGkRTqA0R2majdUcEBzpVGnVVO3onFDRRiJbibKjRDtcZZebcq8c1OQ03N6rgwU7FW6aRG1eUOBwQpKNIWE3CYSWwQQ7DR7b4dR2OAfj+zxrPWtmzXit8czyvNnz/UgT1lozz8x6MWF+ftbz/HNinkSeWE29PwAAAJQswh8wTtEDr0jriT7pmrVCIo/axd93bWowzwIAAAClgfAH5Eij+RMAAAAoRYQ/YLzWrJLI8jqR7nPS+sh+q/j79gM95kkAAACgNBD+gHGySz30Sfuel+XweUIfAAAAShPhD8gJSj0AAACgtBH+gJyYLrOZ6RMAAAAljPAHAAAAAGWA8AeMU7Sr3ywBAAAApYvwB4yTPeELAAAAUNoIf8B4zF0om+6qMysAAABA6SL8AVlq3haRtr3m8egGWak3dp+TN5ntEwAAACWM8AeMS590neiQ1j3HJGq2AAAAAKWo4vb1G0bMcsH1xkYXxG5qCktn5+T9Gs3xAQAAACgGev4AAAAAoAwQ/gAAAACgDBD+AAAAAKAMEP6QU4z3AwAAAEoT4Q8AAAAAygDhDwAAAADKAOEPAAAAAMoA4Q8AAAAAygDhDwAAAADKQMXt6zeMmOWC6431mKWEpqbwpJ4xcrIfn9a8LSKR5WZF+qSru18O7nlZDp83mwAAAAAUHD1/yLM6aZw1TyKP3inNZgsAAACAwiP8IecO/6JVttxrHo+8Ku3deut0mT3XehoAAABAERD+kF/nz8ibHX1mBQAAAECxEP6Qd9GufrMEAAAAoFgIf8i7cON0swQAAACgWAh/KJB+uchsnwAAAEDREP4AAAAAoAwQ/lAg8yTyxGppZsZPAAAAoCgIf8i76IFXpPVEn3TNWiGRRyPStjciuzY1mGcBAAAAFALhDwXTaP4EAAAAUHiEP+TfmlUSWV4n0n1OWh/ZbxV/336gxzwJAAAAoBAIf8g7u9RDn7TveVkOnyf0AQAAAMVA+EOBUOoBAAAAKCbCHwpkusxmpk8AAACgaAh/AAAAAFAGCH/Iu2hXv1kCAAAAUCyEP+SdPeELAAAAgGIi/CG/5i6UTXfVmRUAAAAAxUL4Q841b4tI217zeHSDrNQbu8/Jm8z2CQAAABQN4Q951iddJzqkdc8xiZotAAAAAAqv4vb1G0bMcsH1xkYX/G5qCktn5+SNCZP9+AAAAACUJnr+AAAAAKAMEP4AAAAAoAwQ/gAAAACgDBD+AAAAAKAMEP4AAAAAoAwQ/gAAAACgDBD+AAAAAKAMEP4AAAAAoAwQ/gAAAACgDFTcvn7DiFkuuN5Yj1lKaGoKS2dn1KxNPpP9+EpPhcz5fqXMrh+Ri78elgufms0oYQ3SvGmVtKyYJ42zzCY5J633viyHzRoAAACyR/grsHIIfw0tVTJ/vllJMdQ7IkPHrsnH74/IoNmWX/7hz38/1T72ilz83TXp+TQffz3MPsk1ee9X17I4D0HbTSzN2yISWW5W4gh/AAAA48Vtnyio6voKqf9Wpdz0/SlSY7aVngprP+d/t1JuXlthtqEwGmT2THvp+DP7Zcu9reZB8AMAABgvwh/ypvelq3Lsn92PYXnvpWsypJ+snyILSiRYjdrPXw/L2bfsHr/qr06ROV+yFlFI3R1y4OjoOwMAAAAQHOEPBTQig+9fk3dfMsEqZP1Rej4dkZ4j1+Rir1nPg+p6s5CloO0AAAAAxvwVWDmN+dM9amfeNxvdvjRFbv7uFKnu9Rm79qUKmfP1KVI/v0KqzSY9VvDi74alx3fClgqpWTpFFqzWt2zaW4bOqgD3P66JfF3vj/+YP+/99BkrONa++7VbWik3u/YtrbPDcuyg+WsZtJ2LPi83rFbnM/4eI9a5+Ui91nf/4+MKK9R5miKz3dfCapu/MYfWmL+ZHbLjwWPC1EgAAAC5k3HPX21trdy0bJnvQz8PZKJmkQkSKtClBoiatZWy+rsqfLjChmaPwavyGYNnB5abvpUckqrnT7HG7c3OJDi5qfBpBR7VTgedXM0QGrTXLmg7+7xUqfPiDn6aOk/z1fn6WaX/La3qfNeo87BQndf5qddCnde8j9mcVSdNZhEAAAC5kVXPnw55y5Z9xawlnDr1R3nv1Cmzljl6/iYn/x41FarWqlD1VTtMjHp+qQp+KsDpnqnet67Jx0cS4bBGPbdAhzv1nP+snardS9fUe9o/0jq83PDtShN80rXzoHsaj6ngZ94rLmjPXxIVqlTwqvd9Dz/ZtdNB+iZ1rlPPi9Wzqs6LHYpH5Ow/D0vib6Kz/2ZVnzfV1jkP+jrokK359uyOkz3bJ7N7AgAA5FpWY/50wNNBzy1o8MPkV/+tKln9M/ejUuab4Dd0dnhUMJyz2gkV6jlX8NMG3x82YwUrpH6Rq/dPhbHZJvjpsBUPOMrgpyNy5lfDwcbu1VfI7G9NkYVLXZ81kajzssAEv9Tzosc0XoifF3WcfhPvqACsg6E7AOvrcPasvVwdyvW5aZDwpjulRZd56O6TTnsjAAAAciTrCV/cAZDgh2wN9V6TsyqMvJs6Nu1LKtTp3ib1/Md+vUnvXxOdV6oXVCRuOWwwtySO4/ZM3YOVNNtnfFZSuyzFhCz3MOZ5UQHwmH0Nks5nnAqNeoylWXMbjKVcu/Gau1p27Y1I297NsvOuedLYfU7a9zDeDwAAINcCzfapA9+rr71O8ENa7lD1nlM6oXfEu3C6E1bqp8hNSb2F7kelJA1dU2rMjKFDMfvP3DCzkv7aLkuhyz002E9MGBmdl54RU3bDK/wVT5d6XLQXAQAAkEOBSz385S8Bu1lQlgaP2L12Mn8C1c1TIbXX3DJaTa2//Dl/TLZbhdz3S+uLfdI4a55EfrRawuZpAAAA5Ebg8AdkZ0Q+tnr/KmT2tz1minR6oXS5gqRbMD0eHpOdlGzNwHSC9rhl0S7teXF6Wz1mXS2OHjl8YJ+0nlCLzPYJAACQc4Q/FIzu/bMmGamfIjcstbfFOb1sWfYMDp42oVG187w1U71X4FIJzjhEZcjp6Fb7me5WyRo9m2kWnxe0R3Gsdu7z4n0+ExPsDH1UKuEPAAAA+UT4QwElJhmpX53a++c8VyGzv1spC9eqcJUUWnSZiEq5+WeVySEvfmtmhcz/vnrO1UaXJbhZvVf22U99ttV2ij0z6VvXkiY+GXI+r8UVAHX5hBantMJY1D5bM2bavaDufbZqDPrOMJpFu09V0HZeq8+n+zm9r/FyDiNy8YjHGEwAAABMOlnV+cs16vxNTv51/rRE8Bh6a1jeTQkeidp0PnT9vd+l1M9zau+Z1STq9b29FVI/3y55kHGdP4dXTb14PcLR9DFdDOnC6KM/L0m6fVaBLLn2nktW7dwhz4vXPjpt/PffuUZe12/8GmTrE5tlo3TIjgeZ8RMAACCX6PlDgblKDHjMojl4ZFiOqdBx8ay5bdGhQ5wKG+/9yiOQfKpn5rTbJCRe/3GA0gRDOmS+pPbFq5j6+7oUhNo/MxmMRb3+7K+vWmEoo1IIZp97VTs3+3OTexqTZNVO1/O7apWtcCausal9P6uOQdfw8wunAAAAmHTo+Suwcuj5A4Kj5w8AACBf6PkDUHpmrZBNayZadUUAAIDSRvgDUEJ65M2OPmtp5X2bpW1vxDzulGZrKwAAAIIi/AEoKdED+2THi+ekq9tsAAAAQE4w5q/AGPMHAAAAoBjo+QMAAACAMkD4AwAAAIAyQPhDTunbWgEAAACUHsIfAAAAAJQBwh8AAAAAlAHCHwAAAACUAcIfAAAAAJQBwh8AAAAAlAHCHwAAAACUAcIfkJWZ8pMVD8u7ayLyk1qzCQAAAJgAKm5fv2HELBdcb6zHLCXoOnGdnVGzNvlwfBOdDn/3yfeqY/LcyVZ5asBsLgjz2XJUtnS8Lh+YrWML2i7flsnuNS1ym1nLxBtnHpP7L5mVoinV8+mokq2b62TjdLXYPyg79g+I9TdywTRpWzdVL8nxQ5fkyY+sxbjmO2ZIxLNM57B09V+Vg68NyuHYVbMtl8z+imtfMxK0XakLdv0AAMgEPX8AMFmp0DY6FA3Lx71mMSOV0jh9qkTuqZNdt1aZbchMlQrV9bLrhzOkzXlsrpcHFmR4HnNy/QAASCD8ASiSU3L/0cfk5qTHM/LckH5O96ymPlcKvX6Tn+5V2vJL1+P5Pmk9OWw913jLNNkashYxltBUeWBznUTCKjybTZbplbJyXZ203WH34gEAUEiEP2DCmCE3VpvFrARtB2/jOJ9zV8sDT0SkbW9Edm1qMBtz7apc7DeLbr3D0mUWsxK7KoffviztXu+ZE5Vyg77FMWtB2xVAqFZ23TNNVk4fluMnL8sOV5jeceiKfR3C0+SBBdarU+T4+gEA4MKYvwLj+Ca65DF/v5dl8uNFa+W2atMdMhSTNy78Ru6/9Im97qhdL+23rJHwkN84MZ+xhDM2S/ucRRLOJGzEDsrNH56yl4O2c1kyY738eM4adWxmg8QkGjsiO9Rrffc/Pg5upty9+Dvyg1BInGFk0dhR1XasMXI+5yGd2mXykzlrZZ37s4ZOy7On98sLo9o77+83fjDH1yFF87aIRJabFemT9kf2yb7zZjWHnPF7XSf7ZPvbZpyeFUhqpFGuSOsvL8the2uc08Z7PJkzDm1Y2p/vlX0xs9l5T/fYtCQ+7RZMk13Lp0pjJuEtelm2/OGKvRy0nUt4Qa1sWl6jgpnZoMc0Rgdkt3qt7/7HxxXq2zinSYurN68rOqjajj728K3T5Gt/upw4Zjdn/J7PPga5fgAAZIKePyCgG+dEpO2WlkTw09TybQvvk3cXLzMbxi+jwOEhaDs7AD0sbQvdwU9T4SrUIm3pZjqtbpD5KoztVgHqcVcY08KhNdK2Yr0sMeu5sKQpIu+qa/C91M+qXiSP3/KwtDfNNFscn8hTHQflDbV028LRx7Gk6TtWMIyqAJ8aPIOfz8Lr7Ldv0+zuc03QErsq3fpP9VyntSFDITvw6AlIdEjyDDMBZBTgPARtZwe5GbJznTv4aSrIhafJzh/W+9/SOr1Smnxu42wM18jOzbVJP39a9G2f4KeN0YuX0+sHAIALPX8FxvFNdImeI033Zj174XXTwzRT7lbh4fE59jfIpJ6loD1/SczsmL7v4Se7djpQtVnHEFPH4OrF1D1si1TQso79tDx0dL+8YD2hJZ8X3fY51fYp03bJjM0qTC6yltPP2JnJeTDUe75rvafubT0iT3cmeiT15+1Uz4WtsYMe7+O0dZ+TMa+RI+h1UPRtnz9aIStnqSD14n7ZfmD0/wNzwvQsJffipfZiJfOf7VNRgaP9hAozH6XM9hm05y+JClU/nCYrfd/DT3btwrfWy85bKtXSsDovl9V5cXrUpsrWb9jhVkb1qjn7b1ZV23bV1jkPYXWedwaZgdNcn6SePbcA1w8AgEzQ8wcEFL3wjGz80Al+2ifyQmerbLlgf8O9LZS73r+CUQFopwl+OjQl3b46cEqe6nAmZFkkPxjVq2YM6WCoAper7QeX9stD5ov/3GqfdllRIXGOEybVfrqCn6Y/b+OZ02opJOtCHp/n7E/1GtlpHYd6v0Uq+OnjPp1loMvG+WPy5IPqZ+Te1vwFvzifWSE9Z5Acw/RK2bhOj1GboLN9qpB6vwl+OoTGg58WuyL79veZMY1TpcVvRtN+HQxVgHW1jX50WVrNyZxVl+m5USFuuQ6MV+SgV/CLy+H1AwDAIPwBgcTkUCxlXJ/xQexD+8tZzYyc3uJYEDUN9u1rsSM+vW6fyFMXdKgSCTcs9Tg+HZ7cPYIJZwf97oELoHaprNO9jENH5Wm/XsRLH1i3d3rvp8gLH9q3f4bnfEd2L7Zv99RBMm1v40ShQskWHVSSTvlVFXIueY4xcxs12+cv+2THoUHpEnuWyglZ7qHe3Krpe9uqOjcn7PPSGJ466hZOKzS+5j3OzrlFM1PNd9g9ibr30Xfc3jiuHwAA6RD+gHzR49/M4kSxRO2zFh1MU1NhsMcOt8U8PiekVq+RtjUPy7uej7EKyJ+S+08eVccSkttCIZVbD6a5HbWcXZXoRwOy/XkdAHW5hxpptp+YMMKmV64rXVBzxuHp8X3WhtzTt55aE7lE9W2nZiMAAAVE+ANQtpaEFid6eSZiT20hxa7IO9atkVUy229iFPiKjzlUwW87vXcAgCIh/AG55vRKDfXIWWtDjgXtccuiXVgFIV/5Pr5MOL2PuqxCSiH4UQ+/SVn0JDR6fKN6j4f0OM34+L8MTcCe3ZIWtMcti3aN6rW+nFtDcz6bpp4t1Q5+useP2zYBAMVE+AMCCcmNNWYxSWIikmjP+4nQMXBJrHJuPoHBKTGQmQb5sl+phbTGbhcfrxha61POwef4Cm3gfTmkJ57x3c+xLJPd1kyhp+WhD0/JC52/sSayCc+5T3anyb3JAlyHghR5z5PQVFllzXp5VS46Y9Gc8gM+AUzXukvMlDmWoD2KY7eL/skprF7rU87BmYRF35LpVe8vKHuGTl0ewprZk+AHACgywh8Q0G0LdR25ZYlbBXUphHi5g9PybKd7QphL8mczS+bji91tVJha7JRWGMspecX60h2S7y1aL3e7g4d6n7tn+PVaZdFu4HV51nntLREVhFzPpT2+QnMmnjH7qa9DUhDTZTc2S/uazXK32eJ292J7POAbZ5zJadT7ndbj//R19W6TEPQ6iDS32GUetMa7vilb59rLpa3KKmlgFxhX4ejkoGuikmH52MySGbnDNVFKSIUe09s1tivylpW2KmXjN2ql2f1XQdcY9J1hNIt2sQE56Lz2nvrkWUt1qYd4OYexZuDMgqkLqMtcHD/kU9IBAIACo85fgXF8E50Ka6YOXXQo5FP4e4zach502Yhna3RhdJ+2DqcWnVlNllp7zyWrds4xmtVRvPYxcV789t+pH2iVyPANjmO/j1uiJqGPodPW7KNJ7+NcB33L6IenzEZb/P08nksS8Do0b4tIZLlZkT5pf2Sf7LO6hIsvbZ0/h1dNPVOTzovu7To4Xfd8pavzpzj1As1qstTaey5ZtTN18nx7Ir320Wnjv//OWL6kmn1p9yuZb60/AADygJ4/IIihD2VHx2Oy5cxpFQLNNkUXfX/IL7Rc2j/q9VZNvJOPWWEoo1IIA6/LxpMH5Y2h5NdGdcg5c9g7+GlZtftEnrKO7ah6vdlkUYFXhaItuobfGKGsUD7obJWb1XE9F1P7ZrZZ1HG+cUHta0dK8NOhzXW7Zyr9flb9v1CLtKcb/xfwOhw+2CHHrfsk1Zf+F18pmeA3lq7+K9J+qE+2eBUX/+iy7Dh0Rb3GrGu6Jt7zl6xQk1EphJieTfSyHE95rf257p7GFFm1s0sl6LIVx937qkKfHou3Y1RphXFwxg8CAFBi6PkrMI4PAAAAQDHQ8wcAAAAAZYDwBwAAAABlgPAHAAAAAGWA8AcAAAAAZYDwBwAAAABlgPAHAAAAAGWA8AcAAAAAZYDwBwAAAABlgPAHAAAAAGWA8AcAAAAAZYDwBwAAAABlgPAHAAAAAGWA8AcAAAAAZaDi9vUbRsxywfXGesxSQlNTWDo7o2Zt8uH4gAmodr2037JGwmY1buiobOl4XT4wq5mZKT9ZcZ98r1okeuGgbOw8ZbbnxpKmiLTNCan3fka99ydma7E4xxqT5062ylMDZnNJaJDmTaukZcU8aZxlNsk5ab33ZTls1gAAmGzo+QNK3N2LH5Z313g9ItK+YrPcXTvTvDLX9Bd39Tkr1ssSsyUzQdsV3pIZ62X3ikjSeW1fvF6dU/OCfKhdKutU8NPCc5bI3fYiCqx522aJ3OUOfgAATH6EP2DCCkm4epE8fst90t6UrwA4WamAujgibQvXyG3VIbPNFg6tUec0IrtnmA3awOuy8ehjcnP8cVDeME9lbeB9OTRkL0YvfCAv2IsoqAaZbf7KHH9mv2y5t9U86PUDAExuhD9ggnjjjDt8qMfJZ+ShCzHrufCc78hP8tlbNamYWxFDOvTF1Hl9RrbEz6s+p6clqoL1baFl9stz7hN5qsP+vFzf8oksdXfIgaOjhx8AADBZEf6AiWrgE3mh8zfynOlFyr0ZcqO5PTE7QdsVyIxma7ydyGl56GSr3H/pE9eYPX1O98tGFaxv/pBgVjBzV8sDT0SkbW9Edm1qMBsBAECuMeFLgXF8k4ceL/bjOfq2QbNBYhKNHZEdKjSMngDE9DaJM0HITLl78XfkB6FQfBKRaOyoajt68hA95u/xkN3zd/8lszHOvG/qhBrOBCW+E5L4tJuxWdrnLJJwJuEtdjARkIK2cynM+XSO2+98ZmqZ7F7TIreNOeFL4vO8ZDYpy0x1bppl55wGdX6dW1T9z81YE77cvTiifp7U+6jrsMXr3NYuk5/MWSvr3Ody6LQ8e3q/vOA7YYuzj4mfAX3+n73wusgc/fObfsKX5m0RiSw3K9In7Y/sk33nzWqeWJ85s0N2PHhMmKIKAFAuMu75q62tlZuWLfN96OeB8qC/0D9sxouZTRb1ZTnUIm1rIv63YFY3yHz15Xq3CgT6C7h79kg91qwtm0lSau3AY80aqYJArmZSzCjAeQjarqDnMz7Zyml5JXDwKyBzbG0Ldahyj03M4Nx40MEwXfDTz797S4t1S2zSubTGlj7sM7bUDrj2PppNijN28gc1ZkMpmlUnTWYRAIBykFXPnw55y5Z9xawlnDr1R3nvVPa3SNHzN/mUQ8+f07Oie1/eOPMb67ZBi+4xWaS+OJtw8dDR/a7JPFJ7gGLynGr7lGm7ZMZm68uzltoj5fT8eRpS73Mh8T5xQXv+kmTau5Uqu3YFPZ9q+7t6u0/vY+aCnhvbWL1zNvMZenHotLrOh13XWQX/pmb5wZxFcj7l58XvvePn2W+fnXOjr8OFI/J0ZyIc6vO5U4c7fZ5Tfl4SP5/J12+Jun4/VtfPDvTpfs4Ufdvnj1bIylkiXS/ul+0H8j8Oz+5tpLQDAKC8ZDXmTwc8HfTcggY/YEJSoWqnCSr6y2w8qGgDp+SpjmfMGLxF8gO/GTjVF/mHjqovwq62H1zaLw/Zc7fI3OosZu6sDsn3Fn5Hds+YoLN9Fvh8LqmeOOPJljStNcFPh7X9KQE/MTYxk1tXxwx+OkyrIKm9cUZdB1fw0/T53HjmtFoKybqQ6zqo6/cDE/xSr98H6vrdH79+Yzh/TJ580J5xM//Br0HCm+6UFn2baXefdNobAQAoC1lP+OIOgAQ/lJ0a9cVR/+l7m+Un8tQF/SVZJNyw1OMWTvUlWY+dMmtuZwdNWvExarbPo8/IljNH7ZkpF07Qcg9FPJ+lbab8+wYTik+n6VkccAdCb4ngp0KyXy+lczusCodP+4XJSx9Y5S2SrsOY16+EzF0tu/aqc7F3s+zU9f26z0n7Hsb7AQDKS6DZPnXge/W11wl+KDtOz1F0ME13y2CP/YVSj0ezNuTLJ/LBpddl40kdANWX8jnNE65geKHP5wdDplepZkbmYyuLwpkxtUf+NI5QZd3+avWsaj1y1iyN4oS46jXS5ip4n/wwt6C6ZHT9SlSXely0FwEAKBuBSz385S+fmiUARRUvGt4gX2bepfQKFsxLQMN37HGPQ0ftepA62C3OV+3CCeD8MdluFXLfL60v9knjrHkS+dFqO/QCAFAmAoc/oJyFa2aYJQ9OL8pQmp6WiSRoUMqiXcHOZzwopxlDWFKCB3prdlAzxu+FzlZ7DGSoRXZ7nWonFOuJcJJuLfZ4eNw6mvb6lZweOXxgn7SeUIvM9gkAKDOEPyALH8Q+tL8kh9b6TLGfmDgj2vO+/1itXIqXL3DdIjhwSawyaT4BbEmTXSIiM0EDyNjtCn8+P5Hf99hjAcNzvuNfJkHPNJrJJDp560E8Ja9YuxmS7y1KU/6jdqb/cymTu7zw4UFrzN5tCz3KQzih2Pc6eEtcvyXetxzXZljwnyLvAAAUBOEPyMbA6/Ks86X8lkjyLJs6MMTLD5yWZ8cs3j1eurD2Zrukg1qLXjjsmvjkkvzZ9HA9vnhZIiCosPCTxWYCkDElB5C73aFA1xj0DUdZtCvC+fyg8zdmBkrzmU2u8xM/py3WLKr+QShxfn/gbq/2Oel4x+GFC/ZYTut2zRWbU8Kos5/3+d7KOTosn5L7zYydowOlM7GO65wkHYcuLaE+b83m5JDn6kl9XO2j+9id85g6TtBLc4td5kFrvOubsnWuvQwAAHIrqzp/uUadv8mnHOr8Wb1RSTXmUtnT3ifPfui08XrO5lefLW2dP4fXFP7qy7ddt200/RnP1ujC6P77Y3HqBZrVZKm191yyalfY82kb+zOtkgdp5jGJz6KZKoMagun3zSXtedRGH/9Y7x3fb4/99D0mh643eHp/8vlOt4/q9W8MLpLbxvg5s2vumRXpk/ZH9sk+q+s6Xxpk6xObZaN0yI4HmfETAFA+6PkDsvaJPNXxmFVm4Q2r18MRk6j6Qr1F15zz+ZKba1H9ZfzMM57jsOTSfrWPp9VrzLqmp/s/+ZgVCjIqhTCgZxM9qI4z+bX257p7GlNk1a4Y59P9me591J95VJ2j9MFP+6CzVbZcUOfXrFv08cVyOPOlPo9Hn5GH9Ofk6NzEez6t8X/Jvbf6mG5W1+25mHp/s82iztEbF9Tn6XqDqZ9nrrVuk5B4/dMZ/JwdPtghx7vt5a4XX8lz8AMAoHzR81dgHB8AFBs9fwCA8kTPHwCgPM1aIZvWMMEMAKB8EP4AAGWmR97s6LOWVt632Zpl1H7cKc3WVgAAJifCHwCg7EQP7JMdL56TLjPWEACAcsCYvwLj+AAAAAAUAz1/AAAAAFAGCH8AAAAAUAYIf0AW9G2tAAAAwERE+AMAAACAMkD4AwAAAIAyQPgDAAAAgDJA+AMAAACAMkD4AwAAAIAyQPgDAJSWuatl1xN3SrNZBQCgFIU3bZVd2xaatYmh4vb1G0bMcsH1xnrMUoKeSr+zM2rWJh+Ob2Kb7MeHMYR+Kn9340qzkvD5n/+jfBYzK8WkQ9OjK6TRrMZ1d8iOB4/JhPjJXXOn7LpvnjR2n5PWPS/L4fNmezGEamXXPTWjz2f/oOzYP5Dl+aySrZvrZON0ka6Tl2X721fM9twI31ovO2+pVO/dp977qtlaLM6xDkv7872yrxT+bgAlh78nk4EOfzvvqhM58aps+cUZs7W00fMHABmqum5UDFCOyxX+0c4NHV518BMV/B70C376C9MMafuhemyulXjlzQXT7G3q8cACs62UhKbKKhX8tMZbptKrCZQ08/8Z9/9jJpWgxzdZz0vwf1eiB/bJjhf7RJZvkF2bGszW0kb4A4AMXb34U/nLO//RPP5BBj5XGz+/KMXuZ4k7f0y239sqW+KPV1U0nSgaZOuPdK9ln7Q/ooKf2ZpW/1WP3rdh+bjXLI5XbEC2//KSbIk/Lgc/n7Er8k6/vdh18kpmxwcAyFKVNN9RL7tMaLMDXb0Kb1Xm+TEE+HdFB8DWEyKNd31Tts41G0sY4Q8AApkjldepP4ZKKPxNYOFN35SNs1QwevEV2VfMWz3z5qrs22+HyFzf8gkAUEJT5YHNdRIJVybfrj+9Ulauq5O2O6aaDbl3+Bf6l611svFHq0u+V5TwBwBBhG4Vnf0+7ztir2McFsomPWaiu0N2Hxg9FjzZVbloetCS9A5Ll1kEgPGplBvMbdqTU9DjK+HzYo3RniYrpw/L8ZOXZYfrro0dh67Y/z6Ep/ncvpmLf1fOyAF9++esFbJpjdmUibmr5YEnItK2N1Kw20aZ8KXAOL6JrdwmfKmqWSvXNbbI1LpZ4twwcbXvt/LZ2Tb/3q6asGrzX6TW1UY+Py4DXc/LX2Ne5y4sf7vsn6R26Gn5y1kdpFT72fdIbeNK12c+rT7ziOdnVoW2qNeukuuum2W2dKvXv6M+r00+HzSbvGS9n8mqZv9cQo0iA3/8qfw13ee4VIV+Ktfr49Kp0dItn3cdlIGL3sc2fgvlgb0bZGUWE76E16yWTd9eISud0yl90nXiuOz+xZm07cNr7pT7vz1PGuPtRut6cb9s9wp3qm3bffP8n0/RfMcMiYT17ZOuyU3ik7NckdZfXk5zW2WVhBfUyP3Lq6RxeqXZpv6Bjw7I7j9cGeMcTZUHfqi+XIw54YseP2JP7uIls0lZstvPsSZ80bdB6d+GS1R9KfI6ztBU2bqyVla5fmPe1X9FDr6mzqXvmFZnH6eqfbS3dEUH5eDxAZGV+hrlfiKL8IJa2bS8Rn3BMxvSXjtzHcS5Xvp2sGnS4j5Gtb+7/5Dt5D2ZCPZzls3x2X8P9M/7oMxWx7VRX1/1+uOHeuXJj9Sxj9pmNVOSz4u+9pu+Uas+0+xnv3r9icvq9f4/owW/Dln9fAb8vAXTZJfrZzkt9fdoizrW8TH7aSZ8eVP9/yWj6+D8v873/0PJ7xv/+xf0+HJwXgr18xK+dZp87U+Xvf+fo8fvrZvqu4/j+3fFcCZdy2Lyl+ZtEYksNyvWsId9eb/7hZ4/AB5UMJqvws1XfpwcjpSqur+X0Kqfy9/WmA0uOtyEvvJPcn1KG7lupdTe+E8Smu1xM0TNapmqwtDVoQtqeYt6b9XeFfy0qrofy/VebfXn3fj3ruCnqc9W+3j9V34u14e8b74ItJ8pqqr1Z3bJ1YyC31q5ftl/U/vqDn7aLBVAfyyhZVuS96MoGmTrExHZeZ87+Gl10rh8g+zcu9V3LEPztq2qXfrgl07zv5un/tsn77w9dvDTOtWXIq27z/WlKHZVRWlFPddpbfBgbgnaqb4AJL6Qa+pLRXia7PxhvWwNmU3FlOP91MEwXfDTz7fdYwcF58uV1jh9qkTumSG7bvX66bS/oNn7aDYpjeEa1aZeWjL5opgV/Xkz1Oe5v0BqGZwTdQ6bzDlNvR1M7+/OXE9eEej6BT2+KmlRn2WHPK1SVi6vVcEvZdu6aaMnGVL7tumOetlp9Za49lMt+98iV/jrEOznUwnweRkFnDy4YWW21yGYoMcX/LwU9ucl+rZP8NPG6MUL/O+K2/mz8o5usPzLJT2pV2V43o3/aJYLbmho9Lem66+fLp995tX3OjlwfBPbZD8+m90T98UvflEtd8vnf35CPjv7X+V/dj0vA13HZbhiulR9caFcN+0LcuXTf5NrdiMriM1Q4Ub/Rkn31PX92/8Zb3NFtan5YqNM+eJSqej/g/yv/203sUz79zKtrlGufWGp1DT+O6n6/Lh8dvr/ls/O/1f782q+IddVi0y5ekYGet3/+1X7Of8/yd9U2fsYU/uoe+2sz7syXf6mbqF6eHxe0P1MslZqv7xKqvra5bOkffKigt+qH8t1ej+7/j/5rFN93nn9eerR/6lUTFslf3PdIply5Xm5MmSa5ExI1rTcKI1/7ZZXX/tY0v3khjdtlP+8Qp1oFcKOP/OCbP+/3pB/OfiO/MuJz+QLi2+UxV+slsXrGuTTg2cl6ZeSa+6U/+Munfr6pF21+0fT7l8vVcpSlSK/qGfuvHef/Fxt+/37Xkm5Qb7e8hX1/p/I6/9Pynv76K/5gvyHeVXSHR2U/xEfhF8hc7+s9lH+t7z6x//tcazqS8R/Ul+udPjuvyLtb/5P+cdX/ir/cnxQPf6XfFo5RWbP/IJM+Yv7PVNVyZqV6gv9536f4bgm//ZH/b7Jj3+tvE42zJwi//OTz+X3F+N/c1IE28/ps6s939vpEbTKU/x2aPRv2RdMkz1f+4Ja0LdK/VV2//ayPOvs7+UqWarOc+PMv5EvRIfk31w/n813hOQ/zdRLulfpM9lu9vFfo8NS11gti6wveiNy+oPkdkGFb50u/zms/9Ymf96/qM/7QuNUWXzdFFm8tEo+PX7F9TM0RZZ9Rf1MXFclq5aq63bdsLSrts751Me3QR2fXPcFqbuc7rpnI9j1C3J8c79cK6umT5Ev6uN6Pib/+N//l3xB/x2Y/gX1SNmmzsGU+DEmzkujaq97Uf7f1/rl5//d2ce/kVXqZ0lUuJqXcl4Kfh0C/XwG/LzeK/axWI9hmaf/ruu/N7/uj39m/PEnOyiMj7OfU7K7DjV/I/9+6Rfki77/H3LeN+XvX9DjG8d5Kam/tzdUy/dUO32evf7/G+zflVSD8tf6+bJh4XXSdeLf5N8+M5vTOP9JpcxbPEsa1VeurhdfkJ//jwxvJRoHfUUAIK5q9n+RWv3F5fPfSuydn8pnsajrlsSofH7x5xL749Py2Z/ct36qgGPq3+mad7GkWzRVe92mS/86bJZMrUv+XZ1TPqFK9951/YP85dTP5fNB5yuq+ryu36a/JfLzd2Qg6TZN9Xkx9Xnv/IN8NuqWzOD7maRmtooBprdyDNfNV8FPVKBV+/KZvr3TvT+DR+Svf7KPr+q6NJ+Xb3NXy/16zJ255eTJo64euPNnZN+D+6Xd+vXnPGlJGZMQNr8SPv7MPtnnahc9eky2P3NOLc2Tr6Yd/1AvN+js2N2X2W9W43xmX/OcqU1/CakV68pbt0pdln1Jt1JdlcNvX5btz/e5bo0rjlzuZ1Lw87s9bLndq2DdFvh2cq9g9CP1WYf07VGVsurL+ifeCNVKi/XjqgOGvp3Q9bcodkWe3K9+jsb+lpQ59Xn36+Pw+Dw9i+q++OdNlRa/XiAVxFp/2Zt0PvXxtZoDnlXn0y5Lga7fOI9P1420ezuuypvqS3XqNs+xTIZ1i9sfBly3Tup97JUdJ+33WTnP1etU8OsQ8OfTrUDXfbyyug4TRUn9vXV+lq7IwbS33Gf374q/OrnhBrM4lvPH5MkH7Rm6Mxn2kAuEPwAua6XWundPhZVTacb1qdDiHk9XNbvFmvzkqgpvfsXO9Tg8/X5V1XPsDYZ9+6QOY/8gsYv+/3sdHbRUWNO/0bzu7+X6+WulatRtqCo4pvwCbTz7maTahL/Px/rnYK0KkfrPlXL9V/6b/N0qj8dX/t56r6K6oc6+pebEcZ+xBj2y73c6yIk0rpjveWtWOrMaczyIXf3jv0V/IUi6hmY2TY+xHOpqytesW+DUl5DXvEKQEUv3paAQcrefieCnvjx5Bj8lZGoPqqBywC9MfnTFKm/RGJ6auO715has6ID/LVa5NObnqWt/wr7uSfsZp8+n93gd51av3Ah4/cZ5fEm3qRnubf7HOCzv/Mn7Zyn6JzNBxvSqLK57jq9D0J/PuEJd9/HK8jpMFCX097ZZ3watfpaOH0ozbi/rf1e8RbvS/LalRBD+ACSYHi3pe1t0CbtM2QGuW670jRWGUoVVW/2nLpTu3baqbpW1T15B6/OzKsT1dVtjAkNWuPq5XD9bBUHzfKrg+5nsujr9u/0MirubGUFLndN719WV5v6Zj/vsLyGz6qTJ2mBz/qFbed+d0uweEzh3oTxwnx7Lp854V2F+m+nPmaHuqlwc65oVVW72M7xgmh38LGnGqjhfzqbXyE53TaykxzS7J8slbH7b3lWgL9AZfZ4znkePE7I2FEOw61fSx+f6vILvZ8Cfz0mpqD/XwZTKz7X+RZg1kUtUT55jNpY5wh+ABKdHK4PbGROcADfG5Cee721q5aUplO4EtmHPcUNRFQB/Kn/5owqBXcfVe5gJVKwQmPp7xPHsp5t5nwyKuzu3tOpbTBPF4b0f6Xo9S9rRl63itvr2zsij9nTV1uPRDfaXshOvyoGjegEFoSdR0DPa9Q9Kq75lTH9xzmNtKwAoVfE7IFTw255F7914OL9MLWWEPwAFEJa/bbR/P5vUg+f0jPkWSs8wsA2asYg6SP3xafn8cx0C/4vnjKTp+exnkuyLuxd1PF8WGhvrzZIH59ZQz7F5fdZ/rd/gxvXJ8RdflR1jlIgQ6ZWPrWGWyT2K+VEls/1mlispwffTml3SjPHTY4assTEqEHrWtnJ+666nPnfVxPJ8eNw6mjyTZf6l/Tynl6g/w1n58irY9Sup40vzeQXbz3H+fOaEOtai9rjl+7oHPb4s2hXn51qXh7CDn+7xy+a2zdzok48/NosliPAHIMEEmqrGe/xvV6xJva3SjL2TlTLV5wuPexKZAdftUPGeMd9C6X49g2vtcX5mLcngEasXUKUJqbSCoyP4fiYxgTWT3tGrn9txqKp+tfe+KlUhFXDNsq/xFoEdI1hF3z5nf8lavtKnnEODbP22fQtnV8fZ5C9Za+60ahS1P9Iq2++1B63bj33y5IGxgp/WIxc/0X9Ol9k+pSTG74q8Ze1IpWz8Rppp/UMZjqvJ2xfCHOynCX7OeT/8h8vWmKiV6zymVI9dkXf0XbvhWv/p1j3ExyGFp3pPZx7KbSHoxOf57WdiYpCuqFfdsEIJdv2KeXw3eP6+x/vzCr6fAX8+c6sQvzBSf1+yuA56zKg1/5bP/4d0rTu/GqOjBT2+sdsV7+dava8pD2FPpFPI4NcgX1uhB/r3y0XP8fNeFib+fd+20GzLL8IfgITBY3LFGuy3Uq5f9lO5rsb1FUUXRZ//c/m7r4yuufd5n/56KXLdjSm19VRQ/FtdL9CaRKZbBpJmCFX/i057S6fiBK3eY8nt9MQtepzfMvvzksKT+kxdJ9BL0P30ogPddU7Poj43XjUFY2bs5HV/b9Xyi79e0QX0rc+88Z+kdox/RJtbErX3Gu/6pm+9vdFMr5o1S+fCxBfOuQuTx+edPyYHrVs362Tjo1vlgTWugKleu/WJzbLR+vxzcjBlNjL7Fpc6ueHW4JO6HP5XPZlMnawax3uM5fDxQfuLiL4NcvM02brA/VOjvozrQsb31I1xi+SwfByfnc41QUFIhaAcfUEc736O/hJ1RZ40MyKODiTOhAvquXvq5QF9TEnHUSXN6ovkrh+m1IhzvpSr8xBR++g+dnv/cjwOKzYgB62DMvvpPifq3NsFrfXKWDP55V+g61e049N15Mx1N1vSfl7B9zPgz2dOJAf5pL/fKrw3J13X8Vu5TtcrzPA6uP4/FFE/R4k2KvSY3q6xBT2+LNoV4+dava+uC6gL3B8/5CrWXihz58sq/W/liT/5TyyTIrxpZeLfd99fwOZWxe3rN4yY5YLrjY2eBKCpKSydndZPy6TE8U1sk/34LLrQepoZKK/2/VY+Ozs6HF03/7/J9dbMll5UoBpVdsGuJ1h73XH57J2fe04wUzXbDmR6zFzq7JzOc776nk4p5WDLfj9Tmbp9Zi1Ol8bwmiE19FP5O1NewouuNfiZx366NW+LWL1rtj6rHIP3rJyjhTdtlZ1WGYcUJ16VLb84Y1Y0XeTdCXlefD537mrZ9egK+9YdH13d5+Sd372TVAoi2UJ5YO8GWdndITsePJbD3wCnCNWqL941afZ12JqS3HtmOlt8DEmqDG4tctpav41O96UkwH6O9d7usS+p++l7TI7+K9ase0nnJd0+qtcf758qK8Njn8/M2b/Nt78sevH6LKeN/35kfE2yEejnLPvja75jhjWRxfFDl+ITWTjHk35b4rP0fE3eQ5T8zlnhr0P2P585uu5pr6MuQZBm5siMJPazq78yu+uwYJq06bG9HvQxHZyue778j98S9PiyalfAn5cx/94l5PTvu4vz7+3xZ1rlyQzHuqf+G9314v68l3yg5w9AssE2u0ZeX3dyIPn8uAzocgwewU/7/Ox/lNifj8tVd4r7XBc2VyHsHa9ANb7JXq5e1BO9PC0DKft5VX+mtZ/egSr7/Ux1RD7742/lc1f7q/rcdCX3TsbFfm7GIVpdcHFWiP5jaq1Bb4cPdshx07zrxVcyDn5a9MA+2fGiua3TocJY+7+mzuzZI/sebJUdzyQ+y9YnXSoo7rjXJ3CePysHT9hj/vw0zponG+/bLA/41vs7IwdeVO8xa4XcH+S21kzFBmT7L/uk9eQV60tvgvrypULRjlHTfI8WtWpvmduZHPrL57k0M9plKwf7mSr69mW7ppY1/i/5Vzv6mLY8r56PmjFWjn5dWFt9nq5Xl/p5eh9Nm4TE6w+otrllT7m+49CgCpZmkyX4OcmbQNevGMc3LO+8pj8zeT91EexW39BQ+P0M9POZC+Zn/HjKz3KX/vuujn98wc9Fvd9u65xmcR0+Used8nr9Pq3PX7JCTUalEIIeX1btCvjz4owfLJqFskmHuO6OrCY5ix44nvJvbv7R81dgHN/EVhY9f0DGTG+hpOuxa5DmbZutnsv0v9F0eh6z69kEkK2xe1YAZMe+Q2cc/36tuVPa7ptHzx8AoISZ8Q2jJoFJ0iOdXel7Bm09sm9Ph3RZ4w7vzMMYHgAAck/fumn/gjO7O3Pc7PHzffLO2/kNfhrhDwAwLnoSGj1JTPJkIuofMz1ZzDZnPMPoyWJGOX9Mtj+jb1GdJ5EnCIAAgNIWH7N34tXgPXZzV8v91nscL8hdL4Q/AEAwrllCV963WXY6Bd7NY+ejG2Tjcj0G4py0P/JyZmNkjr4s2x/RPYBKAWY9AwBgPPS4+OQJ1DLVoMLjnfakaerfydZA75E9wh8AILDDv3AmielLnoxB0bN8tj+zX3Y8+HJ2v83UPYCqzWHG/QEASpieVG174NBWL5vummf1Gup/J3M2idAYmPClwDi+iY0JXwAAADBR0fMHAAAAAGWA8AcAAAAAZYDwB2SBWz4BAAAwURH+AAAAAKAMEP4AAAAAoAwQ/gAAAACgDBD+AAAAAKAMEP4AAAAAoAwQ/oAsNW+LSNte57FVdj1xpzTPNU8CAAAAJYrwB4xLnTTOmieRR1UANFsAAACAUkT4A7J0+BetsuVe83jkVWnv1luny2x6/wAAAFDCCH/AeJw/I2929JkVAAAAoHQR/oBxinb1myUAAACgdBH+gHEKN043SwAAAEDpIvwBOdEvF8+bRQAAAKAEEf4AAAAAoAwQ/oCcmCeRJ1ZT7w8AAAAli/AHjFP0wCvSeqJPumatkMijdvH3XZsazLMAAABAaSD8ATnSaP4EAAAAShHhDxivNasksrxOpPuctD6y3yr+vv1Aj3kSAAAAKA2EP2Cc7FIPfdK+52U5fJ7QBwAAgNJE+ANyglIPAAAAKG2EPyAnpstsZvoEAABACSP8AQAAAEAZIPwB4xTt6jdLAAAAQOki/AHjZE/4AgAAAJQ2wh8wHnMXyqa76swKAAAAULoIf0CWmrdFpG2veTy6QVbqjd3n5E1m+wQAAEAJI/wB49InXSc6pHXPMYmaLQAAAEApqrh9/YYRs1xwvbHRBbGbmsLS2Tl5v0ZzfAAAAACKgZ4/AAAAACgDhD8AAAAAKAOEPwAAAAAoA4Q/5BTj/QAAAIDSRPgDAAAAgDJA+AMAAACAMkD4AwAAAIAyQPgDAAAAgDJA+AMAAACAMlBx+/oNI2a54HpjPWYpoakpPKlnjJzsx6c1b4tIZLlZkT7p6u6Xg3telsPnzSYAAAAABUfPH/KsThpnzZPIo3dKs9kCAAAAoPAIf8i5w79olS33mscjr0p7t946XWbPtZ4GAAAAUASEP+TX+TPyZkefWQEAAABQLIQ/5F20q98sAQAAACgWwh/yLtw43SwBAAAAKBbCHwqkXy4y2ycAAABQNIQ/AAAAACgDhD8UyDyJPLFampnxEwAAACgKwh/yLnrgFWk90Sdds1ZI5NGItO2NyK5NDeZZAAAAAIVA+EPBNJo/AQAAABQe4Q/5t2aVRJbXiXSfk9ZH9lvF37cf6DFPAgAAACgEwh/yzi710Cfte16Ww+cJfQAAAEAxEP5QIJR6AAAAAIqJ8IcCmS6zmekTAAAAKBrCHwAAAACUAcIf8i7a1W+WAAAAABQL4Q95Z0/4AgAAAKCYCH/Ir7kLZdNddWYFAAAAQLEQ/pBzzdsi0rbXPB7dICv1xu5z8iazfQIAAABFQ/hDnvVJ14kOad1zTKJmCwAAAIDCq7h9/YYRs1xwvbHRBb+bmsLS2Tl5Y8JkPz4AAAAApYmePwAAAAAoA4Q/AAAAACgDhD8AAAAAKAOEPwAAAAAoA4Q/AAAAACgDhD8AAAAAKAOEPwAAAAAoA4Q/AAAAACgDhD8AAAAAKAMVt6/fMGKWC6431mOWEpqawtLZGTVrk89kPz5g4mmQ5k2rpGXFPGmcZTbJOWm992U5bNYAAAAmA8JfgZVX+KuQhrVTZPaCCqmuN5tkRHrfuiYfHxmRQbOlXDS0VMn8+WYlyYgM9Ypc/N016fk0H38dK2TO9ytltlyT9351LYvzHrTdxNK8LSKR5WYljvAHAAAmH277RH58aYosVMFh/lfdwU+rkPqvVspN6rkGswX6HFXI/O9Wys1rK8w2FEaDzJ5pLx1/Zr9subfVPAh+AABg8iH8IQ8qZOF3p0i9Dn29I3L218Ny7J+vmsewnD07IqLCTv3S8gw6vS8558I81Pk5+5bd41f91Sky50vWIgqpu0MOHB19JwIAAMBkQvhDzjW0VIrV2derbxccTrmVcUR6Dg7LeyrwnHm/aHcclxZ1fnqOXJOLvWY9D5J7XzMXtB0AAABKD2P+CmzSj/n70hS5+btTpFqFvIsq4F341GzPUM3aSrnpq5Jo+6UKmfP1KVI/v0K9p23o7LB8dNBjzKDXa3vVfvxOB1CzwUtW7VLHwVWosDtFZift3zW1f6PHyDlj/nTP35n3zcY48771KefNOZ9WkPYad+fTbmml3Lxa305q1tNR5/OYOp+WoO1capZOkRtWm55fy4g5J17jPIOfz1yxxvzN7JAdDx4TpmICAACTWcY9f7W1tXLTsmW+D/08ULPIfGlXX9izDX6pdBBc/V0VDFxBQNPLqUHA97XWWLoq37F0Qdvp21ZrVGi0xjWmtp0/RW76/hSpMetjUu9jBR4VlnTQGe95cxS+t08HuSq56Vvu4Kep8zNfhfqfVfrf0prL8xnErDppMosAAACTVVY9fzrkLVv2FbOWcOrUH+W9U6fMWubo+Zt8nN6tobeG5d0j2Xcq2z1/FdJ7dsTqibPGDCbNgqlDwogMugPSUhXgvqVD2uiZRGvUcwvUc549kYHaOT1tZlU//5IKbOYWVt3uJus9R/fw+c/2qeiexmOJ94kL2vOXRIUqFbzqfd/DT3btnGtnnU91TuK39eqe1W8750xdz38elsTf/ODnM1fs2T6Z3RMAAEx+WY350wFPBz23oMEPk9tQzCPE/KxKVrsfaXpzdPDTAfKYx5jBpOCnw8NqJxwMy5mUEhKD76sQ+pJuXyH1i+zX2YK2c9HBVAUZd2DT7c6etZerQz7tvNRXyOxvTZGFE3USHHV9F5jgp0No0nhOdf0uqOtoj2lUx+nXm5rL85mRBglvulNadJmH7j7ptDcCAABMWllP+OIOgAQ/5M3ZDHsOv6TCme416r0mH/v1Cr1/TXTuqF5QkQibQdvFqZCjxwSaNbfB1OCbYtRsnyrwvPfSNRnSQfNbE7TcQ4O5VdP3tlUVAI/Z5yXX5zNrc1fLrr0Radu7WXbeNU8au89J+x7G+wEAgMkv0GyfOvC9+trrBD/4GtVL8+k1edcVdsaa2HIoZhbG4oSO+ilyU2rPYvxhZh91C9ouL0ZkUAXNd3+tA6A6d1+dMuFqINaE7D/TXreeEev4rPF91obS0KUeF+1FAACASS1wqYe//MXz1/soc04vTbUJA8jCpyPSa1JxNbX+8uf8MdluFXLfL60v9knjrHkS+dFqCZunAQAAJqvA4Q/wMnja9O7ML1Cxcqc3SZcdSLqV0uPhnrQkaLuJLGiPWxbt0oZ+p7e1N3l8ZfH0yOED+6T1hFpktk8AAFAGCH/IrXjvVYXM/noBbu9zPi/bsBm0XT454xCVIadjXe1nulsla9baJSIyFbRHcax2Y4f+xAQ7Qx+VSvgDAAAoL4Q/5NiIXPidPXZNdG2371dKgwo1cWpZ17TL3Vg6ZyIRFTa/WykL16qQlBQ+1OetrZSbf6b2w2yxBW2XD+qzl6rPsorjq3D01rWkiU+GTJie3+IKgOo8zmlxSiuMRQVda8ZMdazfnqKuh7XRpq+H7wyjWbT79JpcdF6rz6f7Ob2v8XIOI3Ixk4l8AAAAkHNZ1fnLNer8TWJOfTqzOpoKFu5acIZTKy7bOoGJGnM+dB29342ug5d9OyfIqO0+dfX8jiFtnT+HV029eD3C0fRnXAzpwuj++2NJez1Sa++5ZNXOHfK8eO1j8POZGw2y9YnNslE6ZMeDzPgJAAAmN3r+kB/W7J7DcvatEdNz5VDrZ4flvdRacOM0eGRYjqn3vHjW3H7oUOGtV4WG937lHSyCtsu1IR0yX9J1DT3GF76vS0GknEf1+rO/vmqFoYxKIejroY6zV7Vzsz83uacxSVbtdD2/q1bZCmfiGpu55urnoRDnEgAAAN7o+Suwsun5AyYEev4AAED5oOcPAGatkE1rJlp1RQAAgOwQ/gCUsR55s6PPWlp532Zp2xsxjzul2doKAAAweRD+AJS16IF9suPFc9LVbTYAAABMUoz5KzDG/AEAAAAoBnr+AAAAAKAMEP4AAAAAoAwQ/pBT+rZWAAAAAKWH8AcAAAAAZYDwBwAAAABlgPAHAAAAAGWA8AcAAAAAZYDwBwAAAABlgPAHAAAAAGWA8AdkZab8ZMXD8u6aiPyk1mwCAAAAJoCK29dvGDHLBdcb6zFLCbpOXGdn1KxNPhzfRKfD333yveqYPHeyVZ4aMJsLwny2HJUtHa/LB2br2IK2y7dlsntNi9xm1jLxxpnH5P5LZqVoSvV8Oqpk6+Y62ThdLfYPyo79A2L9jVwwTdrWTdVLcvzQJXnyI2sxrvmOGRLxLNM5LF39V+Xga4NyOHbVbMsls7/i2teMBG1X6oJdPwAAMkHPHwBMViq0jQ5Fw/Jxr1nMSKU0Tp8qkXvqZNetVWYbMlMlzbdOk10/nCFtzmNzvTxw61TxzNmpcnL9AABIIPwBKJJTcv/Rx+TmpMcz8tyQfk73rKY+Vwq9fpOf7lXa8kvX4/k+aT05bD3XeMs02RqyFjGWUK08sLlOIrdMlUazyTK9Ulaq87jzh/WcSwBAwRH+gAljhtxYbRazErQdvI3jfM5dLQ88EZG2vRHZtanBbMy1q3Kx3yy69Q5Ll1nMSuyqHH77srR7vWdOVMoN+hbHrAVtVwhVsvUbNbJy+rAcP3lZdjzvDtOX5bh1Litl40r7Ns5kOb5+AAC4MOavwDi+iS55zN/vZZn8eNFaua3a/Ap/KCZvXPiN3H/pE3vdUbte2m9ZI+Ehv3FiPmMJZ2yW9jmLJJxJ2IgdlJs/PGUvB23nsmTGevnxnDXq2MwGiUk0dkR2qNf67n98HNxMuXvxd+QHoVD89rZo7KhqO9YYOZ/zkE7tMvnJnLWyzv1ZQ6fl2dP75YVR7Z339xs/mOPrkKJ5W0Qiy82K9En7I/tk33mzmkPO+L2uk32y/W0zTi9UK7vuqZFGuSKtv7wsh+2tcU4b7/Fkzji0YWl/vlf2xcxm5z3dY9OS+LRbME12LZ8qjZmEt+hl2fKHK/Zy0HYu4QW1smm5DmZmgx7TGB2Q3eq1vvsfH1dYpc7TNGkJV8Z787qig6qtx7GH1GtVkDvsHLPbGOctyPUDACAT9PwBAd04JyJtt7Qkgp+mlm9beJ+8u3iZ2TB+GQUOD0Hb2QHoYWlb6A5+mgpXoRZpSzfTaXWDzFdhbLcKUI+7wpgWDq2RthXrZYlZz4UlTRF5V12D76V+VvUiefyWh6W9aabZ4vhEnuo4KG+opdsWjj6OJU3fsYJhVAX41OAZ/HwWXme/fZtmd59rgpbYVenWf6rnOq0NGdIhRgUePQGJDknxADdOGQU4D0Hb2UFuhuxc5w5+mgpy4TFuw5xeKU2hqfZtnK7gpzWGa2Tn5trRY/h0j6nfuapPfo9UOb1+AAC40PNXYBzfRJfoOdJ0b9azF143PUwz5W4VHh6fY3+DTOpZCtrzl8TMjun7Hn6ya6cDVZt1DDF1DK5eTN3DtkgFLevYT8tDR/fLC9YTWvJ50W2fU22fMm2XzNiswuQiazn9jJ2ZnAdDvee71nvq3tYj8nRnokdSf95O9VzYGjvo8T5OW/c5GfMaOYJeB0Xf9vmjFbJylgpSL+6X7QdG/z8wJ8zMkMm9eKm9WMn8Z/tUVOBoP3FZ9n2UMttn0J6/JCpU/XCarPR9Dz/ZtQvfWi87b6lUS8PqvFxW58XpUZsqW79hh1sZ1avm7L9ZVW3bVVvnPITVed6ZxQycYRWkm75cIy3WOMA05yTA9QMAIBP0/AEBRS88Ixs/dIKf9om80NkqWy7Y3+ZuC+Wu969gVADaaYKfDk1Jt68OnJKnOpwJWRbJD0b1qhlDOhiqwOVq+8Gl/fKQ+ZI7t9qnXVZUSJzjhEm1n67gp+nP23jmtFoKybqQx+c5+1O9RnZax6Heb5EKfvq4T2cZ6LJx/pg8+aD6Gbm3NX/BL85nVkjPGSTHML1SNq6bJg8smKCzfaqQer8JfjpwxYOfFrsi+/b3mTGNU6XFb0bTfh0MVVhztY1+dFlazcmcVefTTgdkM9Pnznv0BDDqddHLskO/l2cYduTw+gEAYBD+gEBiciiWMq7P+CD2of3lrGZGTm9xLIiaBvv2tdgRn163T+SpCzpUiYQblnocnw5P7h7BhLODab/pZqd2qazTvYxDR+Vpv17ESx9Yt3d676fICx/at3+G53xHdi+2b/fUQTJtb+NEoULJllHh4qoKOZc8x8G5jZrt85d9suPQoHRJpaxcN0HLPTi3WfretqrOzQn7vDSGvcowqND4mvc4O+cWzcypfZk+Vb6WLkiP4/oBAJAO4Q/IFz3+zSxOFEvUPmvRwTQ1FQZ77HBbzONzQmr1Gmlb87C86/kYq4D8Kbn/5FF1LCG5LRRSufVgmttRy9lViX40INuf1wFQl3uokWb7iQkjbHrlutIFNWc2TT2+z9qQIzF17kyQ3mGVzbiiPmeqbJyoQRoAMKER/gCUrSWhxYlenonYU1tIsSvyjnVrZJXM9psYBWlFTdmM7eY2U+omAgAKjfAH5JrTKzXUI2etDTkWtMcti3ZhFYR85fv4MuH0PuqyCimF4Ec9/CZl0ZPQ6PGN6j0e0uM04+P/MjQBe3ZLWtAetyzaNarX+nJuDS3IbJpX5c2o7oWslFVfpvcPAFA4hD8gkJDcWGMWkyQmIon2vJ8IHQOXxCrn5hMYnBIDmWmQL/uVWkhr7Hbx8YqhtT7lHHyOr9AG3pdDeuIZ3/0cyzLZbc0Ueloe+vCUvND5G2sim/Cc+2R3mtybLMB1KEiR9zwJTZVV1qyXV+WiMxbNKT/gE8DCtzqzaGYiaI/i2O2if9K3WirhWp+etirZutyetbMr6lXvL1vq/e7wKP8QVyVfC9tBNKmcAwAAeUb4AwK6baGuI7cscaugLoUQL3dwWp7tdE8Ic0n+bGbJfHyxu40KU4ud0gpjOSWvWF+6Q/K9RevlbnfwUO9z9wy/Xqss2g28Ls86r70looKQ67m0x1dozsQzZj/1dUgKYrrsxmZpX7NZ7jZb3O5ebI8HfOOMMzmNer/Tevyfvq7ebRKCXgeR5ha7zIPWeNc3Zetce7m0VVklDewC4yocnRx0TXwyLB+bWTIjd7gmSgnp8OOUVhjLFXnLSluVsvEbtdLs/qugawz6ToySRbvYgBx0XntPffKspbrUQ7ycwxU56BRVHwcr9Or6fz+0P8sdAsMpn/fWGOUhAADIJer8FRjHN9GpsGbq0EWHQj6Fv8eoLedBl414tkYXRvdp63Bq0ZnVZKm191yyaucco1kdxWsfE+fFb/+d+oFWiQzf4Dj2+7glahL6GDptzT6a9D7OddC3jH54ymy0xd/P47kkAa9D87aIRJabFemT9kf2yT6rS7j40tb5c3jV1DM16bx0neyTg9N1YfR0df4Up16gWU2WWnvPJat2qTX7Unnto9PGf/+d+oH6WLe7gqMOgPdb9fz86HqDuuyEWQUAoADo+QOCGPpQdnQ8JlvOnFYh0GxTdNH3h/xCy6X9o15v1cQ7+ZgVhjIqhTDwumw8eVDeGEp+bVSHnDOHvYOfllW7T+Qp69iOqtebTRYVeFUo2qJr+I0Rygrlg85WuVkd13MxtW9mm0Ud5xsX1L52pAQ/Hdpct3um0u9n1f8LtUh7uvF/Aa/D4YMdcty6T1IFoxdfKZngN5au/ivSfqhPtngVF//osuw4dEW9xqxruibe85esMJRRKQQ9I+bzl+V4ymvtz3X3NKbIqp1dKkGXrTju3lcVwroyqruXnaie2EXtW3vUzCLqUPtqfZ5Vb9BsAwCgQOj5KzCODwAAAEAx0PMHAAAAAGWA8AcAAAAAZYDwBwAAAABlgPAHAAAAAGWA8AcAAAAAZYDwBwAAAABlgPAHAAAAAGWA8IecosYfAAAAUJoIfwAAAABQBgh/AAAAAFAGCH8AAAAAUAYIfwAAAABQBgh/AAAAAFAGKm5fv2HELBdcb6zHLCU0NYUn9YyRk/34tOZtEYksNyvSJ13d/XJwz8ty+LzZBAAAAKDg6PlDntVJ46x5Enn0Tmk2WwAAAAAUHuEPOXf4F62y5V7zeORVae/WW6fL7LnW0wAAAACKgPCH/Dp/Rt7s6DMrAAAAAIqF8Ie8i3b1myUAAAAAxUL4Q96FG6ebJQAAAADFQvhDgfTLRWb7BAAAAIqG8AcAAAAAZYDwhwKZJ5EnVkszM34CAAAARUH4Q95FD7wirSf6pGvWCok8GpG2vRHZtanBPAsAAACgEAh/KJhG8ycAAACAwiP8If/WrJLI8jqR7nPS+sh+q/j79gM95kkAAAAAhUD4Q97ZpR76pH3Py3L4PKEPAAAAKAbCHwqEUg8AAABAMRH+UCDTZTYzfQIAAABFQ/gDAAAAgDJA+EPeRbv6zRIAAACAYiH8Ie/sCV8AAAAAFBPhD/k1d6FsuqvOrAAAAAAoFsIfcq55W0Ta9prHoxtkpd7YfU7eZLZPAAAAoGgIf8izPuk60SGte45J1GwBAAAAUHgVt6/fMGKWC643Nrrgd1NTWDo7J29MmOzHBwAAAKA00fMHAAAAAGWA8AcAAAAAZYDwBwAAAABlgPAHAAAAAGWA8AcAAAAAZYDwBwAAAABlgPAHAAAAAGWA8AcAAAAAZYDwBwAAAABloOL29RtGzHLB9cZ6zFJCU1NYOjujZm3ymezHF9iXpsjN350i1WY1rveavPerazJoVgF/DdK8aZW0rJgnjbPMJjknrfe+LIfNGgAAQDkj/BVYOYS/hpYqmT/frCQZkaFekYu/uyY9n6b82E2g8Bfo+HKiQuZ8v1JmS7bnJGi7iaV5W0Qiy81KHOEPAADAwW2fKKAKqa6vkPnfrZSb11aYbcan1+Tdf74qx+KPYVE5aoJJc3zIswaZPdNeOv7Mftlyb6t5EPwAAAAchD/kTe9L7jCnHr8elrNv2T1i1V+dInO+ZC1OWJP9+Cak7g45cHT0HQUAAAAg/KGQPh2RniPX5OLE69LLTAGOr7reLGQpaDsAAABMHoz5K7ByGvOne8bOvG82xpnxZ/UjcvHXw3LhU7N5lApZ+LNKqR9rzJ8zVtD3dRl83pfUa74+RernV8THHA71qtf/blh6PF4f6PiC7ufSSrl5tb6d1Kync3ZYjh00f52DtnOpWTpFblitzkv8PUZk6Ow1+Ui91nf/4+MKK9R5miKz3efUapu/MYfWmL+ZHbLjwWPClEoAAACjZdzzV1tbKzctW+b70M8DaamQZQUCFSZ0EPAPfoVTs7ZSVn9XhRZXSNHssXtV2Y3dy9PxFb63Twe5KrnpW+7gp6lzNL9SblKh3PeWVnXeatR5WKiC4PzUczp/itz0/SlSY9bzYladNJlFAAAAJMuq50+HvGXLvmLWEk6d+qO8d+qUWcscPX+Tk/9smIruUTumgtH7Y/3YFaDnb6kKft/S4W5Eet+6Jh8fSfRo1ajnFqjnqtVzqe0CHV8ueigzPSejZNdOB+KbvmrOy0vX5IxzLLqH9Nt6H/XKiJz952FJ/A129t+s6vOm2jrnQZ/Pm6xz7ddjOn72bJ/M7gkAAOAnqzF/OuDpoOcWNPihTNVXyOxvTZGFS4s9G6YKK6udMDIsZ1zBTxt8f1jefUkHlwqpX5TFvpbM8QWkQuoCE/x0CI0HP+3TEbnwq2EzplEdp1+vqArAOhi6A7A+n2fP2svVoVyfmwYJb7pTWnSZh+4+6bQ3AgAAIEXWE764AyDBD+mMmg1TBYL3XromQzpQfavI5RC+pPZB91L1XpOP/Xqh3r9mlZuoXlDheatiSR9fUA3mVk3f21ZVADxmhzrv86JCox4radbcBmOuIJkLc1fLrr0Radu7WXbeNU8au89J+x7G+wEAAPgJNNunDnyvvvY6wQ9ZGpFBFaje/bUOSCo8fHWKNNhPFJ4TcuqnyE0/q5LVno9KyW7YXAkdX0A1IfvPoZj9p6eeEev4rPF91obS0KUeF+1FAAAAeAhc6uEvf8nRbBYoP5+OSK8ph1A9GWvhTfbjKxXnj8l2q5D7fml9sU8aZ82TyI9WS9g8DQAAgGSBwx8woTm9V7rMQdKtmx6PrCZXKYCgPW5ZtKs2PYCenF7TXq+SD8XQI4cP7JPWE2qR2T4BAAB8Ef5QeM54O2VorA7ksQLLp+lvQaxZa5deGMXpnZs/xb9sQVBexxd0P30E7VEcq93gabOfvuclMVHO0EelEv4AAACQCcIfCkgFH118XJc8UGtDb13znBjEMeSaVTIemBJxkCIAABLbSURBVFSwakgJJc7r5rckv25Oi1OywIszcYl6/+9WykL9GUnvqz5nrdrXn1VmMW4v/fEF2083FVitGTPVPn97SvJ50OfFd4bRLNp9ek0uOq/V58X9nN7XeDmHEbl4JMcTuAAAACCvsqrzl2vU+Zuc0tbBc2RQcy5Rby6FvlXzoOvHNl6vb7Sht4blYkgXHPeun+f7GQ5dt+93WdT5c3gd3zj2M86pF2hWk6XW3nPJqp075Hnx2kenjf/+O+daH+u7OQ+ODbL1ic2yUTpkx4PM+AkAAOCFnj8U1JAOUy+p8JbBOLrBI8Py3lvmNkSHbn/GLDve1yUW1OvMJCsWXWvu11etkJGuxID+jGMqrFw8O/pzelVIee9XaYKYh7THN479jPtUzyY6LL2qnZv9uWl6UrNqp+v5XbXKVjgT19jUvqvg/Z6u4ZfFOQEAAEBpoOevwMqh5w8oPHr+AAAAxkLPH4DJY9YK2bRmolVXBAAAKAzCH4BJoEfe7Oizllbet1na9kbM405ptrYCAACA8AdgUoge2Cc7XjwnXd1mAwAAAJIw5q/AGPMHAAAAoBjo+QMAAACAMkD4AwAAAIAyQPhDTunbWgEAAACUHsIfAAAAAJQBwh8AAAAAlAHCHwAAAACUAcIfAAAAAJQBwh8AAAAAlAHCHwAAAACUAcIfkJWZ8pMVD8u7ayLyk1qzCQAAAJgAKm5fv2HELBdcb6zHLCXoOnGdnVGzNvlwfBOdDn/3yfeqY/LcyVZ5asBsLgjz2XJUtnS8Lh+YrWML2i7flsnuNS1ym1nLxBtnHpP7L5mVoinV8+mokq2b62TjdLXYPyg79g+I9TdywTRpWzdVL8nxQ5fkyY+sxbjmO2ZIxLNM57B09V+Vg68NyuHYVbMtl8z+imtfMxK0XakLdv0AAMgEPX8AMFmp0DY6FA3Lx71mMSOV0jh9qkTuqZNdt1aZbQhGB7sZ0vZD9bjDDnJp5eT6AQCQQPgDUCSn5P6jj8nNSY9n5Lkh/ZzuWU19rhR6/SY/3au05Zeux/N90npy2Hqu8ZZpsjVkLSKA5jtMjx4AAEVC+AMmjBlyY7VZzErQdvA2jvM5d7U88ERE2vZGZNemBrMx167KxX6z6NY7LF1mMSuxq3L47cvS7vWeOVEpNwQKREHbFUf41nrrttquk4Ny3GzzluPrBwCAC2P+Cozjm+iSx/z9XpbJjxetlduqTXfIUEzeuPAbuf/SJ/a6o3a9tN+yRsJDfuPEfMYSztgs7XMWSTiTsBE7KDd/eMpeDtrOZcmM9fLjOWvUsZkNEpNo7IjsUK/13f/4OLiZcvfi78gPQiFxhpFFY0dV27HGyPmch3Rql8lP5qyVde7PGjotz57eLy+Mau+8v9/4wRxfhxTN2yISWW5WpE/aH9kn+86b1Rxyxu91neyT7W+bcXqhWtl1T400yhVp/eVlOWxvjXPaeI8nc8ahDUv7872yL2Y2O+/pHpuWxKfdgmmya/lUacwkvEUvy5Y/XLGXg7ZzCS+olU3La2Rl/D1UqIoOyG71Wt/9j48rrFLnaZq0hCvVebR1RQdV2zHGHDrj9fQ+Ha+yz5nP/mlBrh8AAJmg5w8I6MY5EWm7pSUR/DS1fNvC++TdxcvMhvHLKHB4CNrODkAPS9tCd/DTVLgKtUhbuplOqxtkvgpju1WAetwVxrRwaI20rVgvS8x6Lixpisi76hp8L/WzqhfJ47c8LO1NM80WxyfyVMdBeUMt3bZw9HEsafqOFQyjKsCnBs/g57PwOvvt2zS7+1wTtMSuSrf+Uz3XaW3IUMgOPPp2RR2S4gFunDIKcB6CtnPG2+1c5w5+mgpy4Wmy84f1/re0Tq+UptBUeUAFwYgr+GmN4RrZubk26ecviQ5t1kQtKrT5hL1UOb1+AAC40PNXYBzfRJfoOdJ0b9azF143PUwz5W4VHh6fY3+DTOpZCtrzl8TMjun7Hn6ya6cDVZt1DDF1DK5eTN3DtkgFLevYT8tDR/fLC9YTWvJ50W2fU22fMm2XzNiswuQiazn9jJ2ZnAdDvee71nvq3tYj8nRnokdSf95O9VzYGjvo8T5OW/c5GfMaOYJeB0Xf9vmjFbJylgpSL+6X7QdG/z8wJ0xPU3IvXmovVjL/2T4VFTjaT1yWfR+lzPYZtOcviQpVP5wmK33fw0927fRtlztvqVRLw+q8XFbnxelRmypbv2GHWyugJfWqOftvVlXbdtXWOQ9hdZ53pp2B0+yj+32dc5am5y/I9QMAIBP0/AEBRS88Ixs/dIKf9om80NkqWy7Y33BvC+Wu969gVADaaYKfDk1Jt68OnJKnOpwJWRbJD0b1qhlDOhiqwOVq+8Gl/fKQ+eI/t9qnXVZUSJzjhEm1n67gp+nP23jmtFoKybqQx+c5+1O9RnZax6Heb5EKfvq4T2cZ6LJx/pg8+aD6Gbm3NX/BL85nVsh+rxkkxzC9UjaumyYPLJigs32qwHW/CX46hMaDnxa7Ivv295kxjVOlxW9G034d4FSAdbWNfnRZWs3JnFWX2k6HNR389GcGuU0zh9cPAACD8AcEEpNDsZRxfcYHsQ/tL2c1M3J6i2NB1DTYt6/Fjvj0un0iT13QoUok3LDU4/h0eHL3CCacHczR/YJa7VJZp3sZh47K0369iJc+sG7v9N5PkRc+tG//DM/5juxebN/uqYNk2t7GiUKFki06qCSd8qsq5Fzy720yRs32+cs+2XFoULqkUlaum6DlHurNrZq+t62qc3PCPi+N4aket3CqAPead4BzbtFM5czsefyQX49nGuO4fgAApEP4A/JFj38zixPFErXPWnQwTU2FwR473Bbz+JyQWr1G2tY8LO96PsYqIH9K7j95VB1LSG4LhVRuPZjmdtRydlWiHw3I9ud1ANTlHmqk2X5iwgibXrkun6BmcWbT1OP7rA3BJWb27PO4FRQAgOIh/AEoW0tCixO9PBOxp7aQYlfkHevWyCqZ7TcxCpSpssm6xVQH5Tq7oLv7Yc3YqYSnmW3TJlyYBgBMXIQ/INecXqmhHjlrbcixoD1uWbQLqyDkK9/Hlwmn91GXVUgpBD/q4Tcpi56ERo9vVO/xkB6nGR//l6EJ2LNb0oL2uGXRrlG91pdzayizaQIAJjHCHxBISG6sMYtJEhORRHveT4SOgUtilXPzCQxOiYHMNMiX/UotpDV2u/h4xdBan3IOPsdXaAPvyyE98Yzvfo5lmey2Zgo9LQ99eEpe6PyNNZFNeM59sjtN7k0W4DoUpMh7noSmyipr1surctEZi+aUH/AJYOFbnVk0MxG0R3HsdtE/XbFv6QzX+pRzqJKty+1ZO7uiXvX+snFFnkwaM5nyMLfPWjX/rG3U7AMAFA7hDwjotoW6jtyyxK2CuhRCvNzBaXm20z0hzCX5s5kl8/HF7jYqTC12SiuM5ZS8Yn3pDsn3Fq2Xu93BQ73P3TP8eq2yaDfwujzrvPaWiApCrufSHl+hORPPmP3U1yEpiOmyG5ulfc1mudtscbt7sT0e8I0zzuQ06v1O6/F/+rp6t0kIeh1EmlvsMg9a413flK1z7eXSVmWVNLALjOtxbIOusDIsH5tZMiN3uCZKCakwdYdTWmEsV+QtK21VysZv1Eqz+6+CrjHoO8NoFu1iA3LQee099cmzlupSD/FyDlfkoFNUHQCASYg6fwXG8U10KqyZOnTRoZBP4e8xast50GUjnq3RhdF92jqcWnRmNVlq7T2XrNo5x2hWR/Hax8R58dt/p36gVSLDNziO/T5uiZqEPoZOW7OPJr2Pcx30LaMfnjIbbfH383guScDr0LwtIpHlZkX6pP2RfbLP6hIuvrR1/hxeNfVMTTovesKTg9N1YfR0df4Up/adWU2WWnvPJat2qTX7Unnto9PGf/+d+oH6WLdnEhwzqfMHAECe0PMHBDH0oezoeEy2nDmtQqDZpuii7w/5hZZL+0e93qqJd/IxKwxlVAph4HXZePKgvDGU/NqoDjlnDnsHPy2rdp/IU9axHVWvN5ssKvCqULRF1/AbI5QVygedrXKzOq7nYmrfzDaLOs43Lqh97UgJfjq0uW73TKXfz6r/F2qR9nTj/wJeh8MHO+S4dZ+kCkYvvlIywW8sXf1XpP1Qn2zxKi7+0WXZceiKeo1Z13RNvOcvWWHIrxRCkpieTfSyHE95rf257p7GFFm1s0sl6LIVx937qkJflwpiO0aVVgAAYPKh56/AOD4AAAAAxUDPHwAAAACUAcIfAAAAAJQBwh8AAAAAlAHCHwAAAACUAcIfAAAAAJQBwh8AAAAAlAHCHwAAAACUAcIfcooafwAAAEBpIvwBAAAAQBkg/AEAAABAGSD8AQAAAEAZIPwBAAAAQBkg/AEAAABAGai4ff2GEbNccL2xHrOU0NQUntQzRk7249Oat0UkstysSJ90dffLwT0vy+HzZhMAAACAgqPnD3lWJ42z5knk0Tul2WwBAAAAUHiEP+Tc4V+0ypZ7zeORV6W9W2+dLrPnWk8DAAAAKALCH/Lr/Bl5s6PPrAAAAAAoFsIf8i7a1W+WAAAAABQL4Q95F26cbpYAAAAAFAvhDwXSLxeZ7RMAAAAoGsIfAAAAAJQBwh8KZJ5Enlgtzcz4CQAAABQF4Q95Fz3wirSe6JOuWSsk8mhE2vZGZNemBvMsAAAAgEIg/KFgGs2fAAAAAAqP8If8W7NKIsvrRLrPSesj+63i79sP9JgnAQAAABQC4Q95Z5d66JP2PS/L4fOEPgAAAKAYCH8oEEo9AAAAAMVE+EOBTJfZzPQJAAAAFA3hDwAAAADKAOEPeRft6jdLAAAAAIqF8Ie8syd8AQAAAFBMhD/k19yFsumuOrMCAAAAoFgIf8i55m0RadtrHo9ukJV6Y/c5eZPZPgEAAICiIfwhz/qk60SHtO45JlGzBQAAAEDhVdy+fsOIWS643tjogt9NTWHp7Jy8MWGyHx8AAACA0kTPHwAAAACUAcIfAAAAAJQBwh8AAAAAlAHCX4Ex3g8AAABAMRD+AAAAAKAMEP4AAAAAoAwQ/gAAAACgDBD+AAAAAKAMEP4AAAAAoAxU3L5+w4hZLrjeWI9ZSmhqCk/6GTGbt0UkstysSJ90dffLwT0vy+HzZhMAAAAA5Bg9f0VXJ42z5knk0Tul2WwBAAAAgFyj56/Y5i6UrT/aIBtn9Un7I/tkH71/AAAAAPKAnr9iO39G3uzoMysAAAAAkB+EvxIQ7eo3SwAAAACQH4S/EhBunG6WAAAAACA/CH8lo18uMt4PAAAAQJ4Q/gAAAACgDBD+SsY8iTyxWprnmlUAAAAAyKHK8Lwb/9EsF9zQ0KBZSrj++uny2WflNQFK//ufyKdzG2X2ghtl/bpV8h9aVsnXv3BOfv/+6PMDAAAAAEHQ81dCGs2fAAAAAJBrhL9SsGaVRJbXiXSfk9ZH9suWe1tl+4HRBfABAAAAICjCXwmwSz30Sfuel+XweUIfAAAAgNwj/JUMSj0AAAAAyB/CX8mYLrOZ6RMAAABAnhD+AAAAAKAMEP5KQLSrvEpbAAAAACg8wl8JsCd8AQAAAID8IfwV29yFsumuOrMCAAAAAPlRcfv6DSNmueB6Y6PLGjQ1haWzM2rWJqfmbRGJLDcrju4O2fHgMZncRw4AAACgWOj5K7o+6TrRIa17CH4AAAAA8oeePwAAAAAoA/T8AQAAAEAZIPwBAAAAQBkg/AEAAABAGSi58Md4PwAAAADIPXr+AAAAAKAMEP4AAAAAoAwQ/gAAAACgDBD+AAAAAKAMEP4AAAAAoAxU3L5+w4hZLrjeWI9ZSta8LSKR5WZF+qSru18O7nlZDp83mwAAAAAAWZkAPX910jhrnkQevVOazRYAAAAAQHZKsucvydyFsvVHG2TjrD5pf2Sf7KP3DwAAAACyVvo9f+fPyJsdfWYFAAAAABDEhJjwJdrVb5YAAAAAAEFMiPAXbpxulgAAAAAAQUygUg/9cpHxfgAAAAAQyAQKfwAAAACAoCZQ+JsnkSdWS/NcswoAAAAAyFjpl3qwNEjztm9Ky/I6aTRbul7cL9sPZNoeAAAAAMrbhLrt0wl+AAAAAIDsTIyevzV3Stt980S6z0nrnnfk8Hl6/AAAAAAgGxOo1EOftO95meAHAAAAAAFQ6gEAAAAAysAECn/TZTYzfQIAAABAIBNqwhcAAAAAQDATIvxFu/rNEgAAAAAgiAk04QsAAAAAIKjSD39zF8qmu+rMCgAAAAAgiJKs89e8LSKR5WbF0d0hOx48JlGzCgAAAADI3AS47bNPuk50SOsegh8AAAAABFWSPX8AAAAAgNyi1AMAAAAAlAHCHwAAAACUAcIfAAAAAJQBwh8AAAAAlAHCHwAAAACUAcIfAAAAAJQBwh8AAAAAlAHCHwAAAACUAcIfAAAAAJQBwh8AAAAAlAHCHwAAAACUAcIfAAAAAEx6Iv8/7rdAGq8cb7QAAAAASUVORK5CYII=;" vertex="1" parent="1">
          <mxGeometry x="1050" y="230" width="895" height="1062" as="geometry" />
        </mxCell>
        <mxCell id="_r4hAPUsHNc9goj0nPAU-2" value="" style="rounded=0;whiteSpace=wrap;html=1;fillColor=#dae8fc;strokeColor=#6c8ebf;" vertex="1" parent="1">
          <mxGeometry x="290" y="690" width="560" height="160" as="geometry" />
        </mxCell>
        <mxCell id="_r4hAPUsHNc9goj0nPAU-3" value="&lt;ul&gt;&lt;li&gt;Qt 6&lt;/li&gt;&lt;li&gt;QMake&lt;/li&gt;&lt;/ul&gt;" style="text;html=1;strokeColor=none;fillColor=none;align=left;verticalAlign=middle;whiteSpace=wrap;rounded=0;fontSize=27;" vertex="1" parent="1">
          <mxGeometry x="330" y="735" width="330" height="70" as="geometry" />
        </mxCell>
        <mxCell id="_r4hAPUsHNc9goj0nPAU-4" value="" style="shape=image;verticalLabelPosition=bottom;labelBackgroundColor=default;verticalAlign=top;aspect=fixed;imageAspect=0;image=data:image/png,iVBORw0KGgoAAAANSUhEUgAABDQAAAGKCAYAAADzFhHYAAAAAXNSR0IArs4c6QAAAARnQU1BAACxjwv8YQUAAAAJcEhZcwAADsMAAA7DAcdvqGQAAJs7SURBVHhe7d0JYFTVvT/wbwj7IgRRIFizKYqKkUQsFqQ+SrAptuCzCNha7IKmgSdtWlrtEgptlZa+vOpDxNJF2r4S4bVALeZJqP8WoaIIGK0I1IRFDSKBIIpsWf7nd+65M3cms2cms+T7aY/3nnOXuXPnTpjzu+ecm3bzv01oBRERERERERFREulipkRERERERERESYMBDSIiIiIiIiJKOgxoEBEREREREVHSYUCDiIiIiIiIiJIOAxpERERERERElHQY0CAiIiIiIiKipMOABhERERERERElHQY0iIiIiIiIiCjpMKBBREREREREREmHAQ0iIiIiIiIiSjppN//bhFYzT0RERERKayt/HhERESU6ttAgIiKilCRBiUgTERERJT4GNIiIiCglMChBRETUuTCgQUREREmNAQwiIqLOiQENIiIiSirOVhgMZBAREXVeDGgQERFRwvIOXjCAQURERDY+5YSIiIgSEoMXRETJg3+zKR4Y0CAiIqKEwx/GFE+8/oiIkkNaQeH1/ItNRERECY0VTCIiosik8r+hbKFBRERECSEaP7gY+CAiIuo8GNAgIiKiuGtPIIJBDCKKNv5dIUoODGgQERFR3DCQkTr4eRARUUdjQIOIiIg6XCwDGaxYExG58W8ipbJOFdAYde3V6Nmzh8m1debMWez5Vx1Onz5tSoioPXJzc1FXV2dy0Rfr/RNRbMQqmMEf7Z0DP2ciIrJFHNDo0aMHzp49a3LJ4cYbCrDwhw+aXFsLvv8ddO3aFS/tepVBDaIoYECDiLxFWhltTyCDFWAiIurMUvnfwfTsnJwfmPmQ9erVC5lDM9Hc0tyhQY2BAwfi4osuQv/+/ZGe3gWnT58xS0LzkWFD8W8TPmFybf3t//0V95aU4p36N3G04TiamprMEiKKREZGBhobG02uLfnjmpaWZnJtBVsebP9ElNwC/QAL9uMslX+8Uezx+iEiSg4RBTSkot8lvQsyBmag6fx5nDt33iyJnYHqtbp3744jR97F+++/j379LlD5bmEFNYIFNF7etQNbntuMlpYWXHhhBuoPHzFLiMjbT366BJuqq03Ot0ABB/meXXTxxfhAfZ+7dOliSt2am5v18lMffOA3qMGABlFyCbWSGGkgI9kqoaw0E4WP3xsicmpbiwjRsWPHVEXkA1x00cXo3bu3KY2dvn37oaHhmA6mSGpoaNBl0fT1b3xLd0mR1K1rV1Pa0Qrx5f+6H7cOM1kPjmXDPoXv+F2PKLYkmNHUdF5PIyE/Ri4ePBhf/3oZRo4c2aY1lAQzpFyWy3r88ULUeQT6vvtbJuW+ltnliZooMr7OJVPnSUREThEHNIQEFWSsiYsvHqzH1IilruldPSo9Mi9lndbbT+PBry/GX942eaIOYgczRHuCGocOHsTjyx/D9BkzkJ9/nev7LcGMEVeN0OW//uUv9XpElPxCqYj4W8dfRcZXuV3ma/1wOPfDlFiJOjdf1wQTE1PnTe0KaMgOjhw5gnNnz2LIkKHo1q27WUJEqcgZzLBFEtSQLiQ9e/bE66+/jhUrfoE7pt+hgxrnzp3DiKuuwuc+93k88Zvf4JVXa/R6gcbRIKLEJ78XgvG3TqjlkneW2flIE4XP13lkYop26jjyWkzhJF+fFxNTrFNUHtsq/d8zMzP1tL6+3nWnNRK5Oblmzre6/e4nGsi6znwwwZ5y4iRPPHn+xZ0mFyLpBvLNibhYzb67aROOTLwWR34mrSikq0gRjvz+FVz7eWv5q78vw/8NuR/zJ0pO1v8ZHtxQr+bMuno7lQ22T8c8XgVGjnwXv//6r/GS7JQoyhqPHzdzbWUMHGjm3II9hUTG0fjwww9x5YgrMXv2PfjH1q342NixOpjx6quvoHfvPj7H17DxKSdEiU9+bATjbx1f5c6yYMtt/vZPySr2nycvGeqI6yzV8HtD8dCuFhrxFk4wI/YK8eVvTsSR35fha18vw0pci5FmieViTJwErFTLvvb7f2Lk5yswC7/V60r+4omfxPVmTbdg+3S6GIOPyP4YzKDYkaCFvxQJCVbIGDy7X9utBxgdd9NN2Pz3v+Pll18OGswgosQXSiDB3zre5ZJ3loWy3Eotkgs7ubdn6ozJ1zURi+TrtZkSJalPiCmspP7LlKDJ9zWeGqndtQVpCj5kyBCkp3fF4cPvtKt1hre3699G/WFptZAEhg3G4Hc34f92WNm3N1RLgwmHd7Hpt09DD3mxo0YtexevvGzem85fjCHeA3wG3aeTY39EMSJdS/ylSMkfouuvvx6fmDgRf920CTeNH4+P3fgx3XqDiJKXfLeD8beOs1zmvdfzt9yet/L2vJSHnzqGvFDsk/O8pEZS7ypFkvpvyiTfnxVT50rqSmBKyKT+m7KpXQENCWYMHjwY3bv3wDvvHMb58+fMkuiRLwcRJYZ7vvJlPWaGd5LySFgDgF6Fz33+81j5xBNYs2YNfrliBe6YMd1joFAiSi6h/Nvtax37R7E/3st9z7t/WFvsfCImOe7Yp44jLxb75PtcJmtS7yhFUseRF0uN5PuaYGKKRVJXXIqmdgU05JGtvXr1wrvvHsHZs2dNafRIU/SOeCRsVLx9BEcunohPFlrZYZOLAnQPCVEs9knUDtK1pLSkxOQsko+ky4m0wLAGAP2ca8yMgWo/e/bscQwUmq+DHkSUPOSHUyS8t7N/hNl8Lben1rz7R5uz3Mpby8NJ7u2ZQk/qzHVAUv+NefL9/pgSI6lPqANSS0trzJPv98fExBROijigceGFF6JP3944evRdPahfLGQMyNApOezAr8zYGD//Lxkf45UA3UNCFYt9ErWPM6gRaTBD/vhcdPHF+Pxdd+E3v/q1awDQ9PR0HcTc8/oeXS6Pbr148GC9PhElvlC/q97rBdvOuVzm7by7XMrsqXu5Oy/rhpc6hrxQ7JN9TlInqXcV8+TrdZkSI7V0SFJXQcyT7/fHxMQUToroKSfSKmPokKFoONaAkydPmtLoCOcpJ+GK+VNOPHg9rYQoxcgTT4IFM/w9hUT++Jw5cwb9B/TH8WPHdRDDOQCo/fSTgRcOxHsn3vP76FY+5YQoccj3OhTe6/nazllmz/sqU3Nq3jm1OfPeyxJJxxxY4r7/RMbPprPz9beJiBJPenZOzg/MfMikX/uHpz+MScuMxhONAVN7fGTYUPzbhE+YXGB/+39/xVtvHza5SGSi4JN5OPWPLdj3vikiSiES2AwmIyMDjY1tv7cSnOjatSvOnzuPHj16tHmaiSzv1q2bXi5TX8EM4W//RNSxovnD33fgwi1wMCNQWeeVchUzeT8xTj6KYpIoAr5OZCxSB+iYV+lI8o6YmDo2RdRCI1mNuvYqfac3FHL3eNcru00uEmyhQRTrFhRsoUEUf+FUlr3XDZT3Ne89VXNq3sz5XcaAhvucUMg66Jx13CfDayBsKXTK+OlTx4jPldapAhpEREQUPeFUlH2t6ywLNu9vqubUvDWVR8j36tUTXbt2Q/du3Vytv9QaeppwEvSwEl3Cfp6dHT+WsPFaJmo/BjSIiIgobM6gQyi813fmg837m6o5NW9NZSyePn364o1D9Xjv/Q/w3gcf4vSZ6D+BjYiISFWjzdTJ/rcpEN/dqP3z3me426e+dj22lYiIiCgYZ5AiVIGCGPZUiqS8f/8BOH2+GX97sQZ797+JdxoaGcwgIqIOZP/b5I8EItobzBDBXqfzYUCDiIiI4sYZ7GgbvLA4gxnWrDuY0adPb5z88DReqNmDU6fP6LWIiIg6jue/WdERi32mprSbJ0xMyrN1/FiDmSMiIqJE4B2IaMsOSLg5t/E3LxvpnD01++nWtSsGDxmCba/sxYdskUFERDHVUd1MRKD9stuJE1toEBERUQdo++PMO2hh8w5sWDl76l61T98+OFj/LoMZREQUQ4G6iwQLLkQafHBuZ7++nciJAQ0iIiJqN4/ghB8hrKI4VnJuoGelZYYpU9Pu3brj5KkPrTwREVHUhBNA8F4nnG0DicY+Ul/SBTT+Nn6TTkRERJQsrC4iTt6tM+ycR7GZupY7VpLZ7j264/0POW4GERFFS6RBBHs7BiA6WtKNoWEHM65de52eEhERUfz5b6FhlXsEKrzWdecdgQ81Y7a0yrzzapqdlY3qbS/r0lB1Te+Cnt27olt6Orp1TedPT6I4alFf5qbmFpxvbsaZc016nih++C9CMmJAg4iIiNotUEDDe5H/1hlmrk2Zex/2OjLNzs7Cpm01Oh9Mmvqd2rtHN5V6oGvXdFPGH69E8WZ/p5ubW/STij48d971fSfqWPw3IRlxDA0iIiJqF1cgIgLuLX3M2fu1C0w+/NdrRf/ePXFBn97o1q2rDmQwmEGUGOzvowQaL+jbGwP69HJ/94k6DP9NSFYMaBAREVFK69OjO3r36skgBlGCk+9or5490Kdnd1NC1JkwkBcJBjSIiIgoZXXtkoZ+cseXiJKGfGflu0vUufCajwQDGkRERJSyenbvhi5d+HOHKJnId1a+u0REwfBfeCIiIkpNra2uAUCJKLno7y7H0qCEIdeinSiRMKARU4Mw86FSVD4xEzOzTFF7ZI1BxROyP6/00Bhkm1WI3KJ8/RERJaHu3bqaOSJKJtZ3l5VH6igdca05gyJ2ovZiQINIM5V/BoeiJNLzyc+BiKKpFV3T2UKDKBnxu0uJg4GHRJYQAY3Bg0diwvRSlJeXo3z6SFNKbRzchrK7l2GGK23CDrOIiIiIInP7R9/Hzp8ewBuP7Me/Ht6PfT8/gL0/P4hnyw9j2MBmsxYREaU279YTdnJqz8Cdsq13ovaKa0Bj5PRyHcS4997bMO6KQaaUiIiIqOP8R3Ej+vVoRWtrF/XTNV0lNW1NR2ZGC1bOOYZ+vVrMmkRE1HkxAJGI4hrQePdva7F2rUlbGkwpUTwMxCVDzSxFQaTnk58DEXU8CVzoIIZKLa1pOphhzXdRy1qx7UcNeO0/j+KfP2vAqz87plIjXlnSiKcfeB+fvv682QtR5/Hlu7+Az9z6KZPzdMmwYfjRD75vcolp+u1TzBx1Lt6tI+wUilDW89W6QxLFUtrNEyYmxlkeOR3lt10B7F2LRU++agrb+tv4TXp67drr9NRp/LxSlI7aj2V3b8eweUWYMipDlTZix4pVWLJ1EGa2KdObecgeOwbTbi1AoatS1Yj6XTvwyMP7cMCUtDVIbTca992ag0yzXf2unVi3bhswVY6pEesXrMKqg9YyPbjnwgJkHt6J+x/Y5mO/Mo7AHZgy1Gu7NoZj/hMTUeh3Pz5kDcfMqYUYrc5DpimqP7wf65ZXYbPf12kP+9wMUOdGzr3wc07bfV4GYfy00Zha4P4cXK+1Tr2W9/pji1Hh+MwC2rUJM9TxegvneonG9Rkez/P1vLpeppUUqmM1n8Nh9Tp/qVav4xVMjPRziPR8dvDn4Dp+2O9PXTfq3E91fifU9/eRh/19p8K8zog6gdaATyKQlg9m1nCu7553r+cqU1M95zW1l2dnZ2HTtho971NrCzIvGmgy/u17+JDap7TKkJxM09TrqB+v6b3Qc9gt6DF4DNAigYsmoPmc2q9Kkm89j/dOvIer7nhWNkxJv/nFY5g0cQKG5arfaESGBDMeXLQA3ylfiD//5WlTagUz1q35A/5v4yZ87wc/NKWRqz96XNVWon//dd8u9ato1I0mR51HoKCE9e+Kb6EGPYT3fsLZliKRgoOCDsBUqazoiqHIQOGtY1Rl0atsdjHGm5xFKjmlWDzbWSkSqpIzaiIW+31ShFU5Wjzbs0KWOaoApQtnYuoQU5AAsqfNROXCifo82BU3kTk0Rx1rKSqmRbnbT9ZwzHedG/vci2DnNBLWa5VO9q4Ym9dSn8V8H+8vpEq0T5FeL5Fen+1zydSZ6hxMdAczhJovnH0HKucNNwXtF+n57PjPQVHv/1JzjZZ6fyfU93exz4FJI7vOiCix9S5cjr4fW4V+H/sd+t34K1ww5jH0/+gj6F+4CD0uug44fwxoUhWr8yo1vQc0fwC0nFLpQ/TvG58fq5ue/rMONiQyOT45TttHR1+Pl/7xd313n5KbBDEkmCFBDbulRrSDGUTRFyxo4S+Foz3bUiRSMKChKhb6zrEMmrka6w+roqEFqrLoVYYcfHSsTC3Z04owRVdQ5O74avfAmws2mfUzMGVh20rmeKmI+tjufrXdjsNyLHq1+BtbjMWTpTKrjnPDJtxvvz851hX7Ua+WZE4uim6AQVeg1ezh/VjvPKfqM1i2QV4zA5dcYq3dXtnTpOWBmlGvtUx/zu7X0u9PfRZtPoqtVY71zACr0irBVeZIXq0CIr1eIr0+2ycDharCLq0O3OdGPoNGa7GqiM+PxmtFej7j8jkICeTJNarOvfO7q64XTX0u07zOS0TXGVEKk5YSztYWbbVd5rG+Y77tbrxaZ9h581+9gZltrzScA86+qdJbKr0NnFP/Kp5Tf0TOvQs0nQRazqrXklYZdusMldfJ5ONgxJWJ32Li8svy0LNnT5MDrrn6KgwdkkB3eqhdnEENCVIxmEHJIUr/cFDCSMGABlC/odo0g2/A8zutSpuz7O13dJFb1hjcZyr70oTeown+wX1Y9YC7kjnVefdVbTd1lMy03e6A2m6Ja7t4G4SZt+boOd2VYY1nM/wDqkJZpitxGRh9Q3TuLuuKn8zobgtVWOXRraEBm9eo11ywOgrdKjzV79zu1XWmwXp/DyxD2ZoojdMS6fVihH19RkH9htUoe3ib49zIZ7AK95ugRuH10Wul0WHa+TloEpi4e5XH9SnXy7Jd1vzQTN/bdch1RkQdp+W0FZzQyQQqvKe6q4l0M5EyO8myM2YnoZGKn7RSeLtuL/658wXdakFaMkje5szL3e8tz27UeUmSt5dJVxBZJuaXzXPt943XXvZovSFlT/7+Cdd+ZF7Wl/UkH0pLDxkTwV5fthfyXiRvt7hw5uW1crKzdLLLFpV/V68nU/s1ZSrnQdaRqRyXXS5l9utKssdl8HVOKD4kqPFfjzyqP9NX/7mbwQxKEgxqpJKUDGgcrm9boXCWHao3d6Ztl2RYzc137XCPB+ChAav+Yt21zSy4zN0MPeh2CSLrMozWd5V3Yo2/AMLWWn1n3OP9RWwQbiwwFc3lAcb2OBi9it+BF92tTOZPGw71+yl2Ir1ejLCvz3ZrxPYXfZ9r+7xhyMAofO4drJ2fg3V9VmGzyTn5+ww69Dojoo7jClCo5AxayLyeSv4s0HzGmrqSyYdIghcPzC/D4XeO4KM3TcBru1/XrRYC+VbZ19CzZw89hoUkqUDa41ls3PQsxk2YpPf7tbmlukIp+338V7/RwQ7nwIx5uTn4xre/Y23zsRsx5dbJuHnSZGz5x/N63WDyrx2p1//juvV6ezuI4Y8c1/4DB3WS4/3VE79F+aIf62Uy/eI9X9XHJ6+98vd/0Me9/aWd+n3I+7ENy8zUr3vg4CFM/cytuszXOaH4kG4mX73ny/q6Gn19QUIGl2QAUBkzw5mGZQ5tU/bfP3vQbEFEySQlAxrhys4coKf19cf11Ke3Gq2Kn/S71wUhbpcI7Irf0AIsfqIUlT7TRKtFRVTYT6o4gbc7KtBzcBvKFuzU3XwKJ8tYBuZ9PSRjGkS34hnp9ZLQkuU4HeLyOXTgdUZEHUgP8OkMXJhghgQw9NS5zA5mSJIylUL0uZl3oFevXvj0v9+Bt95+G9/49ndxtCFwcP9fb9TqbhpP/Wm138piyewv66kECWS/Syoe1oGEMTeM1uVCgh0vbH9JryPW/2WDXlcqosIZRPDFPub7yr6l8xLUaK+bx9+kj1OOV/ZtH5ucJ5v9nt58621kDLD+7odyTij2nGNmyOfkPaZGonjyj+v1AKDO9Hb94TZl//HN75gtqHNgK41UwYAGpQ5V2VzygIyfYI3RseOwqsyqiqxd8ayYpyqcZlWiiPE6I0o9dosMHaSwW2ioed1CQ6YqebTOkHk7qXyI+vXtZ+YsUlEP1rpAKop2y4bHHvkvV5eM9jp+3LMlWrCWIokkVueEQudrAFDnmBoMNFFyYFAjFTCg4ZCZGeDRbnYrB1V5OaQL3AJulwjsu9TyyEvXIIZ+UqiPfw3JAAyLxx3rg9YYHUseWIUyeU96gFb1OY2aiPuCPYEijDv5kV4vCSXWxxlpy4hk+Bzac50RUWKxW1rYXUxcyQ5eqKkd9JDghi53rBOitX9+Sk9lDAqpEEqXCz3uRL3+V1rPS0sJabrvJN01vvofX0fjiRO46sorTSnQu3cvPV2+4ld6KuNOyH6lgi9jVzyz6a+6PBqcY14Iec1/vrZbz0trDXndmXd8VuedpGuIt4EDpVsq8LfNz+njlOOV7WXfp0+fxv+sWq2XB+LvnFDHKJn9JZ8DgNpBjc/NcLeyIYqfUJ42wqBGsmNAQ3GNIzCq0P+jWc2gmvU733BV+N3b5fl+ikKW3fXCy8Hj0GMV+qm0uZ/cEKJglb+Db2C7vKDf9xdt+/CCHlQxA1NKfD360sga5LmsHecle2yAu+IyQKs9lkLQ4FPwIEyk10v8+HuajJ/jjOr1GWlQKzE/h+hdZ0SUSN5TlWIdnPDoTuInea3z5pHTZi/BSWXv50uX4eqrRuCF557VY0JIUGD5il/rrhcysOKjD/+nnrfJY09l4EtZ/513juD7C3+ky2XsCwkkyOCY0pVE9iuBEFlv1ufv1GNdSFeOaJLjuGnsjfjNb3+vX1OSPQbH3zZu0N1CnCRgMaB/f72deKb6r/q9yTgZEryQyrB0ebn3y1/Uxz3ymqvw0JIKvd9A/J0T6jjy2fkbAFSu8+mfv9vkiBIFH6GaqhjQEAe3YZ1dAV84E/PHOu6uZg3HzIfsR7PuxzrnEwzsQIE8/vGhYox3VKqyxxajQh4JafKejuMteztn83RVwZ85b6Z5vGoo3PuZKv33dZmijtl5LO7BEc37a9PXfxDGT1PH+4S/x1uGb/O6nVZlU8btUOdmpvOcqtezzs8dWKzev1uE50WedjF7IhY/MdNq7q/Wd8pW52P+bFOx9TvegmcQxuP8qf2Ndx5/pNdLHBXOLkWF1zXi/zijcX2GcT49JPDnEJXrjIgS0bcf+j+8/Lc/4Z2a9SptwDuvVuPwK39D/atb8far2/HWP3fhrddew5u7/4VDu/fj4Otv4+Ced/Hay41Y9Mv3zF5CI0GGawo+qgezlKlU3qXriQyiKWXXf+zjerwKmRcTP/UZ1+CXMi/rCqkwSplsJ7z3a491IaTMHp9CSF5aOAiZOvPeZDt7e5ledvV1HhVZ+zik3F7H3pesJ+VSJpzv0z4emdrryHu3t7X3ZXPm/Z0TolA989f/Z+aoc3G22HAmSmZpN0+YGJd2NiOnl+M2979T/u1di0VPvmoywN/Gb9LTa9dep6dO4+eVonSUPJp0metxoNnTrApYsDJ9N9dVAfLFejRkm6cpqEpOxcICq1m7t8P7seOdHBSO8rGtqtBXmsqPN3nE5rrMO9R78fOaDvZ7aUO6lzy8z2Qsfte1qeOVpz4Eer2wBDo3WvTOS/bYMZh2awEK/X5+in6EbIAuNQGPVx7v6XwiRvjXS/uuz0jYx9iI+sMZyPR5rH6usWhcn2GdT4cYfw7O8+Lv+O3PQD/u1hEMicp1RpRCWluD/YSwljtX89hGzds5Z7k1r5bpib2OyTvKs7OzsemFGin0rbUFmRexxVSo7EfAOtkBE6J4qD96XNVWeP+V2oMBi1THvxAuDVj1wDLcv0KeYGCKNFUZ3LUJ99/tp+J2UJ56sAnrdzkH12rEjg1qmweqsMbfIzi3VqnX2q8qmiYvDqvK2oJlugIV6qM7D6xZhfs3mKb3NglMvNT2DrGsK/385Vg913cfr9/KaSTk3NxtDZzo8T4DndMIz8uBrdZAjdbn57lOvZyPFauDVzLNZ+l7++1ele8Ir5d4UMf/iD5Wz/Nav2unOq9+jjMa12dY59MhgT+HqFxnREQJSoIX3omIKLlZIXFKXXFroRGpQC00iIiIqOOwhQYRxRJbaFB0sJVGKuNfCCIiIiIiIkpRVlicUhNbaBAluKBjn3gIMDYFEVGUsYUGEcUSW2hQdLGlRiriXwgiIiIiIiJKcVZ4nFILW2gQERFRRBK9hUbXLmm4eGB/kyOiZPPu8ffQ1GL9BSCKDrbSSDVsoUFERESpp7UV3bqmmwwRJaNuXbvq7zJRdDCYkYoY0CAiIqLUoipAaep3a78+vUwBESWjC/r20t9lBjUoNHKxBEqUipKuy4nt+LEGM0dERETxkBBdTrbtkkKX9C5d0L1bVx3M6JrOFhpEya65pQUnP/gQZ8+dR4v1R4DIBwYsOisGNIiIiCgiiRDQeOHVvVJIRESdGgManRUDGkRERBSRRAho7K49KIVERNSpMaDRWXEMDSIiIiIiIkpiVuibOh8GNIiIiIiIiIgo6TCgQURERERERERJhwENIiIiIiIiSnDBxslgt5POiIOCiqwxqFhYgEyTdTm8E/c/sA0HTJaIAuD3iBIZr8+oCz4gqLDWca7advBPPedaxy7znsoK+n+S1fNADgcFJSLqRJwBDfNvg08cILQzSbmAxvh5pSgdZTIeGlF/+ATWLd+OzQe9tk2iH7oRvb+oGISZD92BKQj3nES6HcUTv0f8HqUcBjSizhmY8M9ax7mqczv3PAMaREQUjL9Ahfl3woUBjc4kzgGNwRg5/XbcdMUg9XPdaGjA3uf+iCdfPWIKfAs/oOFWv2E1ytYEqqwMx/wnJqIwqSpibsHfXyRYEfMnO2s4bpxaiCmjMoBdmzDj4X1mSfRljx2DabcWoHCoKVAV8B0bdmDNmn1RPbf8HvF7lPoS9/pMFs7AhH/WOs5Vndu55xnQIIq1rl27onv37khPZ49zSlYMaFBb8fuLNngkppfei9ucwQwxaBCuuO1elE8faQois2PFMsy425EWrMayDY16WebkIszM0rNJK9XfXzKQSnHlE6VYvHCiFcyIsexpM7F4tjOYITJQOHkiFj80BtmmJJr4PdKzRERESa1v3z7o1asngxmU5HRE20eSAIYzUWcSn79qgyeg9N7bcMWgBuzdshaPL1qERSY9vnYv9D3RK25DO2Mang42YPOaaqw/bPKpJubvbyAu8ahIhyrS7RLfoXWbsGyFSaYSHDNZY3DfZAmaSIuM1bjfVQHfhB3ymQ8twOJ5w/WqMcXvUTvxe0RERB1LWmakpbGSR0SpKW5dTgZPmI6rX3sSz/rqWTJyOspvuwLYuxaLnnzVFHoK1uVE7rwu2WoKXUyz7aGNWL9gFVb5baUaYlNku0+23/VCeL2s4Zg5tRCjR2W4+nbXH96PdcursNnH+hG9v0iPc2wxKm7NQWYoFSlnV4tIt3Pw1bWiftcOPKLW9Xv8rub4g9R5KsJU5zndtVNtG8Nm5eo9V87OiVmXE/tz990Nwlyv6hwFvq5Dx+8Rv0cd9z0apI5zNO5zvFd5nXXrtuHQDTOxeDI8zqf12e3Hsru3Y5g6Pqt1VKP6LFepz1K9hzZlejMf2OWkvZxdR/yz1nGu6tzOPc8uJ0Sx0qtXL3Ttmm5yRMlGgnHm3wG/GLDrzOLW7uzIs36CGeLdo1YrjWjKsn6cT1E/mOUHvf9KWMeRLgSVpruCc6C6zKE5KF1YioppHp1xAovR+wupMuVDpNtZlapSn10rMkdNxOInZvrvBjA0A5eqiu18VSkr9T6nowpi1i0j9objo6ryDagKus8xHfZhjW4hkoFLLrFKYobfo4jwe+SPFURZPNszcCOvU7pwJu4rMAVtDMBUCb7owIXIQOGtYzBznlfZ7GKMNzkios6KwQxKXgxUUHCJ+ZQT00KjYcvjWOYn6hHRoKCHG7H+L9VYtTVYuKQD7izbd/TlLqLXoI7Zatl98gPfxx33iN5fNO6AR3w3M7zt9DgRdteKFdVYYr8XuQNfoiqtutIjd2ersFkvEPbxm6ycN7WtfR7kfEqFSfi+Ix8F9ucZixYa9ufntW+pVLrOp3n9aA1kye8Rv0cd8T1yfw6ex5mtzvW0EjsY43k+ndtY5c7jblvm/1gj/SzI5mxp4Z+1jnNV53buebbQIIqVfv36mjmiZOMMaJh/Czww4EHxHBTUr8GYcNMVaroXz/ltwhGhoRmYMrsI88eGccc2JtSP7VvtisEqLPF6QsWBrVUoW7FfzWVg9A1hHGvCvL8IqUqMPU6EVEpclTBxcB9WPbDajG2Qg6n+7roflkqaqtA4tpXzuWyXNT80MwnPzSXWXfL6+uNWXlfESrFYJVfrg7caUa8mmZkDrXws8XuU2JLle6SOc6ojMOE8zgMHt2HJA2Z8GD/qN1SbIEcDnt9pjWHjLHv7HV1EREREKUcCGQxmkCXhAhojp9+Lceq38t61T8L36BmhkbtyHk8vuHs17l+xU1X6pBnyHeE1Q4+2rMswWu4mHt6JNf7ucm6txQ41ySy4zGfz7oR+f5EyFXf4berfgFV/kQqqv/OiKkYyZoLJOR2qj/GgnR1pbB4KzWysAxj8HvF75BTV71HQ4zyOt8ycL4frHYEaw1mWUt95IiKiDpMowQIGLCg0CRXQGDyhFDIWaMPetfAzFmg7NODA1m0oWyCVFfVDfvLo+PWttn/Iy5MpnrAe/dk2TXRVWkOTQO8vQtmZA/TU3RLBB9MSQffz1wWdhyt4sXW7ucPeiB0vRX8A0sD4PUp0yfI9Cuk4iYgobkYXFuKxR/4LT/7uiZCSrHvz+JvM1pScEjmIwAAH+ZYwAQ0JZtxrNc3AsuhHM9wOvoHtujI4AMP8DYqXzFL9/XVGduXTpQGrHpDWBNJM3xSZyn2HVQ75PSIiIkpZQwYPRtm8udj24nYs/PHikNLfNm/BvV/5ErKz+A9n8tKDFJkUb/7GzGBggzwlQEBjMEZOt4IZ0jLD32NaU4pdQZVBHj2au/tIiTZYXaR3dMPYLmA3Cvuu/OFGHNIFncDB49B161F5flsL2He7fTXDT1n8HgWULN+jDhn3haidPnPrp/DPnS+YXPL69ORifCTmj8OKPjn/b7z2Mn70g++bkuRwybBheKTip9jy7EaPJGXiN794DF+++wt6PtFcflkeTp06hZW//wN279kTUnryf/+IkydPIjsrXm3/KPUkQmCFEl2cAxqDMaH0Xtx2xSDriSYdEcyw+93jBN722W/bIVjlwa5o+lkve5r1+Mc27Lu/owr9PzoxUr7eX6TH6VOkd6yDb3fgxf1WBdXveXEPAlm/843kfypB1hjMf8jqGhF4rIZ9eEEPxuhvEMfhmKYHgdyPF6Lw5ImQ8HvUBr9HRojXtfs4/QTqsgbikpDPZzsEuz6p05PK9IOLFuA75QtNSfJ6ueZVXJc/MqmCGvb5P3P2LD45aWLSBDUkmFH5u9+oCv77GDdhkkeSMgls9O7dy6ydeNLT03HmzFmTC935801mjiL15O9WYtvmZ00uuGeeWoc9NTtcSbb3JuWynr8WDrKNrGNb9nCFWb8tObZAxyfbyr6uL/D17HX79b2Tp+8/8G3H6wcOalxfMEq93ksmlxhCOaZtm/+Ku+6coeefeWqtTv7Y+3OmQOt3NvELaAweiemlMgBoA/au9f941ugZpB87qB+7qHL1G7b7HPTOchxv6ZqLVCCHuwfNyxqO8R4VBPd6pfOc66kKwzz7sYm+2IPyZWDKwpmYL6/hsd9BGD9NHesTxWH03w/0/iI9Tie7Uq2OuWSM53lQ+xnv94kQYWx3cBvW2evKeXEuk8dNPmQ/mnE/1kXh0aTxNn6q/VhKGauhKGClfPM6e0wHGajS85qc/5AZJ2JXbYBrOlr4PeL3KLCQr2tXtx51Ph9Sn5FjPeszCHf8k3CFen1SZ+YMZvz5L0+b0uT15ltvJVVQw3n+T5x4T31X70yKoIYdzPhpxc/xvR/80JS6SZksKxx1nSmhYP628Wl86pZbTC51SRAg/9prTC4wWVcCB/LduDK/0JUGDOjvM+DQv/8Frgq0M4gg+8nK+ojJhU6CDr5MuPnjOPHeeyYXKt+Bjc7ilk/fplMwn//ibPUZX6+TfJ4SPCJ15dw8YWLHt+UZPAGl945TVYfgdMsNH8GO48d8/xAfP68UpfpRgAEc3on7gzRBz57mp4IizdsfdgzEqH54V8627nZ6q9+wGusy71DHYz2W0Hskf7+vYTu8Xz9twLldxO+vHcfpkjXGVdFrSx7z6PvJCOFtpyqHrgqXL76O0d7G//Hb51rea1kUKnEhfQ7C+3px8NxHkHOvBLxeQrimw8HvkcLvURuhfI/Cuq4DvSf1ue14J0f94Pfch71/eUKNPYaMfVzByryFfH2ST62tofx8sNZxrurczj3f6lrHLvOeygr6f5LV80BOdjZ21/q7wNon1YIZThLMkKCGBDckyJGIvM+/tGiQ1g0SLFi35g/4v42bfAYLEoF0KZFWGL6OT4IxzoEzJbAR6+urX7++Zi50coyfvW0q5n79G6YkNEv/6z/xv2vX4W+bnzMl0SHBjPLvfhuLfvwTPP3MM6Y09ditKyTAMGb8BD3vj7RgkGDG9LtmmRI3WVZbV4fSeWU6L4GPmlf+qeen33W3+q/5u6pIpTgvNxdZl35EB0ScZbd8eqrOO0mw5ODBN3XgxHu5BDnGfexGvS+pfL+0c6dZYgstaPH9B76l9+Pev//tpPXC73+zQlfyE0UoxyQtNB5dvgK/+0OlKfHP3p91TvVdK8c5Ch4ISXXxaaFx8UUhBTOirV4qNitWh9Sf/sCaVbh/g2kSbZPtX/IadHFrFe5fodbTd/oMtd6yBcv0D/5Ajw6U15ixYBPW7/Ia9PFwI3Zs2KQqU56VsGACvr92HKfLQXn6wybsUMfnZL1ugDv1YW1nDXgpj87c4TxWVTGqV5WM++8OUDlKMtLqwn6P9Ruqg74vfU3q8+I8j/a1Er1gRjD8HvF7FEhY17V5T/LZudmf23a8NcQUxUjI1yd1OqkczBCJ3lIj0Pl/6+23E76lRsF11/kNtki5s/tJKl5fsSBBDAlmSFAjVi017iv9qq74y9gmtpdf2KqTTZbJOrJutEnrCQkS/KWqypT4p1tVXPoRLPmvh02Jpy3/eB4FXi2A/rl7t279IZVjJ2lR8ftVwSvVTrIveX13iw/L5OJbfO5LAh1y3uzuEsse/k9VqqPTernsx9mdwslqieJZZnWJ8d/lQp66Y+9LAgdOdrkkWc8mAQLnNvIa9nK7y4fzOGW5XW5vE4gcr3NbJ1+vZR+P8xgD8T6Hzs/GeT4kOclxB1rm3I/9GjZZbh+n8/0736uzXN6nXS7JyXkcgT5bX+LTQiMK/LXQICKiVBC8xQjFl7OlhX/WOs5Vndu55xOrhYYMQCljNsjdz1BIxTSRSGU/FN26ddNjJaz7819MSWKQAVi9gxl2Cw2b3VJj0YM/SbiggPexBiKDgv7qid+aXGykQgsNWyxbakiQovTer+D5F17EF++xAhZ2MOO6j47VUwlo3PjRG7Ds8V/ikWXuwEc0SIVf7sCPuHI45pTcE7CFhlQsv/vt+a4WFd68l8u+f/yTJbi1uBjHjh9ztdywW1R8d8Ei06IgtBYaG6qewdAhg3HhwAtdLUTkNe3jtt+LtCaQCu/nZtzhcayy/H8qV+OHD/1EByzktX/8k5+5WitIpfbgoTf169vL3dunmePL0a0T7NYLdmsIWVYwKl8dxyd03g4ISMsUqSjX1u13vX9ZV+at8/VN1zHb+5RWLbKdnbeO6TbX+tK1xn4dqZDv3FWj9+d9THIMVosWqzWFvO6Em8e73rPkLxw40OO17NcWdpmzhYacI3t7e7mdt49PXl/OvwSa7OO037NwHrPwPney3NmKxLlfYQcr7PWFlEkLHvvY7ddzXwfuz8n+DJ2fkXAeYygS5rGtRERERImgcs0fcebMGcy464uuO+mBUqKR7hjB0uYt/0BLSwsOHEy8aOE1BR8NGqSQlhrXf+zjSd/C4Ytf+LyZo3iTAIVUmu1ghpBAhh3MELJM1ol2MEO6mjz7t7/76KIRXdL6Q1pk2Py1qAjFr1f+3rT4sAb//PzMGTrQ4U1eQ4IXTpKXQIqY//V5uvJuV5qFe31nV5PQxtmQQIFUwm3SisUeI0SC1BI4sNmV5s/PnK7O/2ZXsECmkvdmByTkWCWY4Xy/Ehhw7tsmwQY5TxI0ssnrBhtnxFfrGwla2K0YJDBgnzPvcyhTCb5IAOLAwUMY0L+/Lhf2e5YAg3AGDux52S5UznNgb2cHJoS9T+/rQMqllY84dvy4DvjYnMcUCgY0iIiIiBykW4BU+qUFgLQESDW9e/fGv338JrxdX6+7nhAlg1QdR0NaSUhlzl8lTu5WW901rCSVxtf3WOM82cEEb9lZWT4rzHZFV17TrnzaleBwSfBFKtFfmvV5fRxSOZUWF754B04lL4Na2qRCG03SisCu+EsQwK7QS0VbzrWU260LbIffecfMxYYdLAmVr/WlhYYEMuQz9O6KIkET+z1Lks9DHqEsn68EEuxyZ7DivfdOmjk3KQvn0csSMLHJdr72aZMWGs5jFBLwkWtfgk3O8nAwoEFERETkJVWDGgxmxN7Ol18OaXwPWUfWTUTHjh3HRYMu1BXjUGUOHYoLLxyI99//wJRETyoPCip3rqXyaQcspKuIVMBlXgIFUtmTViF2kgqqBBOkUit35n2R1g87d/m+tmR8DVnur0VFOKTFh4zVIcchLUzasroMel9Hkves+JquhcbQIe0bRMuu+DuTTVpZSF5aVAQaq8FXa4tocraaCJe8BwlgOIMT0qLE+z3/8KGf6mUylbycFwn2SBBBOINKNilzBinC5WufNukS432MduBGgk2Sl+CLd7ApGAY0iIiIiHxItaAGgxkd46f/+bAeg0IGN/VHlsk6sm4ievW11/Dc1ufxkx8t1ONihJL+8ycP4tV/voaXX3nF7CV6vvWNeSn7hBMZc8IZsJCxLqR1hcwH6oIiXRikUistOJzkCSdSqfTX4kNaUcjyQC0qQvW7PzypAxNyHNIFxRcJrMideSfJS2BF2N1grEp2q55KtxGbVHjlfDjfp3O5N2k18uOF5SbnybkPaZFhV77lWJzHKIECeU/RIMfv3aLCu3VFJKTiL8EJ8Zeq/9PnxA5UOEnXErvcDh6MuPIKHeSQoIrznNjzdqsdGQtDuuPYnPO+BNqnBJDmlMzW896c63t3kQkFAxpERJSArCe1zEihJxtRcnIGNZIdgxkdQ8b3kPFXvlX2NZ8tNaRMlsk6sm6iWrr8cXz7ewuw7PEVOu1+fQ9OnTrlysu8lNl5+a48+NOfobm52ewhem6e9KmUDGa0hwQ7JOghLSTs1h2SJFAhFdFAJMjgu0WFsMapcLYakSSBEk/WehIMkCCCv+CLBFbktZz7ksq4HUyRyrMst8aH2IGlP/+Zx1gLQsbEkAq73SXB1/gWNnv8BntdSXaFWQahtMskgDH3a1ZAQCri8h7sZfaYGtFit6iw9y9PiQk2hkYwcswSKJHWDHa3EucYG85WDs5yeV92wEJaRDjPq3NAUCHn0roOrOUyoGow3vu0W7rIdSDXpV0uyQ7syDp2mQRppCVHOPiUEyIiIgqL80klgbmfXiI8tjNPKrFm3eXWvOfTTDzzZl5NraecRN40NhxyRz3ZB6CUR7TKI1uTUThPDkkU0qpHWhbIY1ydpJuJtMzoqGBGJE85ccofORLDL78MV424EhcNGoS/P7dFl3/8pnE42tCggxpyV3X7jh26nOJPAgNCKry+nlQSPfYgndZf6ugJPvhnrEkQRCrazgEuKTExoEFERERh6YwBDaJk1d6AxrR/v00HMwKRoMaaP/kfj4AocJDC+kvvxoAGhY4BDSIiIgoLAxpEyaO9AQ2i9gsWoLD+0rsxoEGhY0CDiIiIwsKABlHyYECD3OxAgfWXtWOEEpzwPp74BzQoeXBQUCIiIiIiopSnI8PWbEKRAAaDGBQZBjSIiIiIiIioHeyghHcKRyTbUGfHgAYREREREVFK6ogAAYMQFD8MaBARERERpaimpmYzR51TrLuYMJhB8cVBQWNqEGY+dAemDG3E+gWrsOqgKSbqlPh9IIesMahYWIBMk3U5vBP3P7ANB0yWEhMHBSVKHl27dkWvXj1NjijaAgU0rL/gDHpQLKVcQGP8vFKUjjIZL/WHG3H4L9VYs7Whg34s+6/A+T/ORnWcJ7Bu+XZsPhiLoI05JoRbaYh0O4onfh+C4fchbhjQSGoMaBAll759+yAtjZVKigV/15X119uN1x/FRpy7nAzGyAnTUVpejnI7lZZi+oSRakn0ZQ7NQOHsO7D4oTHINmWJJ0MdZw5KF96BimmDTBl1hOys4Zg5byYqnyhF5bzhpjQ2sseOwfyH1OvIa+k0E/OnDe/Q65LfB4qrg9tQdvcyzHClTdhhFhERUXR98MEpnD59Bs3NLaaEKJa8gxmh0pFra5YoRPFroTF4AqbfPg5X+K2jNGDL48vw7BGT9RKshcaOFcuwZKsp1AapSuRluG+2dUewfsNqlK2JdbeV4Hek2xxn1iCMv6EIpZMzVCYWTfN5R9qbz9YBuzZhxsP7TCa6sqfNxGL9+foQ5bvT/D4Ew+9D4hiO+U9MRCFbaCQFttAgIiKL3fLC+mvtXygtNGQfbMlB4YlTC43BmKCDGQ3Yu2UtHn98ERYtMunxtdir61WDMO7mkXrt6GjAga3bULZiv85lZg7U04RzsAGb11Rj/WGTj7qBuGSomQ1LpNslvkPrNmHZCpM2NJrSGMkag/tM5XzHhtW43747vWATdshnPrQAi2PcOsTC74OF3wciIiKiyOloszXrV6hBCgYzKHxxbKExGCNxBK/6aoExeAJK7x2HQQ1b8PiyZ9VabYXfQsOw+237uwso3Q6mFmL0qAxX3+76w/uxbnkVNvu9Myx3u0fjvltzkGkqOfW7dmLdum3AVDmeMO5Ia37uZAc7dn/bjS1GhePYAnK2TIh0OwfpWjHt1gIUuvbRqM7NDjyi1vV7/K673oPUeSrCVOdnoc7rIw/H8O6tes+Vs3Ni1kLD/tx9t4gwd6ij2BKB3wd+H8Ln//M7dIO0LoLH+bQ+u/1Ydvd2DFPHN0Udnw7YrVilPkv1HtqU6c18YAuNZMIWGkREFBoGKSi24jeGxhE/wQxx8UXqJ3VsZN+gfqTLzDvH2/xglq4AlQsn6h/fdoVBWH34S/304bcqHYtVJdhZ0ckcVaC2mYmpQ0xBqKSJvVQA1L6kohONSq0IqRLmQ6TbWeelVJ0XZ+VNqHM7aiIWPzETM7NMkbehGbhUVaTnq/Na6v1ZqPOa2GM+BDIcH1WVdmA/1vns3rEPa3QLkQxccolVEmv8PoQn9b8PgT+/+wpMQRsDMFVtZwUuRAYKbx2DmfO8ymYXY7zJERERUapjMINiL6GecjJ48GBcfPXNuGncFepndfTH0Bg/bTSmTrYqcG2W23fm5S7ihh1Ys8Z9xzRbLbtPfuD7uHNuv55197Fa7dM6LhlgclrJRFN5CbSdD4fV+n+pxiqzL5dI70h7iPQuaHjbuceJ8Dwv+o6/Oi9SQZWK/bK7q7BZLxD28ZusnDe1rX0e5HOQipbw2+KgvezrIBYtNOzPz2vfUhl1nU/z+tEa04LfB34fwuH/8xujPj87GON5Pp3bWOXO425b5v9YI/0sKB7YQoOIqLOSIIX1lzk4BjQo9uL8lBNFupeYJ5zce++9uG3chcDetXh8kf9gRigKZzufICHpDpSaylu9qlB6V+5m3mpXDFZhiaPyJg5srTJjDWRg9A2Ou9LqR/5Uxw95VyVFOXBwH5Y8sDqyvv9DMzBldhHmj41VO5UYU+fFHifC+7xAnZdVrvOSg6n+nlxxWCp3qiLkPKfqc1i2y5ofmpmE5+YS6+56ff1xK68rcKVYrJKrtcNbjahXk2iPacHvQxwly/ch4Oe3TX1+ZpwXP+o3VJsgRwOe32mNReMse/sdXURERERJzQ5mSLDCTkTxE/+ARhuDMOjCq3D1yOg/uLX+8E4sW7AaZd533rMuw2i5m6iWr/F3l3NrrX6kYGbBZe7m3aaCinY0hZe7le7HFkpajftX7FSVWuuRmkn5qMqg56UBq/5iBqN0nk8XVaGSMRpMzulQfYwH7exIY/NQaGbjMSgnvw8dJFm+D0GP8zjeMnO+HK53BGoMZ1lKfXeJiIg6Ne8gBgMbFD+J2eXkyiswSNVbGrY8jmV+mmmE0+XE1dzbXzcCV/P6EDiaQ9v79d89wG5mbd3xdFYSfB2nhyzTnN7ZDN0ucxyDJ/+v5xb7JvbBz4vi6/2FcPwh7bs97GshFl1O2uzb/X5dgyXa5yVKr8/vA78PoYr08wt0jQUr8xTpZ0HxkEhdTj788EPJEBERUSeUUAENt8GYUHovxg3yP45GeGNomB/Kpil1m4pBIlbgfG3LClxo+26PWAY07PccaN/m9aP1/vh94PchVJF+fgxodE6JFNB47bXXJENERESdUAJ2ORFH8Noe+UE9CFdeHY2uJ+6nR0wp8fFEADNuga7EejR395F8/NCOR3eBdpMnJ5jZsISxXcDzYjdvP9yITjOc28Hj0EMQjMrz+6SH7MwBeuqr+X708PvQBr8PLkn5+RERERFRpxSngMZgTJg+Qf3Xn8G4+kqrr/yxo+0YGdThwJpqa+C9oQWYNtYqczn4BrbLslGF/h+d6MOBF/dbFT9/FdSsgbhEj/QfAXscA5zA2/adWbtC7KcSlT3NerxlaAZgWBjv1S34du7z4u98DnINOlm/843kvxObNQbzH7IG2ww8xsM+vKAHcfQ3+ONwTJssg0fuxws+72BHD78P3lL4+xDi9RnTzy8ckQaXiIiIiKjTiUtAY/CE2zHuinG4t7wU00cO9ghsDB480nQ3kdxe7H5VF0eBe+C9wlu970rbyzIwZeFMzJ82HNkeFQ95xGUxKp4o9vyhb1f8VAW19CG1zLGNPFKxYqE06w/XILOtND+XpwRsN83PxXG8Zb/ePHWMukzJUhWieVZz7uDsSrV1d955zLKf8X6fJBHGdge3YZ29rpxP5zJ5TKVuti6Z/VgXhW4V8TZ+qv04SyBzclHAIMDmdTLApax3h6pcOj/D4arSaa6XXbWOzzxW+H2wpP73IeTrMyafXzjcn+dUr++Gx/klIiIiIjLiNobG4AnTcfu4K1R1xZ8G7F27DE/6CWiEN4aGze4DLhWjtv3E7T7efh3er5824NGX3dX33Qe1/o53clA4yv+YAQH56kuuKhb+xjeQ97Qu8w6130BjBiiBjtmjD7+XsLZzn2vffB2jvU3HjBkgQvocRIBxLzz3EeTcKwGvsyiPH8DvA78PYV2fEXx+vq4x+7jCG0MjwDUXizFtqF04hgYRERElgriNoXHk2Sex7PG12LK3AR4/wxtUfu9aPP64/2BG5ByPR5w8uk2z6gNrVmHGgk1Yv8uMIWA73IgdGzapypRX5U0c3IYys42be/01ETyqsF4qiitW+xyfAFurcP+K/Wodkxdq/WULlukKTUiPRjTHvEO9LyfrdZ13wL2EtZ061w8s04/c3OE8VnVu6lXl5P67A1Sqkoy0urDfY/2G6qDvS64z67z4umaiF8wIjt8HLcW/D2FdnwE/v+14a4gpihH93dhgur7Y5Hy+dNxkKLnYgYdgHCvZG3hOzIyEMux5NVFT13IiIiLqlBL0KSfB+WuhQUREsRC8xQh1HqG10Ggb0PDdQsOxnl1mpq71dd6s51iWk5ON3WyhQURE1Gkl6FNOiIiIiIiIiIj8Y0CDiIiIiIiIiJIOAxpERERERERElHQY0CAiIiIiIiKipMNBQYmIiCgsHBSUvF1wwQU4efKkyRERxRf/JnUebKFBRERERO3SrVs3M0dEFH/8m9R5MKBBREREREREREmHAQ0iIiIiIiIiSjoMaBARERERERFR0mFAg4iIiIiIiIiSDgMaRERERERERJR0GNAgIiIiIiIioqSTdvOEieYh78nl+LEGM0dEREQdqbU1lJ8OrWo9M2t4bKfmrZxjPbvMTF3r67xZz7EsJycbu197Ta8SS9dccw2mTpmC3Lw8DOjfHx988AFq6+rw1FNPYefOnWatzu3CCy/EsWPHTC568vPzsW/fPpw+fdqUeOrZsydGjRqF559/3pRQtOVkZyPvssvQNT1d55uam/VncujQIZ1PNv0LJiK9T3+TA84fq8f7u3n9xNpHPvIRXH755Xq+trYWBw8e1POxEqu/SZR4GNAgIkpEWWNQsbAAmSbrcngn7n9gGw6YLFE8dJaAhgQvFixYgL59+2Ld+vX45z//icOHDyMrKwsjrrwSn/70p9Hc0oLy738f7x49arbqnGJVebj00ksxZPBgvLh9uynxVDBqFN47eVJXkBJdl2490ffKG9C1/yD1CzzNlCrqWm56rwGn/rUDzWdOmcL4cgYx5Brftm0b3n//fb3s4osv1kEkeQcS3PjXv/4V88ppLAy86XYcf+6PJpd8+o+agNNv7sW5hrdNSeIaOHAgrr32WuwyAeCCwkLU1NTg+PHjOh8LDGh0HqkV0BhbjMrZOXp2x4plWLJVzzoMx/wnJqJQZndtwoyH9+lSMX5eKUpHmYyHRtQfPoF1y7dj88FYBFEGYeZDd2AKwq2kRLodxQ2vTwoHAxqUwDpDQEN+DP/617/G/3v2Wfz84YdNqSep7M26+2585jOfQUlJiQ52dFaxqjykqYr/Rz/6Ubz99tt48803TalFAh2XXX45tm7d6r5WEtgFI8ej6YNGnD70Olqbm0ypeo/pXdE762rdauDkq5tNaXxNnDgRzz33HM6ePdu2hUZTkw4g7T9wQAf7xowZg02bNulliUCumZycHB0M69mjhyn19H/PPOMKaHzylltwRr3Pt956S7+vRLiWeqjjzr/2WgzIyEAXE/x69913sXPXLj0v5Phbz57GqbqahApqSMBLAo2R2PqPf7gCZ+0V7b9J8nk88sgjuO+++1Dzyium1G14+f9i36LPmhx1pAQLaAzGhNJ7MW6Qmt27FouefNUq9iFYQMO7QqgFWO6/wuhWv2E1ytZEu9LICqM/2VnDcePUQkwZleH784yi7LFjMO3WAhQONQVoxI4NO7Bmzb7onVten9QuJuDFgAYlgNB+8JsAhIPHdmreyjnWs8vM1LW+zpv1HMtiGdCQH651qnLjL5jh9OUvfxmjR4/WQY3OKpZ3Q6XSLOdXupWcOXNGl3Xr1g3jxo3DLlXBO3HihC5LdAPH/Tsan/+zRzDDJkGNjBs/g+Nb/mRK4ksq+VLpD8UN6rPx14ImHnJzc3HRRRfhn6++ilMffmhK23K20OjVqxeuvvpqnDx5UneniTc5p3bLIwkgeUvv3Q/9CyfhvR0bccE1NyVcUGPYsGEYmJGBV//5T1MS2JVXXqm7lUWzpU80/yZJMOPHP/6xa5/f/e532wQ1Cp+sx47pbW5DkR+/XbnS1QUpXJs3b8a377/f5BJsUNCR000wIxpG5WG8mbWNv95UFgOQO+cz7nakBauxbEOjXpY5uQgzs/QsxZBU3iufKMXihROtYEaMZU+bicWzncEMkYHCyROx+KExyDYlUcXrk4goYY0bOxa9evb0GcyQu3DeVj7xBHqrCpFsF6rXXntNj8HhJC0RpJw8yZglMl6DVDhtI0aMwJEjRxI2mCF32KVSOmnSJB0c0NLSfAYzhC53dkNJIokUzBDSMsMZzEhL76Yr/9Llxx+pTL+qtrnkkktMSXxJywzvYIa8j77DC5Hx0cnoN2IMmk4cRfOH7+PkP59Dn9x8dB80zKwZf2fPnNFBolDJWDiyTSKygxkSxBAylbyUR4MExOvr612ps/jCrFm48WMfiyg5gxkiYQIagyeU4rYrgIYtW7DXlEVqx6796r85+KjH74rh+Kjc4VbLdlgFoTnYgM1rqrE+Zq1IB+ISj4p0qCLdLvEdWrcJy1aYZCrrMZM1BvdNlqCJtMhYjftdgYJN2CGf+dACLJ43XK8aLbw+iYgSm4yN4R1ssPW7+mNmzk3GEfjzn/+stwtHYWGh/jFLwdXV1enuA9LNpP8FFyBjwICEuJPuj1R25A77s88+G3JLh2TQ65LhyPjYFN26wZmkrOewy8xa8SXXibNlhhxXes/e6HlJ4LvB0r2me7duJhdf0s3EGcxI75uBC0ZNQPOZD3HipY04saPa1T3JGdToljFYl8WbBIh69PQfQPImwQ9/A//GkzOYYbfIkGm0ghoSxC4rK0NmZqZOt912m95vuDp7MDwxAhojp+NeaZqxdy2Wqc/iQlMcqaH1qnKqpoXXOyqiY/P02AQ71LKokT7uT5Si0u9dfGl2L60NZnreOR9bjApdLsmMmSAVZ533Ss7KdKTbOUjXivmufUiaiQq1bsDjd72/QRg/T63veJ2KedFvwXDg4D5s3mpSfWzvvIyfao1RUL+hGkvWNLib8atjWPLAJiu4MKowqi0feH2qlMTXp7xOtsd7tV5nvDqH0trH+3xaLY6KMV6OVx2f/b7m64CWrzIiijdpBhvuj0NZP9zms7/5zW/0j9mOIl00vPkqS0TSxUgGZb3qqqt0t5OXX37ZZ1P8ROHrDnsq6HnpCLy3/RndVcOZTr78LHpluVvQJIq0LunoOTQXH+x5ET2GZOtWDslG3oMMJvth7ctm/JXzZomXtDSkde1uMvElY5J4t9CQFks257yQFhqyTaKZ97Wv+exeYgc1vvGNb5iSyMgTtCRYa3vhhRf0fmMlkf4NkC4nz//jHxGlnyxebPZiiX9AY/AElErTDOzF2gBjZoTnON6SO9aOZv3ZmQPUfxvxVr2qY1lFocmSSlIRpqiN6nftwKoode3KjPDudaTb2ZU/X10rMkdNVJVOr0qt09AMXJo1XFU070DpKLW+KRaZo1SFNVbdMmLOtIrAfqzzOfbEPqzRLUQyEN0WiLw+20qW61OO8w51nDke71Vep3ThTNxXYAraGICpMqaIqwtVBgpvHYOZ87zKZkvgg4jiTfrfOwemu+on1bp/tCRhz+d989c6L6Tvt2wXDmnVIT9mn3jiCVPiyVdTZFnXub4EUuxWHjKVATL9kS4bS5YsMTnoeWc3jkQnLR7OnjuH/Ouu0/OJzPsOe6qQsT5azrftGiCtBGRZouk+OAtNH5zAuWP1+kkyPYcG796baHpeMlwP/nm+8Yg+x90vzNStMfpdbd0FkfE0ZMDZ02/txbmjngPnxktzczPOnz+vu17Z5EknNud8enq6HhNHWsgkmi996Uttghk2KZduE+3xq1/9SrfU8/dvgPx9t//+O/+2SwtC2UbK169fj7Vr1yIjI0Pn/e1LJNK/ASnU5WQkpt87TlUR9mLtoicRrXCGVBif3ykVUbtZ/yDcWKAqDYf34/m3JO9f4Wz3XVedFqpK0hBg/YrVKIvWoJRbqxzjIJhWADLQn6vMkZyvGel2SvY0q9Kru1ao9+Jab8Em010hA1MW+qtM5ajK2kRV0WzU58He9v4V0nVCGVqAacl4ZzlroBU82FUL55jizsrvAdNCZGhmtAZ3Ebw+k/X6HC8BCB/Hef+CndhxOAOZQ+3ghDdZpo5vgay/2npP6rimjPIqa9MViYjiYf/+/ejXr5/JAbu/XaQHe7MHfLPna3/2JZ0Xwy65RG8XLummIuMsSJNhJ++myN///vf1j9jHHnvM1RLEDmTcdNNNrunf/vY3Pe/L448/jjfeeEP/iJUk81KWLKQSJBUfqSSFGzyizqnnsMvRpVdfXeHv0qufzifbWCXdL/oIzhyuRZ/LRiFjzK3oMTgLzWc+QLeBQzyCGWfefsNskRikJVUo42hIF6FE7G7SUeTvu/xNl2CEswuiBDC2b9/u+jdAHnHr7AopAyVL+ZQpU3RXlcbGRp2/++67zRptJfu/Af7EMaAhTzS5DVegAVsej2YwQy6MgTiwZoe7WX/WZRitKiE7/hLhkwFUJWXK7CLMHxvNSm0HcowTsX7BKizZ6miNcHAfVj3grkxNnebnParK9rK7V2GVY9sDqgK7zDw9KroV/g5yiXU3v77efga2PEWiVHeRqLDPw1uNkHtick1FC69PL8lyfarjnKpb9LQ9zgMHt1ldlPRx+ibdmqwWNA0moOVZ9vY7uoiIEsDre/bgyhEjTC40I668Um8XCel6UlFRYXIWeRSsfcdN0g9/+EP99AZpkjxgwAAd8JAAhmwnP2yFTIM1V7Z/0CbbD1m5iyvdTXbv3q3vWspdxa5dE69FQECtrX5bMehy/RgfihZpyYDm8/jwjZ04/ebr+LB2F5pOvYceF/tr8pl4ZCDT9F590efyArQ0nUfjC0/j/d3P40x9rV6eqMEMIUEKf4/NdZKgR6IOCBrIiAerdFcgX6R8+PeeNLngxo4dq4MR8nfeHkNDHj3sDE786Ec/0v8G2NatW2fmwpMo/wakRJcT+4kme9cuw7NHTGFU7cMLUpkZMhDjb8hRFdf9eEFa6phKrD9tniJx92rcv2KnqtRKc/A73BXdZGK/Z79dEhqw6i/WXaXMgst8NM9XFbjlVR6tGGyHojnmQ7yZcSxENAMYvvH6dEmW6zPocR5HoAY2h+sdgRrDWZZS3yVKaaE9sjV43czXYrtMT107sB/Tav3HvUwlnYm+XTt3+h3g8/3X/mHm3LqqyrasL3fTImEHIaQ/tdOOHTv0j1w72U2D5XUk4CEBDGmyLE/6kDt7oT7xQ37EJkMwo9dHrtBPpxgw+pMYeu2N+mkn7777rr5TKdNMVdb/+lt06nVpeAGoeJAuD3Kc3kENyffOuhpNJ2Pz2NvOSgbIPH1oD86fOOpKZ97+lyq/2KyR+NK690DL6ffxwevbcPrAP9HadM4sAZpPf5CwwQwRagsNGTw0GVtovPnbBcj9+i/aBDUkL+X1//ufpiR00hLv5ptvNrm2ovVUp0T4NyDpu5y4n2jyOKI2bIYPm19SlaChBSiVu79e3QpC14ADW7ehbIFUGlWFavLopOvjbo3P4GyJ4INpiaDHI9AFnYcreLF1u2kJ0IgdL0Wp+0YAvD4tyXJ9hnScRJQS5KkUMobG1+bNMyVu+xZ91sy5TZ8+HSfeew+bNm0yJeH79a9/7TFAqIyvIX2rvbuiiOeee07/6LUHk5NuJtLX+1//+pfOpwIJZnTLGIIPdv8DH+x9Eae79MQb77nHpDj4QStOpfXAB69txal929FtwMUJH9Q49cZOdO03EBk3fsbzCSEqn953gF5O7SeDS8ogk6fe2KXHznCScShkgFBfpCvTufN+BtyMk+ZT7+knmkgwxtt7Lz3jCmZ4D7KZCKTVhfNJJxKItDnn5bP6MAkDGnId1f3XPR5BDTuYIeX+rjMnaY3h7GYire7scyNdGJ3jYXzve9/z+zdeWu5Ji77OKg4BjZG4WZpmKIPG3Yvy8nLPpMfUUK64zZRNV1tEaGut1Y9faXcF9eAb2K4ruwMwLHlaqlEgdiXZpQGrHpBWD9KdwBSZu/IxqcTy+iQiSlhLfvpT3PLJT/oMatikZcbn7rwTd0yfrtdvD2lp4T3avXRFkcHe7G4n9o9bWVeaI79iBquT4IfkZXyNVNF9cDZO1b6s70I3nTyOE3t3oOsg9wjdXS++FCf2bHctP1X3ih5bIFG0tLa26RIjx3rylb/j+JY/eT4lROWlXAbWpPZ76623dGsn54CUwci6I0aMwDvvJEb/T1/Xjz+ynjxVJ9FIq4vejhYaLzpasDnnZZ1k7HIinEENEU4wQ0jrPAlk23/jZSwNu3WgdEORVnj2MhFofAwJgDj/nUh0qfWUk5jahxc2qErr4Z1Wc/5EFumd5zC2C9iNwm5Of7gRh3RBJ3DwOHQMwPG0EW/2XXlf3QXaj9enU7Jcn7HvjkREieDdo0cx6wtf0IN9/ldFBcapH5cXX3SRDmLIj87PqB+dEkC4btQozP7KV/T64ZDuIxK0cJIfss4R5+XHrrPLifPHrOTtriqyH8l77y+ZdemSbubc0tLcP1uDLY+3E42NyMvLa1MplbFApB/89ddfb0oo2uRxuSdPntQVwk/ecovP5CR5WffcuXN4/fXXTWl8+bt+vMnyyy67DO+9954pSRzSUsbZQsMfWUe6pySDnTvbtqKygxryON1wghk2+Ztv/42X69DJuczZDVLmvcdLssfhCBT0SCRJ3uXkVTy5aBEW+UuPb4GuOu5da8raN2Do5jWrUPbAtgib8zuYgRvVnxi8bfeftyvEfipt7ic3hCLSO+vBtzvw4n6rJcKoQj+PvhyEmbdaj7Gq3/lGZANTJpKsMZj/kPUUkMBjSphxLPwONjkc0/RglWZ8ixjg9ZkA12eI14v7OP0EwLIG4pKQz2c7RBpcIqKwSZBi/vz5eOaZZ3DT+PH42c9+hr/+9a/4/ve+h6uvuQZPrl6tl4cbzKDgzrx7CH3yrkN6zz5I75uB3tlX6zJbsOXxJgOXyuCtEyZM8KhIS35A//56eSJram722cKhtblJD1TpTZ62IcsSgYzzs2/fPjz77LO6+5iv5CR5WVcGnA11jKBY83f9eCdZ3j9BrycZ80a6k/Tt29eUtCVjbMjy99W6yWDO3LlmzpMEMXbemRV2MIOiI8VbaETDIGSPLUbFwgKr68GG7Y7K53G8pWuMOSidN9w9WGGWqoDNm4nFujIcjF2pzsCUkjEY76zQqf2M9/vkijC2O7gN6+x1F870fBpG1nDMfMh+FOV+rFsTi5YIHWv81AIUmopl5uQiP5Vky+Z19tgTMqCm8zMcriq5E61BQiMe36Ij8Ppsr5CvF1e3HnU+Hyr2eE/WZ2Cul5hxf55Tva5Vj/NLRFEnFZ6HHnpI31H6+M0366nk2zNmBgV2+uBrOP/eUVxw7cdxwVU3oumDE7rMFmx5vJ368EPdYmbjxo0eFenq6mrs3LUr4QdBrH3jDd2f3644F4zSj/nCmUOvo//oWzzGAJF0wXUTEur8B9K/YKI+ZiHTfur6STT+rh/vJMtlPQkeJJqmpiYdaBmlrh1nEMaZZOwPCT6dPXvWbEUUvrSbJ0xMjFCkbfAElMo4GtJCI8CIoceP+ajYqEpF5ewcVQHdhBkP+xmTwM864+eVotT6W+3f4Z24/wGvR2va+/OhfsNqrMu8Q+3Xesyj7ycjKFljXBXStuRxlL6f4BDedqoS66oY+uLrGO1t/B9/9jSrYizvtSwKlc2QPgcR4DP23EeQc6/Y78EnX595pHh9OiTO9RnW9RLoPR3ejx3v5KDQ63za+5cn1Nhjs9jHFazMm99rNdA1RRRloT/lpO16zjL3fKuaN3NmRk9VMjm93KNMT1uRk52D3buToxKV6i688EIcO8andBBRYuDfpM6DLTRCUK8qKutXrMYMXxXbrVW4f8V+tY7JC7X+sgXLdAUqpEcxHpSnVGzCjsOe61qv67zj7iWs7awBL+URnzucx6oqcPWqMnT/3QEqcUlGWl3Y77F+Q3XQ93VgzSpzXpznsRE7NqjzEq1gRgzx+myfsK4X857W7/J1rWzHW0NMUYzoa3WD6fpik/P5Ep+8QkRERESdT+K10AiRzxYaRERxE7zFCFEqcLayCMTXes4y97zVAkPPmRk9Vcnk9HKPMj1lC41EwruhRJRI+Dep82ALDSIiIiIiIiJKOgxoEBEREREREVHSYUCDiIiIiIiIiJIOAxpERERERERElHQ4KCgRERGFzDmwZyC+1nOWueetQT/1nJnRU5VMTi/3KNNTDgqaSC644AKcPHnS5IiI4ot/kzoPttAgIiIionZhxYGIEgn/JnUeDGgQERGlqDRJ6j+BU1p8k/zPzHfRSf04kbya6aKSLrfnZSrHbMrV/4mIiKgTY0CDiIiIiIiIiJIOAxpERERERERElHQY0CAiIiIiIiKipMOABhERERERERElHQY0iIiIiIiIiCjpMKBBREREREREREkn7eYJE1vNfFI5fqzBzBERESWYrDGoWFiATJN1ObwT9z+wDQdMNtb0U02DPto0vGeftraG9rPB13rOMte8mrpKdZnKq4ldaq8nUz0vU5PPyc7Ga6+9ppcTERFR55PCAY1BGD9tNKYW5CBzqClCI3Zs2IE1a/Z12I/JRDF+XilKR5mMh0bUHz6Bdcu3Y/PBWASJBmHmQ3dgCsL9ER/pdpQY+P1z4vevE2JAw+d6zjLXvJq6SnUZAxpEREQUmvh1OclvxrIfNgVJzbjBrB4W9UNyvvoxXjrZWZkSGSicPBGLHyrGeFNCGeoc5aB04R2omDbIlFFHyM4ajpnzZqLyiVJUzhtuSmMje6x8J9TryGvpNBPzpw1HtlkeVfz+hYHfv5R1cBvK7l6GGa60CTvMInIHKYT3nGORi3N9IiIiIlv8WmhIQOOzwV46DU98Px0vmpyT/xYawzH/iYkolNnD+7HM487nIIyfV4TSURnYsWI1lmyNxR3RxGTfId6xYpl636ZQZKlzcoM6J5MzVKYR6xeswqqD1qLo4B1ibz7v1u/ahBkP7zOZ6MqeNhOL9efrQ9TvFvP75wu/f+T6brCFhsdUuOfVVP5vr+MKcJiWGWZe/UcvkXlpofHhhx/qZURERNT5pFxAw1VZDPCjMVtVIg7EpHl34vJbodJM5WVoLCpUkf6Ij8+P/44gLTMuvcRkMgutymysAhquZu/S3aMaa9Y0WOdSHcP8EnV+pQVFFF+b3z/f+P0jBjQsHoEJwz2vpvJ/e50QAxq7du3Sy7p3766nRJQYzp07h379+qFPnz44deoUzp49a5YQRU6up9mzZ2PFihX6uqLU96lPfQpPP/20ybUVt4DGJUXN+M5489Kvp6P0D+H9oPIZ0HBU3iKpGFh3suHeVroETC3E6FEZrn7Q9ary94iq/LX5Mepr3cP7sW55FTYHOo6wtvO+a2rd8Z7qcXw71fG1/bEcUYXKPp9+f4D72W5sMSpu9e5u4IezMh3pdg7StWLarQVWRV1rVOdkh+/PrB3nM2rUe66cnROzgIb9uddvWI2yNd7fGVPBilbLAH7/+P1Liu/fIHWco3Gf473K66xbtw2HbvC6BhXrs9uPZXdvxzB1fFPU8cn72rFilfos1XtoU6Y384EBDeERmDDc82oq/7fXYUCDKKkxoEHRJtfSQw89hOeffx7XXnstfvSjHzGo0QkEC2ik1GNbs29QP1BlRv2ADrcy5U0qV5ULJ+ofqvaPayHz3j9E/a6r+8aX+u0bH+l2GJqBS1VFTI9T4L3tqAIsfmhM6GMjSJN3+UGufthLxaO9580WUqXIh0i3sypHpVg821mZEur8jJqIxU/MxMwsU+QtmuczoQzHR6W1BFQFvU0wQ+zDmg2NapqBS+wWI+3A718E1wu/fx38/bOCKItnewZu5HVKF87EfQWmoI0BmKq2k2vFkoHCW8dg5jyvstkcH4aIiCgW7GDGn//8Z6xatQq/+MUv8L3vfU+XU+eWEC00jjTI3aFWDDb1B8m//LcuWF/j/66RrxYage9GBycVHBlrYMeu/SgcleNzDIDsrAYccFY67DvscnfO6wkO2WrZffLD2dcd64i2M3c0XT/E1fIV1VhlxiKQ7eSHuvC+E2yfG58Oq/38xb0fl0jvEHuI9K5keNvZn511l7RavXfzXuQOfImqtOpzJndZq7BZLxCRn8+osa+DWLTQsD8/r31L5dB1Ps3rR/qdceL3j9+/RP/+uT8Hz+PMVud6WokdjPE8n85trHLncbct83+skX4W7cMWGkQUL2yhQdHiDGZs2rTJlAI5OTm455572FIjxSVsC43Mi6wfJ2LwIHcwQ0j+ls82Y8Gd7nXCcbjeR8XA9XQHkwLc9ZPKlFTKZjwgzc6d+/KqTMkP8lvtH9yrsMTrcZQHtlahbMV+NZeB0Tc47/ZGup2DVPbuVj+kHZUg2W6Z9bsOQzP9bOfL0AxMmV2E+WPD2CaRqM/3PlOZksqFx2CTB/dh1QOrsf6wZHIw1d9d92iez0RxiXW3u77+uJXXFapSLFbJ1frgrUbUq0lm5kArHwX8/vH755JI3z91nFMdgQnncR44uA1LHtiEHfo4favfUG2CHA14fqe0bPIse/sdXUREREQx8Ic//MEjmCH279+vW2pcfPHFpoQ6o/h1OTka/I7Q4BHNuDffZDrSrk2h3WHOugyj5S7d4Z1Y4+/u4dZa/ai+zILL3BW4SLdzUT/IpY+/yTkdqrd+aPsjdw/djxGUtBr3r9ipKrXSXPoO/83sE5mpuPvv6tCAVX+RCmr0z2dSGZtnPX1EiWYAI+r4/UsuyfL9C3qcx/GWmfOlTaBOcZal1N8KIiKiBCKtL7Zt22ZyniSoIYk6r7gFNF6sTseDm9NQ879q+v2uKNUpHU+87hnoyL86/FYabe7mHdyGMlcFYpOuqATivqMdhP0DeWiBvuvtcQfalSa6KpEukW4XEw04sFWdnwVSqVIVjsmjk64PeHbmAD0N+LmZlgi6v74u6DxcwYut282d8kbseCn6A5Da+P0LB79/HSWk4yQiIiKipBLXQUHfqk7H4zVpjrtiaXjxD13wjPNG2EWtCHW8QvsOWULffU5UB9/Adl3ZHYBh/gbvo+RiVyJdGrDqAQkqSHN7U2Qq99Go5PH71w78/hERERERhS1uAY1LhoQYqDjqDHgEduDF/VYFblSh/xH1o8muMMqgi6470H6ScxC4SLdLZpHemQ1ju4AVafuu/OFGHNIFncDB49B15FF5fu/623etfTWnDxe/fwmM3z8XBtyIiDqbyfjp1q3Y+tPJJm+T8krMudJkiSgJTY5XQKMVk+c04zvzmjEl39mlpBU33NmCWxwt1o8cNTOhcN3lzMCUqcN99NWOMvv1wq3ARbpdLNnjCuAE3rb7l9sVYj+Vmuxp1uMmQxPpnefg2wWvSLsHgazf+UbyV1CzxmD+Q1bXiMBjLuzDC3pQRX+DMQ7HND2Y43684G8siXDw+xc5fv8iF+L3wX2cfgJ8WQNxScjnsx0iDS4REVE7vIk3L/0O2sQ0iCjpxSWgccOdzdBjfZqnmSz7YZNJzbh7hDPAkYaq6nAeJ9eAVcutvugYNRGLHyrG+CzHD1w1P35eYRT7xtuD3akK3MKZmD9NVeI8ftCr15tWjIon1HGYEkuk28XCIP14RP14SJWr37DdMTjfcbyla1Q5KJ3nqKCq8zhznv2YxmDsSrV6ryVj1OehCy3yefh9skMY2x3chnX2unI+ncvksZGuRyzux7p2Ppo0EYyfaj9eEsicXBSwUr55nT02gww46fwMh6tKoBknYletzwEZw8fvX/j4/WuvkL8ProCbOp/62tSlmvUZxHrcFPfnOdXru+hxfomIKCae+90fcOldc8AGGUSpJe3mCRMjezZqewxpxb3Tm5Hv77e0aEjDE0+m40U/j8I7fizAD2N5TKSpIPjWiB0rqj0fL6hkT7MqCfLIyJCesmDY2/l1eL8exd97ZP3wt1MVGV05sB476Gukfn/vYfy8UpTqRxYGcHgn7vduYq9+6FfOtu6uepPXWJd5h9qv/+PRAn4e8rhG3084CG87+9yYbBu+jjHy8xmpkD4HId0hHvY9cKfnPoKceyXgdebrM28vfv/4/Wsjdt+/sL4Pgd6T+rx3vJODQq/zae9fnlBjjz1jH1ewMm9+r7kA3/f20rcEgt4XCOfGAdDaGtrPBl/r2WXOZe55NZX/2+tIRqYq77Gd5M18TnY2du3SETV0795dT4koMZw7dw79+vVDnz599FMqzp49a5Z0NOlachcOfnkGDnxpK+46+GXMeHSPR7lkJ/90K74z1toCWx/E2G9tUDNmnQefw03fuRMf0YvG4tfZlfjVnZID3vyDvT/lyjmo/JW1nloTD479FmQvRBS5T33qU3j66adNzlu8upy8k4bHH+6KB/+3C2oavH5IqXzN5nQ8+LD/YEZQ+qkKq7Fsw37U6ztitkbUqx+O96sfq96VqfY4sGYVZizYhPW7TN9822FVcdugXu+BtpUpEel20VYvFbcVq32PF7C1Cvev8DqPav1lC5bpCkZIjyqUz0O9zx3qfTlZr+u8I+0lrO0a9ICX8gjMHb4+87sDVHKSjLS6sN9j/YbqoO9LrjPrvDjPo32NxWCMCH7/wsLvX/uE9X0w70k+czf7896Ot4aYohjR30X5Xpi8JufzJT55hYioI2z41oM4dOcPfI6bseFbYzF2rKQHsXXsXY51PoI77wJ+IMse3Iqx39mKH6j/6XVV/iN3fklVqcRk/PRXN+G5L5v9PAjcxQE6iGIuPi00oiBgCw0iIqKwBG8xkozYQoOI4iURW2hYDTN+iq0f/zvGfgtty11NNN7EH3S517be+3Lm4WydYbhaehBRpBKzhQYREREREVFH2/Br/MF7gFDpKvId4EHdQuPL+MObpjxs0s3EtNCQxGAGUcwxoEFEREQUI7dddR4vlp5E9d0nMSHnvCklovjZg0d/8Adc+p3vwG6PgbwsfOTNg6iV+Ss/gZs8mlmEaM8BHFJ7ZDcToo7FgAYRERFRDEy98hx+dPMH6N3ajCHdmvDzCe/jM5edM0uJKG72PIofOJthSKsN3Ilfbd2KrT/IwqGIWmhswLe+/Afgzl9hq+xHEp8TSxRzHEODiIiIY2iEzB7PIhhf63mMhWG459VU/m+vk+RjaEwZfg4//PgptDa3oiHvLrSog77w9d/p/A+29cVTB3qYNQOZgZX1c1FbPA6LakyR5q+cKHEkzhgaRJTMAo+hwRYaREREivWklhkp9EQkih9phbFwzAdoPt2CozlfwKmR9+LDkfegIe/zaD7Tiu+NPInJl7ByR0RE1F4MaBAREaUoqyVDsGS1gOjIpP7Tpkz9Hy0yVf+TaUuLlVolmbzMq/87yq33mUg+nXMWC0a/j6YzLTia9wWcunY2unTpgrS0NJy89ks4OvxzaDrdigeueA/FQ86YrYiIiCgSDGgQERERRcGtWWdRXvA+mk+34tjwL+DUdV/RwYyWlhadZP79gi/i6Ig70fxhC76ddQKfHHTabN0O+eXYUl+PepNWzjDlumvKFpTPcC+XZfnlW1zrbinPN+sqHvtZqbYmIiJKbAxoEBERUZS1bTohrSxsPhtWmOXWxHNdu8ysYVJimfyRs7oribS+aLjy8/iwcDbS09PR3NyMpqYmPZUkLTXev2EWjl47E01ngG9mvodJAwMFNXJRUmUHGexUgSKzVActqkpQW5aJzEyVipcjr2IL3HEKtf1cYI4sK6tGUUU9HsUca12Vzy0pM4EL2c8kbCw2+ykD5jqDHURERAmIAQ0iIiKidpp3+fs6mHH8qrtwerTVzUQCGNIyww5m2IEN3f3ko3ehoeAOHaYpHXrS7MWXOiy3gwyuVIZqsxT5w5GnclWVJl+zCEurc5E3wuRl+zmLoMcOraxSa9Zh43ozkqjO52G4xC30fhzBk4oi5Lp3QkRElJAY0CAiIiJqp5+/3heNH52D02O+4mqZYQcxJKjhnEq5OHnj53Hkxrvx2yN9dT7+qlHmDJzMsqMkREREiYkBDSIiIqJ2evpwTzSNvtPVMsNOc+bMwfTp03HnnXdi3rx5HkEO8f51U/Gnhj56PiI1+1CLIhTbA17kl2NukaPFRqjMftjNhIiIkgkDGkRERERRYD2Nxd3FRNLRo0fNUqChoUGXOdexAxuRq8QsPW6G6Sqix8GYpUrDZe0HJVXusTrco4sSERHFxdNPP23mfEu7ecLExBtZKwTHjzWYOSIiIuoozsE9/Wv7SFWPQUF9zaupzFl59/aS9ywzefX/nJwcvPzyLilE9+7d9TSeVq9erY9NghR20OILX/iCWWp5/PHH9TqyzF73vvvuM0uJUse5c+fQr18/9OnTB6dOncLZs2fNEiKi6GELDSIiIqIosIMY9jgZvlpfSJm93E5EREQUGQY0iIiIiKLg5MmTrvEx7MCGN2cwQ+adXVKIiIgoPOnZObk/MPNxM3jkBNz62WLcXlyMj3/84ypdjauHnMGh197FKbOOt9OnPzRzRERE1BllZGTgnXfe0fPyZJF4e/vtt3U3mB49euiAxZ49e/D888+bpZbRo0ejZ8+eevnp06fxxz/+kUENSklyjct3QbqDnT9/XueJiKItzmNoDMaE0nsxbpDJemvYi7V/fBKvHjF5B46hQURE1PGs8SyCcY+BYXNu53NeTWXOyru3l7xnmcmr/yfaGBpE5MYxNIioI8S1y8nI6SaY0bAXW9Y+jkWLFpn0ONZuaQBkmY9gBhERERERERF1bvELaIycjtuukJm9WLvsSTzr0QzjCF59dhkWLXoSr5oSIiIiIiIiIiJb3AIaI6/S0QzsXcugBRERERERERGFJ04BjZGw4hl7sVuiGYNHYsL0UpSXl1uptBTTJ4zEYFmFiIiIiIiIiMhLfB/b2nAU7w6egNJ7b8O4Kxwjgw4ahCvG3YZ7p480BUREREREREREbvF5yokOYozDoIYGNAwapKaeTzMZPHI6br/tCj0m6N61i/Ckjz4pfMoJERFRx3M9lSQg91NKbM7tfM6rqcxZeff2kvcsM3n1fz7lhChxxfopJ0899ZT52+BbWlqafk2Z3n777aaUiFJNfFtoSDBj71o8vszz0axHXn0Sy9bu1fNXXMVWGkRERERE5KmgoECnUaNG4brrrlPpWuTnj8TIkSNxzTXXoKmpCZdffjkqKyvNFkSUauIT0DhyFMf0zF6sffJV309mffcodBuMCy/iWBpERERERKRJqwtht+CyU0uLVQaoGZVkvd69e+Oqq67C6tWr9TZElFri1ELjXRxljxEiIiIiIoqQFcRoUdNmV7LyVoCjW7dueOmll7B792506dJF54kotcQpoHEEr+2RiMYV8NejZPDVV+oxNBr2vOa7BQcREREREXU60vLCGbiwW2Z4p2uvvQaFhaNQUHCdHmfHd0BjBlbW16PekVbOMIv0si0ozzfZsAXaNxFFQ9zG0Djy7HOQUTKuuM37Ea2DMXJCKe4dp8MZ2PMawxlEREREROTW3OxulWEldyBDgh3OgIckWV/KfKvD8uJMZGaqVLwceRUrEb24QyT79g6ktDewQpSqJsdzUNBX8eTavWiAeURreTnKdboXt5lgxt61y/As4xlEREREROQgAQoZ9LN+zzv4n/9YhZ9P/m8duLDH15AuJmLplMf0vKwfkpp9qEUehscieBDLfRN1RpM/Hs+AhiJPM3l8LbbsbbAGADUa5DGujy/z+bhWIiIiIiLq3OwAxbNLn8Wdj1htHs6fP4+Hb12K7atf0lMnCX5IwCOoGcUoql6KRTUm7xKk1UR+Oba4upb4aYXhsW9/+5NpBYqQi5Iqta+VK73yZs8er+ejm0z5SteyLWzaQSnqyuxL4xzQEEdexbNPLsOyRYuwyKRlXo9xJSIiIiIiEvYYGuJoXYMrUHHu3Dk93fb7F/XUye6G4psJFkgAoAIomxXuY15nYGXVJGy0u5aUAXNdQYRw912JWWoH1XZXlVmzvPKyvbxeCWrLzOvprizO4Ih6zbwqcyzVyC0pU1sQpab4BzSIiIio8/C4Q+qet+ZM3i7W63qW2UWt5n9E1DlZY2i04rYfT8Ujn35Ul9mDfk7/5Wf11ClwlxPnOBe1mOvRciIE+cOR5xG4KEJu3gizsJ379kW/XjWq7NhIzSIsrc6F6yXlNSvMwsoqtSa7uVDqYkCDiIiIqJ3SPjEbXX70gk5pP9yGtEXbgIXPAwv+gZbvbUHLdzej+YG/o+nb/w/n5z+Llo99wWxJROGSFhpnzpzRAY1h1wzFnHUlulyGzfjqn76CgQMH6GlT0znX9PTp0wFaaDjUrMfGOmdwIFTVKJOghZ18tcSIeN9E5MueA4cY0CAiIiJqr7R/+4qZU1pa0drcgtamZjVtBtR8S5Odt6bnR3/erExEkbBaaLiTCDRGRkjBDJE/BZNy61D7usm7vI5aZzBCxsMws9Zgn0WObiZ+eOw7wP6CMa9XbPcjyS/H3CJHiw2izqL2IAMaRERERO0m3WCkj35TM1okgKEqW3qq81ZgQ/I6oKGTVQF753MbcGrknXqeiEIjgYuzZ8/qqQQqZCotMQKRFh3+ObqL6LEwxvkYFLQGi5ZWo6jCrFcsbTJslZhVvBxqJ9YySa5ROv3tO/D+qqrNdno/bfPyenn2tnq/s1QpUSez51Gk3TxhYlJ2QD1+zPlcFCIiIuoIge6AurWq9cys4dpOTd2L3OtZy03eXkdPPcv0eqY8JycHNS+/LGuie/fueho3P/iH1TJDjk0CFnq+BWi2ynbOvkxPr1u2R24V6+W9HpuMIzP/jDT1Xi5eNcXsyAd5mkFViaoWGXXLUTxukaoO+SNPOZiLWl1xcs6bxUQdQAbo7NevH/r06YNTp07pAES0pKenY8mSJSguDrlNA55+eiO++c1v6u8hEaUOttAgIiIiaicJYugWGeebzHwzWpvsabMOwuj1pEwnq4VGWouaSvJHBzMcT09Qqaw2D+yCT52ZPYZGOOwxN4gotbCFBhEREYUstAqBtEows4ZrOzV1L3KvZy03eXsdPfUs0+uZ8kRqoSEDfurjMq0vJLiRJnnTQkO6mOhWG6Z5vLTm6PvrqTg6bY3OX/y/d5g9OeWjfEsV8pZmIrynSLKFBsVfLFtodO3aNWhriy4yQqiDrLt48WKTI6JUwYAGERERhSxQBcJNKvFm1nBtp6buRe71rOUmb6+jp55lej1TnkgBjaZv/T9XwEJ3PVFT6dufJocrQYxmVa6Ou9lMpStKv9/+Oxpuf1Jt3YpBf7T72zvo1hl5WJrpv2/8jJX1qLBb3VeXmScrBAhoeHRfkacyyL6tdaQDf5HaV11dLmqdQZQZK1E/tzZINxciT7EMaBAR2djlhIiIiKid7IE+pXuJdCeR/Pyxg/HuA/lY9IlMqztKk4ypodbTXU6arA1bzqtk5n2pq4X9sIX88i1mwMEtsB+mUDnL7opShuqiua5y32ZgpbP7ShkcT2XIRV7tHFU+DuNkoELX4xPUVsVFqF7KYAYRESUeBjSIiIiI2kk/zUSSBCxaWvC1Gwfjvo8NwZlmYNb1g/Gfn852raMf39oi7U1kDI0WpJknnviU6x4vo2bROCtwYfKatJ7QQY6K4I98zB+OPOcTFyqK1O7tvddh43oTsqisQnVRMayQxgwU5y1HBR+fQERECYgBDSIiIqJ20kEK3fqiGf8xZjDmSDCjCfjwPHRQ4zPXXIT/uGmY1YJDt9awWmXIoKB6YFBfavahFnkY7q/VhXQfqQDKdAuNYiyvM+UBSTcTu1WHSj4H56hExfI83Xojv3wu8jauZ+sMIiJKSAxoEBEREbWT/WSTr44ZgnvHDMXpJuB0sxXMkHmZ3jP+UpSoZAc/RFpLk06+SWABKKlaaVpLeBmRh1y7S0r+FExyPdfVDx0gKXJ0M/GvZv1GYFIZyibB3XKDiIgowTCgQURERNRO0pXknhuGYPaNmVYwwyQ7oKHnVfry+GzMvjlLxgHVdJcTlfzR3UzKgArdrcTqWpK3fI41wGdlBZajBFVS/mgeaoO20KjErGIdITH7Ummlz1CJvDCW1hahqHYpn45CREQJi085ISIiopDxKSe+Xf3p2Xj4oYX6WOU4zRAZ1jFLknJJJv/Nb38P+575Nd675VG9oP/Guao0scgTVIqrwn1kLJGFTzkhoo7AgAYRERGFjAGN6Llw9GdRN2A80tT7uWDTPFOaIGR8jkeBOXxUK0WIAQ0i6ggMaBAREVHIGNAIrLF4OUbnDVJpoDpOVSDHmpbmOmbddEPyklOzO944gpf/9S76PVumt4+/fJRvqUJJbh2WF49jdxOKGAMaRNQROIYGERERUZTkHv0rCrIz0NzciqYWKzU3N6OpuQXNTS2mrAXnz6t5VZafcxEuPfGc2ToR1GDROHkCCoMZRESU+NhCg4iIiELGFhpEFAq20CCijsAWGkRERERERESUdBjQICIiIiIiIqKkw4AGERERERERESUdBjSIiIiIiIiIKOlwUFAiIiIKGQcFJaJQxHpQ0Keeesr6e+BHWlqafk2Z3n777aaUiFINW2gQEREREVHSKSgo0GnUqFG47rrrVLoW+fkjMXLkSFxzzTVoamrC5ZdfjsrKSrMFEaUaBjSIiIgopvzdRXUVey13Fbv+Y89bGWc5EXU+0upCyN8WZ2ppscoANaOSrNe7d29cddVVWL16td6GiFILAxpERERERJR0rCBGi5o2u5KVtwIc3bp1w0svvYTdu3ejS5cuOk9EqYUBDSIiIiIiShrS8sIZuLBbZnina6+9BoWFo1BQcJ0eZydgQCO/HFvq61Fvpy3lyDeLYmcGVjpfU6WVM8wiIgoJAxpERERERJRUmpvdrTKs5A5kSLDDGfCQJOtLmU8SzKiahI3FmcjMtFJZbR5GmMWxVYfl9usWL0dexUoEj2lIIGQLyl0RF+88UWcxmQENIiIiIiJKLhKgkEE/6/e8g//5j1X4+eT/1oELe3wN6WIilk55TM/L+r7lo/zREtSWjcOiGlOkVM6ahQ4fSrRmH2qRh+EMTBCFZvLHGdAgIiIiIqLkYgconl36LO58xGrTcP78eTx861JsX/2SnjpJ8EMCHm3kT8Gk3GpU+Y1eWK0fVq7cgvp603rCo3uKo0WFz3LTeqJ8pSmvxxZ/TSlmFKOoeqkJrPhrhSHTChQhFyVVan8rV3rlzdF4daFxd2UJ43iIEtyV2ZcyoEFERERERMnDHkNDHK1rcAUqzp07p6fbfv+injrZ3VB8qqvF62Y2v1wCF1LRdwYTcpFXOweZmdJqYwZWOrunlAFz9Yr+ykUuSvKqTHk1ckvK1No2E4iQ16wAymYFaxdSiVlq59V2V5VZs7zysr0ci7Q6Mceiu7J4vh//x0OUXBjQICIiIiKipGKNodGK2348FY98+lFdZg/6Of2Xn9VTJ/9dTpRc93gZNYvGqYq+BAic6rBxvemPkj8ceR5BiCK1udraX7lWh+UVJlBRWaX27exW4hxDoxZzPQIpEdLH4mh1UrMIS6tz4TqcgMdDlFwY0CAiIiIioqQhLTTOnDmjAxrDrhmKOetKdLkMm/HVP30FAwcO0NOmpnOu6enTp3230Iho3IpqlEkAwk6uVhX+ykNUsx4b65yBByIKZM+BQwxoEBERERFRcrFaaLiT8DlGhuG3uwkqUbEcKKkK5ekiig6AFDm6kxj+ysOhx/OoQ63u//I6ap3BDRlfw8wGZY6l2H5D+eWYWxRonBCiJFV7kAENIiIiIiJKHhK4OHv2rJ5KoEKm0hIjEGnR4Y/uZlIGVOixMyRVIG/5HI+nnrhVYlaxjoCYdVXSI276Kw/G0U1Fj8FhP22lBouWVqOowiwrlvYftkpUVZvtzGt75+VY8uxt9X7j8NQWoljb8yjSbp4w0X8oM4EdP9Zg5oiIiKijBLoD6taq1jOzisc2at7OucpdZdZ2drmemmW+5nNyc1Dz8st63e7du+tpomnp2gvNvQehtVsfdH3vILo0nTZLiFKbDNDZr18/9OnTB6dOndIBiGhJT0/HkiVLUFwccpsFPP30Rnzzm9+0/n4QUcpgCw0iIiLqlKQffiydGj4Vxz/xn2i8aRFOjPk2Gm5ZhpPXfhnNvQaZNUI0w/14RUntf8SiPLbRvb+g+9SPf4zCQIVBeR9XR7xmJOQ4E/XYOgd7DI1w2GNuEFFqYQsNIiIiClloFQKrpYXNYxs1b+dc5a4yazu7XE/NMl/z7WmhMWLECGRkZGDbtm0B+tZH7v2r7sTpHN93j9NPNyBjc3lorTUkmFGRh+WuZuj5KN9ShUkbizHOd3v4EEiFfC5qXfuUfAWKqsvCH8QwqjyPSx6fWTVpI4rHLUKk7zQ2vM8f+RLLFhpdu3YN2tqii4wQ6iDrLl682OSIKFUwoEFEREQhC1SBcLMCEzaPbdS8nXOVu8qs7exyPTXLfM1HGtCQu7s33ngjLr74Yrz77rtRC2o09x2ME2Pno2ngZWjp3gdp504j7dQJpPl4XGTvfevQ91/rTc4fK3iRtzQTHnEGaTFRlYelmZH2ifdRIW/3PqPBV6AlEQMHDGiEIpYBDSIiG7ucEBERUaciAREJYkgwQ4IaY8aMaXM3N1wSzGj49OM4NyRfBzNEa/deaMkYipY+A9Canq7LRNc+vYAxd6Jl5KfQ2n+oKfVBP/HAx5MJ9KMd7cdMSuV6C8rL3d1SPLqP6O4idheOAE9x0Pu0n4pg7XPlyi1mG/Ma+RJgqYfHOIfSgmRLOfQrhvpakfK5f+9jtY7RPheuY/XY1vkeAp+/GSvd24Q2wCMREXUkBjSIiIio05EWGdEMapwc/VVXIMNba6++wMCL0e8SlXI+otKl6JH5ETR/6ntomrk0cFCjrhb6CY5t5Lof5yhPScirQmZmJjLLqpFbUuau7OunG6hyvQxhPFJS7b92jtrO2WLDPHXB9SxI9QrFRaheKl1C2vNavuWXz0VR3Uast1tr+N2/41hnlKGktsxaRyWrZYtsW4LaMrOtfvqDcwwMf+cPqJxltlEvWF00l+NmEBElGAY0iIiIqFOSoMb27dtx/vx5HdS4/PLLzZLwnbl0rJnz1LNXVwwa0geXXTMEQ668BBddeiG6pDt+fvUfiuZPfddkfMjNgytu4aEOta5IRx2WV5iwQ2UVqmFab+QPV3OOR0JWFKnd+d6bxXOfG61IgifZf1GxqfDPQHHecuiXDuW1QmrB4d5HVUktyuzxMwLu33Gsr9eirqjCq5WKbOto6VKzCEurnQEhP+dPuAZkrUDoz9MgIqKOwoAGERERdUrSImP06NHo1q2bbqnxr3/9yywJX5dzp8ycpXffbrj0sgHIvmKgDmh0SbeeqJLerQsGXtQLfS7o7gpstF5aoKdteHQDcdBdUWqxL6TxG6pRZlor6ORv0M+Q91mJiuV5unWEtKDI27jeMWBnkNeqWYRxruX+xuqow3K7FUabdUJ4L+Y15uBRHYhoVy8RCcBUwLxmMZbXmXIiIkoYDGgQERFRpyPBDOlmEq2BQbsef0MHKCR4MXzkRbj0sgz07ut/oNJevbthwMCe6NGrK/DeYVPqzXTxqHC2ZrC6T2B5RfDBO2v2oRZFIXT9sLtkhDYgaM36jcCkMpRNqsVSe1TMkF8rQmHuv2bROBQvr0OeNLUw27oCQ/nlmFvkY2wSbyPykGt3+dEBH11KREQJhAENIiIi6lTkKSfRDGaIAVuXIC+nu0drjGBkvX79e6DXG8+YEh8qZ+nxIip0twer6wPKMkN8ZGslZhUvB0qqzLYquZosOLpv6Cd2eD1JJRBpOYIiFNVWOQIggV4rGkLcv6uLiNVlxQq4WNvmVZjt9FgcIQRvKiuwHCWokm0ezUMtW2gQESUcPraViIiIQmY/UjUw6/GrNo9t1Lydc5W7yqzt7HI9Nct8zUf62FYxYsQIZGRkRO2RraLLwEz0uu1b6HrNv5mSIE6/jzPPPIazf/8fU0CUOvjYViLqCAxoEBERUchcQYiArMCEzWMbNW/nXOWuMms7u9wOXEjO13x7AhpCWmq4joGIoooBDSLqCOxyQkRERJ0SgxlERETJjQENIiIiiqpAcQJfi+wyvZ1rY2vq+7+mRYdVQERERJ0UAxpERERERERElHQY0CAiIiIiIiKipMOABhERERERERElHQY0iIiIiIiIiCjp8LGtREREFLJQngzivY4z72veY6qSycmsWeY9b+Vzc3JQUxP5Y1uJKHZi/djWp556yvxN8E0eyyyvKdPbb7/dlBJRqmELDSIiIiIiSjoFBQU6jRo1Ctddd51K1yI/fyRGjhyJa665Bk1NTbj88stRWVlptiCiVMOABhERERERJQ1pdSGs1lru1NJit+RSMyrJer1798ZVV12F1atX622IKLUwoEFEREREREnHCmK0qGmzK1l5K8DRrVs3vPTSS9i9eze6dOmi80SUWhjQICIiIiKipCEtL5yBC7tlhne69tprUFg4CgUF1+lxdnwHNGZgZX096lfOMHlP+eVbUF+/BeX5kjPrOpKfzYiogzCgQURERERESaW52d0qw0ruQIYEO5wBD0myvpT5Voe6vLkmaOE0A2UluWbeVoflxZnIzFSpeDnyKlaqtYKRQIgdFBHeeSKKzGQGNIiIiIiIKLlIgEIG/azf8w7+5z9W4eeT/1sHLuzxNaSLiVg65TE9L+sHUlsLTJriFWGYUYyi6mpUm2wbNftQizwMZ2CCKD4mf5wBDSIiIiIiSi52gOLZpc/izkesNhLnz5/Hw7cuxfbVL+mpkwQ/JODhT23FUtSWlDlaW+SjfG4elldUmbwPOuCxFItqdMZPKwyZVqAIuSipkq4tK73y5hXzy7HFZ1cWs5/yla5lW9i0g0i7MvtSBjSIiIiIiCh52GNoiKN1Da5Axblz5/R02+9f1FMnuxuKf5Woqi5CsR1IyJ+CSdiI9TpY4WQCERJcqADKZgV7JGwlZmWWodruqjJrlldetp+BlVUlqC1zdmVxBkfUa+ZVWcvKqpHrEXgh6twY0CAiIiIioqRijaHRitt+PBWPfPpRXWYP+jn9l5/VU6dgXU5EZcVy5M0th8QRZpSVoHbpIrSJZ3iMoVGLudEYCyN/OPJQjSo7NlKzCEurc5E3wuTlNSvMwsoqtSa7uRDZGNAgIiIiIqKkIS00zpw5owMaw64ZijnrSnS5DJvx1T99BQMHDtDTpqZzrunp06eDtNBQatZjIyZhyoxyzM1bDjuG4JesX+cMPBBRR9pz4BADGkRERERElFysFhruJAKNkRE0mKHVYNHSWpRUlAAb1/toneFFuqXk1qH2dcm8jlpncEPG1zCzQenBRZ3dXcoxt8jRYoOIfKs9yIAGERERERElDwlcnD17Vk8lUCFTaYkRiLToCEllBZbXVWOpNdKnD44xNKomYWPxODMoqARDqlFUYZYVw/F0FBmfwzkIaNv8LD1uhtlW73eWKiWigPY8irSbJ0z0H8pMYMePNZg5IiIi6iiB7oDavNdx5n3Ne0xVMjmZNcu85618bk4Oampe1mt3795dT4koMcgAnf369UOfPn1w6tQpHYCIlvT0dCxZsgTFxSG3gcDTT2/EN7/5TfN3hIhSBVtoEBERERFR0rDH0AiHPeYGEaUWttAgIiKikIVSIfBex5n3Ne8xVcnkZNYsYwsNomQTyxYaXbt2DdraoouMEOog6y5evNjkiChVMKBBREREIQtUgbB5r+PM+5r3mKpkcjJrljGgQZRsYhnQICKyscsJERERERERESUdBjSIiIgoiqQVhR+6hUVorFXN+m3miYiIiBjQICIiIiIiIqIkxDE0iIiIKGT2eBf+WeNbOLm2UVPnIrvcY2rWscrMvnRZ2/lwxtDIysoyc0QUDQcPHjRzvnEMDSLqCAxoEBERUchcwQm/TODBwbWNDka4eQQy7KlZxyoz+9Jlbec5KChR4mJAg4g6ArucEBEREREREVHSYUCDiIiIiIiIiJIOAxpERERERERElHQY0CAiIiIiIiKipMOABhERERERERElHQY0iIiIiIiIiCjpMKBBREREREREREmHAQ0iIiIiIiIiSjoMaBARERERERFR0km7ecLEVjOfVI4fazBzRERE1FFaW4P9bGhV65hZw7WNmjoX2eUeU7OOVWb2pcvazufm5KCm5mVVCHTv3l1PiSgxnDt3Dv369UOfPn1w6tQpnD171iyJjs/++1T07dvH5Nr64INT+Ov/+zsaGxtNCRGlIgY0iIiIKGSu4IRfJvDg4NpGByPcPAIZ9tSsY5WZfemytvMMaBAlrlgHNO7+wuew8IcPmlxbC77/HaSnp+NP655iUIMohbHLCRERERERpZx77v0q/n3qp5GRkWFKiCjVMKBBREREREQpZcCAAXhs2VI0Nzej+JNFppSIUg0DGkRERERElFK+/o1v6S4pkrp362ZKY2kGVtZvQXm+yXpwLMsvxxa/6xFRuBjQICIiIiIi6gg1izAucxwW1Zg8EbXDlQxoEBEREREREVGy2cOABhERERERdWK6G0g96lXaUl7u6DpiuorMcC9fOUNW36LnrfX99B3x2OdwUyicXVOs+ZUrZX8rVY6IwsWABhERERERdVIzsLKqBLVlmcjMzMQcTILnEKK5KJkLzFHLMsuqUVRRj0fVWrKu5HNLynwEIoLt0ykXebWyv1moNCVEFDoGNIiIiIiIqHPKH468uuWoMNGEmkVLUW3NGnVYPmcR9JAXlVVqWR02rjcDYOh8HoZ7N9IIuk8nx/6IKGwMaBARERERERFR0mFAg4iIiKKmtdXMGK3eBYar3HvqZC9y/Mc1r9fXOSKiyNXsQ21uCcpMv5H88rkBuoeEKBb7JCKfGNAgIiIiIqJOqhKzzNgYMoDno9gYoHtIqGKxTyLyJe3mCROT8vbG8WMNZo6IiIg6ir8WFzbv5R55NW/nnC009JzXVC9vM6/+ZxXostzcHNTUWH3Pu3fvrqdElBjOnTuHfv36oU+fPjh16hTOnj1rlkTH3V/4HBb+8EGTC2zB97+DJ377PyYXjDx5ZC5qi8dhEYe2IEp4bKFBREREREREREmHLTSIiIgoZB4tLnzwXu6Rl5YVrlkzZ5d5TfXyNvPqf1aBLkukFhqjS+egsGQOWlvUsUlqNlOdgBbJqyRvSKYtqhxm+ur/rMCrq35h9kSUGmLdQuOz/z4Fffv2NbnAPvjgA/zvn9abXDBsoUGUTBjQICIiopB5BCh88F7ukZdAhGvWzNllXlO9vM28+p9VoMsSKaBR9GINas+c08GK5vMtVtCiyUoS1Gixy3S5zEOXtTS34PK+PbDrix83e3KSilWFx2CCdcuLMS6iWhYraRQ9/TMycNfsUrx7+DDWr/kDzp45Y5a4xTqgQUQk2OWEiIiIqJ3eOHUWzWdbsPWKS7DtmkvRfK5Fp5ZzzbrcyjervJpK/qwqN+u8fvRDsxdf6rC8OBOZmZLKUFtShfqV5tEJUSGBji0ozzdZohCM/8QtGJAxEMOvuhpfuGcOevTsaZYQEXUsBjSIiIiI2skOTticAQsJZFjTVjRJMOO8Z3nTGfd2gVViVvFy1BUVI5ohDaJwSOuM/MLRJgcMHprJoAYRxQ0DGkRERETtZLfCuPLX63HFL9fp4IUd1JBWGbplhiRV1qJbaFhJLzsfakBDqVmPjXVFKLYjGvnl2FJvPRqyvn6lCXTko3yLXVaPtg06pFWGWrZypenSkouSKsmbFT326dzetOaY4V6+hU07Og0JWHx84i2Yfd83TImbBDXuuOuLJkdE1HEY0CAiIiJqJ6u1RTP2fGkK9n5lqkcQo8lurSHBjCZrjI3m86pMpiYQEpkZWFk1CRvtLillwFwJMMwoQ0ltmemmkolZlWZ1TYIdFUCZWjZrFmapjartbi16RdlnCWpluWxfvBx5Fc4uKbkomQvMMctQ8ii7q3QCN4y9CfMX/Bg3fWISevbsZUo99ezV28wREXUcBjSIiIiI2skKWLgDE02mO4mrZYZJTWdUuaN1hrVds9kqVHWofV1N8ocjz25dIS0mKoqQmzcCeL0WdUUVPltPTHq0CpM2FnsFORz0PqtRZS+vWYSl1bmQ3VrqsHzOIuhxRdsso1S1b/dreK/xuMl5OnvmNP6+6Rn87hePmhIioo7DgAYRERFRO9nBi5z/WoOsn632aJ3R4uh+4prqeTNVKWT5UzAptxb7XE8qqUaZaYmhk0QqahZhnJqfg0e9uozkqlRnBT2iIh/D88wspbQTjcfxuxWP6eCFU82O7fjvn/wIz/11I874eNIJEVGsMaBBRERE1E4SwGhSqdtHRqDbJSNMsEKCF616KuNk6OCF7mZitdKQ9XU3lJADGnZ3kFnQDShq9qEWRVY3Ex9qFo1D8fI65A23l9dh45xxKIPv1hua2adzjI65RY4WG8jFpClmWx1ccS6jVHZt4Wj06NnLI6jxys7tDGQQUVwxoEFERETUTlZLDAlaSADDBC/UvA5kSPBCuphIci2T+WbXE0/8c3QpqZ+L2mLnmBjWU0/UCma5StIcY8ZKV76qpBZLF7mac2iVs4qxcZLaZks58tU+qqqdg4Ja+8yrMPvTY3SYAIpWh9o8q+VHvTO4Qilt/MRbMP4Tk7B50zNY8UiFq/vJwbpaPSUiipe0mydMbDXzSeX4sQYzR0RERB2ltTXwzwbv5R55NW/nXOV2mddUL28zr/5nFeiy3Nwc1NRYlfXu3bvrabz0rnhGD/jZ0tSClmZ1fGa+Vc3rcl3mXtZslkmSoMaAJz9n9pTI5CknElQZB68YCaWwrNw83DW7VAczNv91oy4bkDFQl0uXE3/OnTuHfv36oU+fPjh16hTOnj1rlhARRQ8DGkRERBQyjwCFD97LPfISiHDNmjm7zGuql7eZV/+zCnRZIgU0zg+7Auczr0Bri3VsrS3qMGVeJ/MeTNnK792Du37wOH674F58vvwx9DlRiz4n68yeEhkDGp2RPK51SOawsFtjMKBBRB2BAQ0iIiIKma6YB+C93CMvFX3XrJmzy7ymenmbefU/q0CXJVJAo3NgQINCx4AGEXUEjqFBRERERCGoxKxMBjOIiChxMKBBREREREREREmHAQ0iIiIiIiIiSjocQ4OIiIhC5jEmhg/eyz3yMvaFa9bM2WVeU728zbz6n1WgyziGBlHiivUYGk899ZT1t8GPtLQ0/Zoyvf32200pEaUattAgIiIiIqKkU1BQoNOoUaNw3XXXqXQt8vNHYuTIkbjmmmvQ1NSEyy+/HJWVlWYLIko1DGgQEREREVHSkFYXQlpoOFOL/YhkeUaySrJe7969cdVVV2H16tV6GyJKLQxoEBERERFR0rGCGC1q2uxKVt4KcHTr1g0vvfQSdu/ejS5duug8EaUWBjSIiIgoSvz3Zxe+lnqWqUqInjhKzbxVbv3HsZSIOiFpeeEMXNgtM7zTtddeg8LCUSgouE6Ps+M7oDEDK+vrUe9IK2eYRSGTfWxBeb493979EVGoGNAgIiIiIqKk0tzsbpVhJXcgQ4IdzoCHJFlfynyrw/LiTGRmqlRWjaKKlWhfDMKxv+LlyAtpf86giPDOE1FbkxnQICIiIiKi5CIBChn0s37PO/if/1iFn0/+bx24sMfXkC4mYumUx/S8rB+SyipUIw/DoxVIqNmH2mjuj4jcJn+cAQ0iIiIiIkoudoDi2aXP4s5HrPYP58+fx8O3LsX21S/pqZMEPyTgEdSMYhTVbcR664nQQH45tri6jzhaWjjKt5QPN4U+yP6ql2KR3p+/VhgyrUARclFSpfa5cqVX3ryqx7E4u7KY/ZSvdC3bwqYd1AlcmX0pAxpERERERJQ87DE0xNG6Bleg4ty5c3q67fcv6qmT3Q3FNxM4kGBAcRUyxy2CFc+YgZVVk7DR1R0FmKsDBVJegtoyq3wOJqFIr29z7K8CKJsV7LGxlZildl5td1WZNcsrL9t7vqbVlcUZHFGvmaeO3XSbyS0pU1sQpT4GNIiIiIiIKKlYY2i04rYfT8Ujn35Ul9mDfk7/5Wf11ClwlxMTOChejrqiYncgIH848jyCE0XIzRthldctR4WJU9QsWopqa9ZwjqFRi7nRGAtDH0s1quzYSM0iLK3OhRyORb2mfUDR7jZDlMAY0CAiIiIioqQhLTTOnDmjAxrDrhmKOetKdLkMm/HVP30FAwcO0NOmpnOu6enTpwO00DBqFmHO8jzTCsNWjTIJTNgpaGsLLzXrsbHOGXggomjZc+AQAxpERERERJRcrBYa7iQCjZERNJhhSGuL2pJHrRYVekDPIq8AhyLluSUocw1tMdery4lD/hRMyq1D7euSeR21zuCGjK9hZoMyx1JsNx/JL8fcIkeLDaLOqPYgAxpERERERJQ8JHBx9uxZPZVAhUylJUYg0qIjNJWoWA6UPFqOfBnbolgyVa7BNq0BOlW5fryrVfYoNnp1OXF0U9FjcIwzg4LWYNFS93b1xdL+w1aJqmqznXkN77wcS569rd7vLFVK1InteRRpN0+YGMJwv4nn+LEGM0dEREQdJdAdULVULTezhnN9X/OuMjXV/5OsnjdTM6/X0/NSZi3Lzc1BTY01dF/37t31lIgSgwzQ2a9fP/Tp0wenTp3SAYhoSU9Px5IlS1BcHHL7Bjz99EZ885vftP6WEFHKYAsNIiIiohga9pt7kPFoqckRUXvZY2iEwx5zg4hSC1toEBERUcgCVwhM6wkH5/q+5l1laupsfaFLZWrm9Xp6XsqsZcnSQiP76floPNED7935I1NClPpi2UKja9euQVtbdJERQh1k3cWLF5scEaUKBjSIiIgoZIEqEGqpFWxwcK7va95VpqbOYIUulamZ1+vpeSmzliVTQONoQ0+c+sIPTQlR6otlQIOIyMYuJ0REREQx1NqahubmNJMLxwyslMH/HGmL99MWYkZee4v1pIeoiPb+KJ76Z2Rg7re+izvu+hJ69OxpSomIOh4DGkREREQxJC1Kmpsj/clVh+XFmcjMlFSGWnnagn7iAVH8jP/ELRiQMRDDr7oaX7hnDoMaRBQ3DGgQERERxVBLiwQ0Immh4c16bGNdUTEY0qB4kdYZ+YWjTQ4YPDSTQQ0iihsGNIiIiIhiqLW1SztaaHipWY+NdUUotiMa+eXY4uiSYjfemLHSPd+mu4dsoxea8vKVwbu0+HkdIa9ll3u0HnFss6V8uCkU+Sjf4t7GuQklLglYfHziLZh93zdMiZsENe6464smR0TUcRjQICIiIoqiS35zj0r3ouvF/XW+uRloMgGNtEED0GPJPHRd/DWdb58ZWFlVgtoy0yWleDnyKqzARWVVNYrsqMeMYuTVAZOmWMGK/CmTgNrX9TyQi5K8Kmv7smrklpT5aP3h/3VE5SxTnlmG6qK5ptxzmzmYhCK9tjKjDCW1ZWabTMyqNOWUsG4YexPmL/gxbvrEJPTs2cuUeurZq7eZIyLqOAxoEBEREUVRS0sXNGcMwAULP4cuF/VHU7MZFPTCAUgr+yLO9B2EM2fTzdqRqLPiEfnDkYdqVNkBgZpFWFqdi7wRav71WtTlDYfEFmYU52Hj0o0S0VD5fEg8Y+N66+kweoyOCrODyiq1tzwMN4EKl0CvI2bYLTwq3EEL2aZuOexd1yxaqvZgyLEVVXTgAKfUXvt2v4b3Go+bnKezZ07j75uewe9+8agpISLqOAxoEBEREUXRkQdW4dShUzjX90J0+9bdOH8+3RpHY96XcbrPhThTfxLpD//arB2m/CmYlFuLfXY8wh/pmoJJmJI/A8V5G7G+UvJ5GCHbqzlXPKO9pFtJBVCmW1sUY3mdKQ+kZhHG6VYbj7LLSZI40Xgcv1vxmA5eONXs2I7//smP8NxfN+LMmTOmlIio4zCgQURERBRFze++h/cX/R6n33pft8Y4frwnuqhfXKd7D8LZ+vfRY+kvkXa80awdDrsbxyzohg81+1ALz/E05hbZLSlqsF4aZTw6F3kb16uc5PNQXJYnzTNULgyBXmdEHnLraqE7sOhgi8wosk1uCcrMNvnlc92tN4yaReNQvLwOeW2ahFAiurZwNHr07OUR1Hhl53YGMogorhjQICIiIoqy1oYTaP7ZSh3AOPVhV5w+3RXnDr+PPo//Al0awwlm5KKkyh5Acy5qi51jTlhPPcmrMMurJmFjsQl2KDUS0ch1dy+RfF5RnqO7SagCvE5lBZajBFVS/mgeal0tNNQ2ZdUoMts8io3uLieuLir1qCqpxdJF0WouQrEyfuItGP+JSdi86RmseKTC1f3kYF2tnhIRxUvazRMmtpr5pHL8WIOZIyIioo7S2hroZ0OrWm5mDef6vuZdZWqq/ydZPW+mZl6vp+elzFqWm5uDmhqrMty9e3c9TTQtGRk4/sWvqsNNw8DfPIb0E77HISBKVFm5ebhrdqkOZmz+60ZdNiBjoC6XLif+nDt3Dv369UOfPn1w6tQpnD171iwhIooeBjSIiIgoZM6gRFsm2ODgXN/XvOfUHaxwBi7seb2OKy8BjVy8kuABDaJkJ49rHZI5LOzWGAxoEFFHYECDiIiIQmYHIHyzAg9OzvV9zXtOzfbqP1bQwnNer+PKJ2ZAY9hv7kG3wdbjWvXhIk39J03Py8CgLS1pOkmLDRkc9OR9S/W6RKmGAQ0i6ggcQ4OIiIgoSj54vzsajvXEkXd74fA7ffB2fR8ceqsvDhzsh/0HL0DdgQtQu/8C/Kv2Arx1uK/ZioiIiCLBFhpEREQUMrtFhW9WSwon5/q+5j2nZnv1H6sVhue8XseVZ5cTokTGFhpE1BHYQoOIiIiIiIiIkg4DGkRERERERESUdBjQICIiIiIiIqKkw4AGERERERERESUdBjSIiIiIiIiIKOkwoEFERERERERESYcBDSIiIiIiIiJKOgxoEBEREREREVHSYUCDiIiIiIiIiJIOAxpERERERERElHQY0CAiIiIiIiKipMOABhERERERERElHQY0iIiIiIiIiCjpMKBBREREREREREmHAQ0iIiIiIiIiSjppN0+Y2Grmk8rxYw1mjoiIiDpKa2ugnw2tarmZNZzr+5r3nJrt1X/0/7zm9TqufCtyc3PxSk2NbI7u3bvrabx9/dsL8IniW+WtoEWOVaXmlla0SFLzTS3W+5Cyv2/agF89/JDZkii1nDt3Dv369UOfPn1w6tQpnD171iwhIooettAgIiIiipLrb/oE6o++h7eOnsChIydw4B0r1R1uxBtvN6L27WPY92YD9h46irz8cWYrIiIiigQDGkRERERRcur0eWmc4WqV0dzSouebmmXarOeb1QrNra1ofP+MtRERERFFhAENIiIioiiyghlW0EIHMCQvXVCkTPLNLXq+qbnZbOHPDKysr0e9I20pzzfLiOKnf0YG5n7ru7jjri+hR8+eppSIqOMxoEFEREQUJbpFRnMLJt1wGaZPuBafK7oOt427UpU14wufvA5fnTIa93y6EE1NzbosuDosL85EZqakMtSWVKF+5QyzLNlIgGYLGJNJfuM/cQsGZAzE8KuuxhfumcOgBhHFCfD/AVvLK5fgEnL3AAAAAElFTkSuQmCC;" vertex="1" parent="1">
          <mxGeometry x="2130" y="564" width="1076" height="394" as="geometry" />
        </mxCell>
        <mxCell id="_r4hAPUsHNc9goj0nPAU-5" value="&lt;font style=&quot;font-size: 30px;&quot;&gt;Set up the qmldir file&lt;/font&gt;" style="rounded=0;whiteSpace=wrap;html=1;fillColor=#dae8fc;strokeColor=#6c8ebf;" vertex="1" parent="1">
          <mxGeometry x="2388" y="430" width="560" height="60" as="geometry" />
        </mxCell>
      </root>
    </mxGraphModel>
  </diagram>
</mxfile>
